<svg width="22" height="22" viewBox="0 0 22 22" fill="none" xmlns="http://www.w3.org/2000/svg">
<path d="M4.40039 18.2C4.86156 17.6835 7.02144 15.3067 7.6544 15.3067H14.3468C15.264 15.3067 17.1364 17.2769 17.6004 17.9714M20.6004 11C20.6004 16.302 16.3023 20.6 11.0004 20.6C5.69846 20.6 1.40039 16.302 1.40039 11C1.40039 5.69809 5.69846 1.40002 11.0004 1.40002C16.3023 1.40002 20.6004 5.69809 20.6004 11ZM14.4392 7.72798C14.4392 5.89647 12.8931 4.40002 11.0007 4.40002C9.1083 4.40002 7.56213 5.89647 7.56213 7.72798C7.56213 9.55949 9.1083 11.0559 11.0007 11.0559C12.8931 11.0559 14.4392 9.55949 14.4392 7.72798Z" stroke="#434343" stroke-width="2"/>
</svg>
