<svg width="40" height="40" viewBox="0 0 40 40" fill="none" xmlns="http://www.w3.org/2000/svg">
<path d="M25.9839 25.173C26.7698 25.435 27.6193 25.0103 27.8813 24.2243C28.1432 23.4384 27.7185 22.5889 26.9326 22.327L25.9839 25.173ZM20.8333 21.875H19.3333C19.3333 22.5206 19.7464 23.0939 20.3589 23.298L20.8333 21.875ZM22.3333 14.0348C22.3333 13.2064 21.6617 12.5348 20.8333 12.5348C20.0048 12.5348 19.3333 13.2064 19.3333 14.0348H22.3333ZM26.9326 22.327L21.3076 20.452L20.3589 23.298L25.9839 25.173L26.9326 22.327ZM22.3333 21.875V14.0348H19.3333V21.875H22.3333ZM34.3333 20C34.3333 27.4558 28.2891 33.5 20.8333 33.5V36.5C29.9459 36.5 37.3333 29.1127 37.3333 20H34.3333ZM20.8333 33.5C13.3774 33.5 7.33325 27.4558 7.33325 20H4.33325C4.33325 29.1127 11.7206 36.5 20.8333 36.5V33.5ZM7.33325 20C7.33325 12.5442 13.3774 6.5 20.8333 6.5V3.5C11.7206 3.5 4.33325 10.8873 4.33325 20H7.33325ZM20.8333 6.5C28.2891 6.5 34.3333 12.5442 34.3333 20H37.3333C37.3333 10.8873 29.9459 3.5 20.8333 3.5V6.5Z" fill="#60B338"/>
</svg>
