<svg width="33" height="32" viewBox="0 0 33 32" fill="none" xmlns="http://www.w3.org/2000/svg">
<path d="M23.1667 12V9.33332C23.1667 8.62608 22.8857 7.9478 22.3856 7.4477C21.8855 6.94761 21.2072 6.66666 20.5 6.66666H7.16667C6.45942 6.66666 5.78115 6.94761 5.28105 7.4477C4.78095 7.9478 4.5 8.62608 4.5 9.33332V17.3333C4.5 18.0406 4.78095 18.7188 5.28105 19.2189C5.78115 19.719 6.45942 20 7.16667 20H9.83333M12.5 12H25.8333C27.3061 12 28.5 13.1939 28.5 14.6667V22.6667C28.5 24.1394 27.3061 25.3333 25.8333 25.3333H12.5C11.0272 25.3333 9.83333 24.1394 9.83333 22.6667V14.6667C9.83333 13.1939 11.0272 12 12.5 12ZM21.8333 18.6667C21.8333 20.1394 20.6394 21.3333 19.1667 21.3333C17.6939 21.3333 16.5 20.1394 16.5 18.6667C16.5 17.1939 17.6939 16 19.1667 16C20.6394 16 21.8333 17.1939 21.8333 18.6667Z" stroke="#E8E8E8" stroke-width="2" stroke-linecap="round" stroke-linejoin="round"/>
</svg>
