<svg width="33" height="32" viewBox="0 0 33 32" fill="none" xmlns="http://www.w3.org/2000/svg">
<path d="M10.9762 10.1818C12.0097 6.16676 15.6544 3.20001 19.9921 3.20001C25.1333 3.20001 29.3012 7.36783 29.3012 12.5091C29.3012 16.608 26.652 20.0882 22.9724 21.3309M10.9762 22.8342H13.0081M13.0081 22.8342H14.899M13.0081 22.8342V15.4161C13.0081 15.4161 11.5896 16.3912 10.6808 17.0161M22.3172 19.4909C22.3172 24.6322 18.1493 28.8 13.0081 28.8C7.8668 28.8 3.69897 24.6322 3.69897 19.4909C3.69897 14.3497 7.8668 10.1818 13.0081 10.1818C18.1493 10.1818 22.3172 14.3497 22.3172 19.4909Z" stroke="white" stroke-width="2" stroke-linecap="round" stroke-linejoin="round"/>
</svg>
