<svg width="33" height="32" viewBox="0 0 33 32" fill="none" xmlns="http://www.w3.org/2000/svg">
<path d="M10.9104 26.3326C10.386 26.5059 10.1014 27.0715 10.2747 27.5959C10.448 28.1203 11.0136 28.4049 11.538 28.2316L10.9104 26.3326ZM18.9829 27.7949L18.893 26.7989L18.9829 27.7949ZM23.6381 26.7693L24.0737 27.6694L23.6381 26.7693ZM28.0863 22.7574L27.3118 22.1248L28.0863 22.7574ZM25.044 20.2472L25.7481 20.9574L25.044 20.2472ZM22.9954 22.2783L23.6994 22.9884L22.9954 22.2783ZM17.4312 22.1795C16.8789 22.1795 16.4312 22.6272 16.4312 23.1795C16.4312 23.7318 16.8789 24.1795 17.4312 24.1795V22.1795ZM27.6133 19.995L27.0619 20.8292L27.6133 19.995ZM12.7987 19.3221L13.2428 20.218H13.2428L12.7987 19.3221ZM18.3668 18.8171L18.6278 17.8518L18.3668 18.8171ZM20.5412 19.4051L20.2802 20.3704L20.5412 19.4051ZM21.2301 21.9772L20.5261 21.267V21.267L21.2301 21.9772ZM19.3133 22.4694C18.9211 22.8582 18.9184 23.4914 19.3073 23.8836C19.6961 24.2758 20.3293 24.2785 20.7215 23.8896L19.3133 22.4694ZM11.538 28.2316C11.7325 28.1673 12.0871 28.1359 12.6569 28.1762C13.2064 28.2151 13.8444 28.3102 14.5618 28.4219C15.9382 28.6362 17.6296 28.9212 19.0729 28.7908L18.893 26.7989C17.75 26.9022 16.338 26.6744 14.8695 26.4457C14.1644 26.3359 13.4446 26.2269 12.798 26.1812C12.1717 26.1369 11.4917 26.1405 10.9104 26.3326L11.538 28.2316ZM19.0729 28.7908C21.0874 28.6089 22.0296 28.6584 24.0737 27.6694L23.2026 25.8691C21.544 26.6715 20.9814 26.6103 18.893 26.7989L19.0729 28.7908ZM24.0737 27.6694C25.9064 26.7827 27.7447 24.7562 28.8607 23.3901L27.3118 22.1248C26.1861 23.5028 24.593 25.1964 23.2026 25.8691L24.0737 27.6694ZM24.3399 19.5371L22.2913 21.5682L23.6994 22.9884L25.7481 20.9574L24.3399 19.5371ZM20.8009 22.1795H17.4312V24.1795H20.8009V22.1795ZM22.2913 21.5682C21.8975 21.9586 21.3615 22.1795 20.8009 22.1795V24.1795C21.8864 24.1795 22.9292 23.752 23.6994 22.9884L22.2913 21.5682ZM28.1647 19.1607C26.963 18.3664 25.3634 18.5224 24.3399 19.5371L25.7481 20.9574C26.0973 20.6111 26.6484 20.5559 27.0619 20.8292L28.1647 19.1607ZM28.8607 23.3901C29.9803 22.0196 29.5602 20.0831 28.1647 19.1607L27.0619 20.8292C27.5536 21.1542 27.6198 21.7478 27.3118 22.1248L28.8607 23.3901ZM5.53449 19.0513H9.67247V17.0513H5.53449V19.0513ZM9.70696 19.0769V28.3077H11.707V19.0769H9.70696ZM9.67247 28.3334H5.53449V30.3334H9.67247V28.3334ZM5.5 28.3077V19.0769H3.5V28.3077H5.5ZM5.53449 28.3334C5.52666 28.3334 5.52189 28.332 5.51854 28.3306C5.51455 28.3289 5.51053 28.3263 5.50706 28.3228C5.50359 28.3194 5.50184 28.3163 5.50109 28.3145C5.50064 28.3135 5.5 28.3119 5.5 28.3077H3.5C3.5 29.4345 4.419 30.3334 5.53449 30.3334V28.3334ZM9.70696 28.3077C9.70696 28.3119 9.70633 28.3135 9.70587 28.3145C9.70512 28.3163 9.70337 28.3194 9.69991 28.3228C9.69644 28.3263 9.69242 28.3289 9.68842 28.3306C9.68507 28.332 9.68031 28.3334 9.67247 28.3334V30.3334C10.788 30.3334 11.707 29.4345 11.707 28.3077H9.70696ZM9.67247 19.0513C9.68031 19.0513 9.68507 19.0527 9.68842 19.0541C9.69242 19.0558 9.69644 19.0584 9.69991 19.0618C9.70337 19.0653 9.70512 19.0684 9.70587 19.0701C9.70633 19.0712 9.70696 19.0728 9.70696 19.0769H11.707C11.707 17.9501 10.788 17.0513 9.67247 17.0513V19.0513ZM5.53449 17.0513C4.41899 17.0513 3.5 17.9501 3.5 19.0769H5.5C5.5 19.0728 5.50064 19.0712 5.50109 19.0701C5.50184 19.0684 5.50359 19.0653 5.50706 19.0618C5.51053 19.0584 5.51455 19.0558 5.51854 19.0541C5.52189 19.0527 5.52666 19.0513 5.53449 19.0513V17.0513ZM11.6684 20.9985L13.2428 20.218L12.3545 18.4261L10.7801 19.2066L11.6684 20.9985ZM16.0372 19.5641H16.4614V17.5641H16.0372V19.5641ZM18.1057 19.7824L20.2802 20.3704L20.8022 18.4397L18.6278 17.8518L18.1057 19.7824ZM20.5261 21.267L19.3133 22.4694L20.7215 23.8896L21.9342 22.6873L20.5261 21.267ZM20.2802 20.3704C20.6939 20.4823 20.8152 20.9804 20.5261 21.267L21.9342 22.6873C23.3301 21.3034 22.6874 18.9495 20.8022 18.4397L20.2802 20.3704ZM16.4614 19.5641C17.0169 19.5641 17.5699 19.6376 18.1057 19.7824L18.6278 17.8518C17.9217 17.6608 17.1932 17.5641 16.4614 17.5641V19.5641ZM13.2428 20.218C14.1101 19.7881 15.0668 19.5641 16.0372 19.5641V17.5641C14.7592 17.5641 13.4984 17.8591 12.3545 18.4261L13.2428 20.218ZM23.1554 10.8718C23.1554 12.5772 21.7586 13.9744 20.0174 13.9744V15.9744C22.8469 15.9744 25.1554 13.698 25.1554 10.8718H23.1554ZM20.0174 13.9744C18.2762 13.9744 16.8794 12.5772 16.8794 10.8718H14.8794C14.8794 13.698 17.1879 15.9744 20.0174 15.9744V13.9744ZM16.8794 10.8718C16.8794 9.1664 18.2762 7.76925 20.0174 7.76925V5.76925C17.1879 5.76925 14.8794 8.04566 14.8794 10.8718H16.8794ZM20.0174 7.76925C21.7586 7.76925 23.1554 9.1664 23.1554 10.8718H25.1554C25.1554 8.04566 22.8469 5.76925 20.0174 5.76925V7.76925ZM15.8794 9.87182C14.1383 9.87182 12.7415 8.47467 12.7415 6.76925H10.7415C10.7415 9.59541 13.0499 11.8718 15.8794 11.8718V9.87182ZM12.7415 6.76925C12.7415 5.06384 14.1383 3.66669 15.8794 3.66669V1.66669C13.0499 1.66669 10.7415 3.9431 10.7415 6.76925H12.7415ZM15.8794 3.66669C17.6206 3.66669 19.0174 5.06384 19.0174 6.76925H21.0174C21.0174 3.9431 18.7089 1.66669 15.8794 1.66669V3.66669Z" fill="#E8E8E8"/>
</svg>
