<svg width="33" height="32" viewBox="0 0 33 32" fill="none" xmlns="http://www.w3.org/2000/svg">
<path d="M16.7329 28.8716V10.2534M14.5663 9.13648C14.7968 9.1882 15.0396 9.1248 15.2056 8.95886C15.3715 8.79291 15.4348 8.54994 15.3832 8.31953C15.1763 7.47449 14.4143 4.64483 13.6318 3.86235C12.6569 2.88747 11.0703 2.88341 10.1002 3.85346C9.13021 4.82345 9.13413 6.41012 10.1091 7.38507C10.9044 8.18036 13.7212 8.92963 14.5663 9.13648ZM16.9324 8.31947C16.8806 8.54996 16.944 8.79285 17.11 8.95879C17.2759 9.12474 17.5189 9.18804 17.7493 9.13641C18.5943 8.92954 21.424 8.16749 22.2065 7.385C23.1814 6.41012 23.1854 4.82346 22.2154 3.8534C21.2454 2.88341 19.6587 2.88733 18.6838 3.86228C17.8885 4.65757 17.1392 7.47445 16.9324 8.31947ZM4.6311 16.7698H28.3693C28.8834 16.7698 29.3002 16.353 29.3002 15.8389V11.1843C29.3002 10.6702 28.8834 10.2534 28.3693 10.2534H4.6311C4.11698 10.2534 3.7002 10.6702 3.7002 11.1843V15.8389C3.7002 16.353 4.11698 16.7698 4.6311 16.7698ZM26.9729 16.7698V27.9407C26.9729 28.4548 26.5561 28.8716 26.042 28.8716H6.95838C6.44425 28.8716 6.02747 28.4548 6.02747 27.9407V16.7698H26.9729Z" stroke="#E8E8E8" stroke-width="2" stroke-linecap="round" stroke-linejoin="round"/>
</svg>
