<svg width="71" height="53" viewBox="0 0 71 53" fill="none" xmlns="http://www.w3.org/2000/svg">
<path d="M62.382 13.9923C62.4204 13.7638 62.4083 13.5297 62.3464 13.3065C62.2845 13.0833 62.1744 12.8763 62.0238 12.7003C61.8733 12.5242 61.6859 12.3834 61.4749 12.2877C61.264 12.1919 61.0346 12.1437 60.803 12.1463C60.7159 12.1466 60.6289 12.1542 60.5431 12.169C60.3596 11.8627 60.0905 11.6169 59.7688 11.4619C59.4472 11.3068 59.0872 11.2494 58.7334 11.2967C58.3795 11.344 58.0472 11.4939 57.7775 11.7279C57.5079 11.9619 57.3127 12.2697 57.216 12.6134C57.1019 12.5785 56.9832 12.5608 56.8639 12.5609C56.549 12.5609 56.2471 12.686 56.0245 12.9086C55.8018 13.1312 55.6768 13.4332 55.6768 13.748C55.6771 13.832 55.6861 13.9158 55.7037 13.9979L62.382 13.9923Z" fill="#F0F0F0"/>
<path d="M20.5904 7.6719C20.6139 7.5311 20.6263 7.38865 20.6273 7.2459C20.6273 6.51566 20.3372 5.81533 19.8208 5.29897C19.3045 4.78261 18.6041 4.49252 17.8739 4.49252C17.7244 4.49352 17.5753 4.50682 17.428 4.53228C17.1131 4.00613 16.651 3.58373 16.0987 3.3172C15.5465 3.05068 14.9283 2.95171 14.3204 3.0325C13.7126 3.1133 13.1417 3.37032 12.6783 3.77185C12.2148 4.17338 11.8791 4.70184 11.7125 5.29198C11.372 5.18524 11.0093 5.16983 10.6609 5.24729C10.3125 5.32474 9.99056 5.49235 9.72728 5.73334C9.46401 5.97432 9.26866 6.28023 9.16076 6.62044C9.05287 6.96065 9.03623 7.32324 9.11251 7.6719H20.5904Z" fill="#F0F0F0"/>
<path d="M71 46.5143H0V46.5498H71V46.5143Z" fill="#EBEBEB"/>
<path d="M63.8857 48.7992H59.1826V48.8347H63.8857V48.7992Z" fill="#EBEBEB"/>
<path d="M47.0328 49.1856H45.7988V49.2211H47.0328V49.1856Z" fill="#EBEBEB"/>
<path d="M59.0404 47.4814H56.3154V47.5169H59.0404V47.4814Z" fill="#EBEBEB"/>
<path d="M13.5822 47.7201H7.44922V47.7556H13.5822V47.7201Z" fill="#EBEBEB"/>
<path d="M15.7465 47.7201H14.8477V47.7556H15.7465V47.7201Z" fill="#EBEBEB"/>
<path d="M31.9715 48.3192H18.6689V48.3547H31.9715V48.3192Z" fill="#EBEBEB"/>
<path d="M33.654 40.1813H6.23518C6.02038 40.1809 5.81451 40.0953 5.66276 39.9433C5.51101 39.7913 5.42578 39.5853 5.42578 39.3705V0.827401C5.42765 0.613837 5.51371 0.409635 5.66526 0.259149C5.81681 0.108663 6.02161 0.0240475 6.23518 0.0236816H33.654C33.869 0.0236816 34.0752 0.109107 34.2273 0.261165C34.3794 0.413224 34.4648 0.619459 34.4648 0.834501V39.3705C34.4648 39.5855 34.3794 39.7917 34.2273 39.9438C34.0752 40.0959 33.869 40.1813 33.654 40.1813ZM6.23518 0.0520817C6.0298 0.0524579 5.83296 0.134309 5.68787 0.279669C5.54277 0.425029 5.46128 0.62202 5.46128 0.827401V39.3705C5.46128 39.5758 5.54277 39.7728 5.68787 39.9182C5.83296 40.0635 6.0298 40.1454 6.23518 40.1458H33.654C33.8595 40.1454 34.0565 40.0636 34.2018 39.9183C34.3471 39.773 34.4289 39.576 34.4293 39.3705V0.827401C34.4289 0.621889 34.3471 0.424902 34.2018 0.279582C34.0565 0.134263 33.8595 0.0524571 33.654 0.0520817H6.23518Z" fill="#EBEBEB"/>
<path d="M64.3697 40.1813H36.9495C36.7346 40.1809 36.5285 40.0954 36.3766 39.9434C36.2246 39.7914 36.139 39.5854 36.1387 39.3705V0.827401C36.1409 0.613708 36.2273 0.409506 36.3791 0.25906C36.5308 0.108613 36.7358 0.0240435 36.9495 0.0236816H64.3697C64.583 0.0244207 64.7875 0.109201 64.9387 0.259647C65.0899 0.410093 65.1758 0.614082 65.1777 0.827401V39.3705C65.1777 39.585 65.0926 39.7908 64.9412 39.9428C64.7897 40.0948 64.5842 40.1805 64.3697 40.1813ZM36.9495 0.0520817C36.744 0.0524571 36.547 0.134263 36.4017 0.279582C36.2564 0.424902 36.1745 0.621889 36.1742 0.827401V39.3705C36.1745 39.576 36.2564 39.773 36.4017 39.9183C36.547 40.0636 36.744 40.1454 36.9495 40.1458H64.3697C64.5752 40.1454 64.7722 40.0636 64.9175 39.9183C65.0628 39.773 65.1446 39.576 65.145 39.3705V0.827401C65.1446 0.621889 65.0628 0.424902 64.9175 0.279582C64.7722 0.134263 64.5752 0.0524571 64.3697 0.0520817H36.9495Z" fill="#EBEBEB"/>
<path d="M5.38281 42.405V32.9648H9.92965V30.3832H12.1065V22.7962L14.9181 19.9846H20.6265V28.1141H28.4578V29.7201H33.9944V27.61H39.9428V26.0196H44.5876V16.6021H52.8108V22.6031H54.7037V24.7771H59.1043V28.3427H61.4558L63.2649 30.1518V31.9921H65.0668V42.405H5.38281Z" fill="#F0F0F0"/>
<path d="M10.9208 32.9648H10.0078L9.92965 32.9109V32.9648H5.38281V42.405H10.9208V32.9648Z" fill="#E6E6E6"/>
<path d="M34.0742 28.2974V29.7203H33.8499L33.6113 31.2425L34.2858 42.4051H41.7877V27.6101H40.0226H34.1807L34.0742 28.2974Z" fill="#E6E6E6"/>
<path d="M51.5391 24.7771V42.4049H65.1455V31.9921H63.3435V30.1518L61.5344 28.3427H59.1829V24.7771H55.1885H54.7823H51.5391Z" fill="#E6E6E6"/>
<path d="M61.5429 29.2999H60.7207V30.122H61.5429V29.2999Z" fill="white"/>
<path d="M60.0898 29.2999H59.2676V30.122H60.0898V29.2999Z" fill="white"/>
<path d="M61.5429 30.8319H60.7207V31.6541H61.5429V30.8319Z" fill="white"/>
<path d="M60.0898 30.8319H59.2676V31.6541H60.0898V30.8319Z" fill="white"/>
<path d="M57.0526 25.4402H56.2305V26.2623H57.0526V25.4402Z" fill="white"/>
<path d="M55.5995 25.4402H54.7773V26.2623H55.5995V25.4402Z" fill="white"/>
<path d="M9.96671 34.2955H9.14453V35.1177H9.96671V34.2955Z" fill="white"/>
<path d="M8.51456 34.2955H7.69238V35.1177H8.51456V34.2955Z" fill="white"/>
<path d="M40.8408 30.8491V30.0269H40.0186V30.8491H40.8408Z" fill="white"/>
<path d="M40.8408 29.3963V28.5741H40.0186V29.3963H40.8408Z" fill="white"/>
<path d="M35.2248 52.9272C50.4305 52.9272 62.7571 52.2075 62.7571 51.3198C62.7571 50.432 50.4305 49.7123 35.2248 49.7123C20.019 49.7123 7.69238 50.432 7.69238 51.3198C7.69238 52.2075 20.019 52.9272 35.2248 52.9272Z" fill="#F5F5F5"/>
<path d="M62.9811 44.3193H55.2236V50.7348H62.9811V44.3193Z" fill="#69C53E"/>
<path opacity="0.3" d="M62.9811 44.3193H55.2236V50.7348H62.9811V44.3193Z" fill="white"/>
<path d="M57.1363 44.3192H51.124V50.7347H57.1363V44.3192Z" fill="#69C53E"/>
<path opacity="0.1" d="M57.1363 44.3192H51.124V50.7347H57.1363V44.3192Z" fill="white"/>
<path opacity="0.3" d="M54.9805 44.3193H53.2793V46.3158H54.9805V44.3193Z" fill="white"/>
<path opacity="0.1" d="M61.3281 44.3193H59.627V46.3158H61.3281V44.3193Z" fill="black"/>
<path d="M59.7197 48.0952H59.4953C59.4918 48.0299 59.4918 47.9645 59.4953 47.8992C59.4953 47.797 59.5734 47.5996 59.7154 47.689C59.7595 47.716 59.8106 47.6535 59.7666 47.6266C59.7347 47.6074 59.6986 47.5965 59.6615 47.5947C59.6244 47.5929 59.5875 47.6004 59.554 47.6165C59.5205 47.6325 59.4915 47.6566 59.4696 47.6866C59.4477 47.7167 59.4336 47.7516 59.4286 47.7884C59.4096 47.8886 59.4049 47.9909 59.4144 48.0923H59.2852C59.2341 48.0923 59.2199 48.1704 59.2724 48.1718H59.4144C59.4144 48.2968 59.4144 48.4218 59.4144 48.5467C59.4144 48.5993 59.4953 48.5893 59.4953 48.5382C59.4953 48.4161 59.4953 48.2954 59.4953 48.1733H59.7055C59.758 48.1761 59.7722 48.0966 59.7197 48.0952Z" fill="white"/>
<path d="M60.0913 47.919C60.0857 47.9176 60.0798 47.9176 60.0742 47.919C59.7064 47.892 59.7647 48.4941 60.1168 48.487C60.1921 48.4761 60.2606 48.4377 60.3091 48.3792C60.3577 48.3207 60.3828 48.2463 60.3795 48.1703C60.3807 48.1337 60.3737 48.0974 60.359 48.0638C60.3444 48.0303 60.3225 48.0004 60.2949 47.9763C60.2674 47.9523 60.2348 47.9347 60.1995 47.9248C60.1643 47.9148 60.1273 47.9129 60.0913 47.919ZM60.1466 48.4004C59.8811 48.4699 59.7959 47.9744 60.0685 48.0042C60.0769 48.0065 60.0857 48.0065 60.0941 48.0042C60.3497 47.9658 60.3497 48.3464 60.1466 48.4004Z" fill="white"/>
<path d="M60.9693 48.068C60.86 47.713 60.309 48.0041 60.4666 48.3279C60.5069 48.3913 60.5688 48.438 60.6409 48.4592C60.713 48.4803 60.7904 48.4746 60.8585 48.4429C60.8927 48.4297 60.9235 48.4091 60.9487 48.3825C60.9739 48.356 60.9929 48.3242 61.0044 48.2894C61.0158 48.2546 61.0193 48.2177 61.0147 48.1814C61.0101 48.1451 60.9975 48.1102 60.9778 48.0794L60.9693 48.068ZM60.5305 48.2711C60.4553 48.0552 60.8145 47.8451 60.894 48.1007C60.8949 48.1051 60.8968 48.1094 60.8995 48.113C60.9022 48.1167 60.9057 48.1198 60.9097 48.122C61.0488 48.3705 60.6072 48.4954 60.5305 48.2711Z" fill="white"/>
<path d="M61.5853 48.4601C61.5612 48.1335 61.5385 47.8069 61.5143 47.4817C61.5143 47.4292 61.4306 47.4391 61.4334 47.4902L61.4632 47.902C61.4202 47.8881 61.3745 47.8842 61.3297 47.8906C61.2848 47.897 61.2421 47.9136 61.2047 47.9391C61.1673 47.9646 61.1362 47.9983 61.1138 48.0376C61.0914 48.077 61.0783 48.121 61.0756 48.1661C61.0642 48.3862 61.3198 48.4615 61.5016 48.4374V48.4686C61.5087 48.5197 61.5896 48.5112 61.5853 48.4601ZM61.1593 48.2016C61.157 48.1661 61.1634 48.1306 61.1778 48.0981C61.1923 48.0657 61.2145 48.0372 61.2425 48.0152C61.2705 47.9933 61.3034 47.9785 61.3384 47.9721C61.3734 47.9657 61.4094 47.968 61.4433 47.9787C61.4513 47.9808 61.4596 47.9808 61.4675 47.9787C61.4774 48.1037 61.4859 48.2286 61.4959 48.355C61.3723 48.372 61.1778 48.3465 61.1565 48.2016H61.1593Z" fill="white"/>
<path d="M35.496 5.77603H16.3331C15.1568 5.77603 14.2031 6.72966 14.2031 7.90603V47.8847C14.2031 49.0611 15.1568 50.0147 16.3331 50.0147H35.496C36.6724 50.0147 37.626 49.0611 37.626 47.8847V7.90603C37.626 6.72966 36.6724 5.77603 35.496 5.77603Z" fill="#263238"/>
<path d="M36.1128 8.72525H15.7188V44.3048H36.1128V8.72525Z" fill="#69C53E"/>
<path opacity="0.3" d="M36.1128 40.7776H15.7188V44.3035H36.1128V40.7776Z" fill="white"/>
<path opacity="0.1" d="M36.1128 23.3655C30.9284 28.5216 21.3278 38.1662 15.7188 43.8135V44.3105H27.1143L36.1128 35.3134V23.3655Z" fill="white"/>
<path opacity="0.1" d="M15.7188 26.6173L33.6108 8.72525H25.2441C23.0289 10.9234 19.2446 14.7148 15.7188 18.2535V26.6173Z" fill="white"/>
<path opacity="0.1" d="M15.7188 34.0966L36.1128 13.7025V9.33887L15.7188 29.7315V34.0966Z" fill="white"/>
<path opacity="0.2" d="M36.1128 8.72525H15.7188V10.3299H36.1128V8.72525Z" fill="black"/>
<path d="M26.14 48.1177C26.8978 47.9947 27.4125 47.2806 27.2894 46.5227C27.1664 45.7649 26.4523 45.2502 25.6945 45.3733C24.9366 45.4963 24.422 46.2104 24.545 46.9682C24.668 47.7261 25.3821 48.2407 26.14 48.1177Z" fill="#69C53E"/>
<g opacity="0.6">
<path opacity="0.6" d="M17.9243 9.89542H18.2324V9.48362H17.9243V9.89542Z" fill="white"/>
<path opacity="0.6" d="M17.4214 9.89542H17.7295V9.3473H17.4214V9.89542Z" fill="white"/>
<path opacity="0.6" d="M16.9194 9.89542H17.2275V9.20956H16.9194V9.89542Z" fill="white"/>
<path opacity="0.6" d="M16.4165 9.89542H16.7246V9.07182H16.4165V9.89542Z" fill="white"/>
</g>
<path opacity="0.6" d="M33.9488 9.3331H33.7656V9.7449H33.9488V9.3331Z" fill="white"/>
<path opacity="0.6" d="M34.0749 9.89542H35.5332V9.184H34.0749V9.89542Z" fill="white"/>
<path opacity="0.4" d="M26.9302 29.9856C26.4631 29.5596 25.9149 30.1276 25.9149 30.1276C25.9149 30.1276 25.3682 29.5596 24.8996 29.9785C24.2322 30.5763 25.2021 31.6456 25.9149 31.86C26.6278 31.6512 27.5976 30.582 26.9302 29.9856Z" fill="white"/>
<path d="M31.756 32.9677H20.0751C19.7219 32.9677 19.3831 33.108 19.1333 33.3578C18.8835 33.6076 18.7432 33.9464 18.7432 34.2996C18.7432 34.6529 18.8835 34.9917 19.1333 35.2414C19.3831 35.4912 19.7219 35.6316 20.0751 35.6316H31.756C32.1093 35.6316 32.4481 35.4912 32.6979 35.2414C32.9477 34.9917 33.088 34.6529 33.088 34.2996C33.088 33.9464 32.9477 33.6076 32.6979 33.3578C32.4481 33.108 32.1093 32.9677 31.756 32.9677Z" fill="white"/>
<path d="M22.0635 35.0081V33.5952H22.5789C22.6821 33.5935 22.7845 33.6128 22.88 33.652C22.9618 33.6862 23.0354 33.7376 23.0958 33.8026C23.154 33.8675 23.198 33.944 23.225 34.0269C23.2875 34.2111 23.2875 34.4107 23.225 34.5949C23.1943 34.6786 23.1459 34.7546 23.083 34.8178C23.0209 34.8793 22.947 34.9276 22.8658 34.9598C22.7752 34.9948 22.6788 35.0122 22.5818 35.011L22.0635 35.0081ZM22.9879 34.2981C22.988 34.2351 22.9789 34.1725 22.9609 34.1121C22.9437 34.0599 22.9161 34.0116 22.88 33.9701C22.8438 33.9287 22.7986 33.8962 22.7479 33.875C22.6923 33.8512 22.6323 33.8396 22.5718 33.8409H22.3347V34.771H22.5789C22.6404 34.7722 22.7015 34.7601 22.7579 34.7355C22.8076 34.7127 22.8517 34.6793 22.8871 34.6375C22.9234 34.5935 22.9509 34.5428 22.968 34.4884C22.984 34.4268 22.9907 34.3631 22.9879 34.2996V34.2981Z" fill="#E0E0E0"/>
<path d="M24.0711 35.018C23.973 35.0197 23.8758 34.9988 23.7871 34.957C23.7054 34.918 23.6325 34.8629 23.5727 34.7951C23.4518 34.6593 23.3847 34.4841 23.3838 34.3023C23.3834 34.2094 23.4012 34.1172 23.4363 34.0311C23.4691 33.9468 23.5173 33.8693 23.5783 33.8025C23.64 33.7359 23.7143 33.6823 23.797 33.6449C23.8828 33.6051 23.9765 33.5852 24.0711 33.5867C24.167 33.5851 24.262 33.6065 24.348 33.6491C24.4316 33.6906 24.506 33.7486 24.5667 33.8195C24.6277 33.8874 24.6759 33.9658 24.7087 34.051C24.7418 34.1341 24.7586 34.2228 24.7584 34.3123C24.7588 34.4047 24.7415 34.4963 24.7072 34.5821C24.6742 34.6658 24.626 34.7428 24.5652 34.8093C24.5043 34.8758 24.4304 34.9289 24.348 34.9655C24.2608 35.0037 24.1662 35.0217 24.0711 35.018ZM23.665 34.308C23.6651 34.3678 23.6747 34.4273 23.6934 34.4841C23.7109 34.539 23.7378 34.5904 23.7729 34.636C23.8084 34.6789 23.8518 34.7145 23.9007 34.7411C23.9545 34.7679 24.0138 34.7815 24.0739 34.7809C24.1346 34.7817 24.1946 34.7676 24.2486 34.7397C24.2982 34.713 24.3418 34.6763 24.3764 34.6318C24.411 34.586 24.4374 34.5346 24.4545 34.4798C24.4725 34.4244 24.4816 34.3664 24.4815 34.308C24.4815 34.2477 24.4719 34.1878 24.4531 34.1305C24.4356 34.0754 24.4082 34.0239 24.3721 33.9786C24.3376 33.9351 24.294 33.8997 24.2443 33.8749C24.1902 33.8492 24.131 33.8358 24.0711 33.8358C24.0111 33.8358 23.952 33.8492 23.8978 33.8749C23.8483 33.9017 23.8048 33.9385 23.77 33.9828C23.7357 34.0283 23.7093 34.0791 23.6919 34.1334C23.6749 34.1881 23.6658 34.245 23.665 34.3023V34.308Z" fill="#E0E0E0"/>
<path d="M25.2365 34.1035V35.008H24.9639V33.5951H25.1754L25.9039 34.5224V33.598H26.1765V35.008H25.9564L25.2365 34.1035Z" fill="#E0E0E0"/>
<path d="M26.8667 33.5951H27.1066L27.6391 35.008H27.3551L27.2245 34.6559H26.736L26.6082 35.008H26.3242L26.8667 33.5951ZM27.1805 34.4627L26.9874 33.9075L26.7857 34.4627H27.1805Z" fill="#E0E0E0"/>
<path d="M28.7021 33.8365H28.2591V35.008H27.9893V33.8365H27.542V33.5951H28.7064L28.7021 33.8365Z" fill="#E0E0E0"/>
<path d="M29.8477 34.7666V35.008H28.875V33.5951H29.8292V33.8365H29.1476V34.1759H29.7369V34.3988H29.1476V34.7666H29.8477Z" fill="#E0E0E0"/>
<path opacity="0.3" d="M37.6281 18.3969L33.3496 19.0061L34.4671 26.9553L37.6281 26.6343V18.3969Z" fill="#263238"/>
<path opacity="0.7" d="M26.1126 28.3414C30.462 28.3414 33.9879 24.8155 33.9879 20.4661C33.9879 16.1166 30.462 12.5907 26.1126 12.5907C21.7632 12.5907 18.2373 16.1166 18.2373 20.4661C18.2373 24.8155 21.7632 28.3414 26.1126 28.3414Z" fill="white"/>
<path d="M28.9369 15.6508C28.9369 15.6508 30.5458 18.0307 31.4489 18.1273C32.352 18.2239 35.885 15.1851 35.885 15.1851L36.4842 15.7034C36.4842 15.7034 33.1231 19.3954 31.7201 19.6112C30.3172 19.827 27.6504 17.0467 27.6504 17.0467L28.9369 15.6508Z" fill="#E4897B"/>
<path d="M28.5537 15.8282C28.5537 15.8282 29.1217 15.2716 29.9027 16.2386C30.6837 17.2056 31.0046 17.403 31.0046 17.403L29.0166 19.3441C29.0166 19.3441 27.8479 16.3451 28.5537 15.8282Z" fill="#69C53E"/>
<path d="M35.6059 14.9648C35.6059 14.9648 35.6754 14.0716 35.8828 14.0148C36.0901 13.958 36.0162 14.6183 36.0162 14.6183C36.0162 14.6183 37.1096 13.9509 37.3297 14.0106C37.5498 14.0702 37.5143 14.5019 37.4717 14.6183C37.138 15.6123 35.9452 16.0241 35.9452 16.0241L35.4639 15.5697L35.6059 14.9648Z" fill="#E4897B"/>
<path d="M27.406 13.2878C27.406 13.2878 28.5037 15.1167 28.1671 16.2698C27.8306 17.4228 26.0996 16.3862 26.0996 16.3862L26.1209 14.1142L27.406 13.2878Z" fill="#263238"/>
<path d="M24.463 10.1353C24.463 10.1353 22.8399 10.9575 23.4775 13.85C24.5454 18.6993 26.1216 16.69 26.1216 16.69C26.1216 16.69 26.052 14.7787 25.4116 13.85C24.7711 12.9214 24.9046 11.5965 24.9046 11.5965L24.463 10.1353Z" fill="#263238"/>
<path d="M29.1706 22.9467L24.3043 23.3727C24.2571 22.1664 24.0834 20.9685 23.786 19.7985C23.6695 19.3328 23.5247 18.8116 23.3372 18.211C23.2364 17.8886 23.1257 17.5436 23.0021 17.1729C22.9098 16.8889 22.809 16.5922 22.6982 16.2755C23.3592 16.0642 24.0345 15.9005 24.7189 15.7856C25.4404 15.6564 26.1703 15.5795 26.9029 15.5556C27.85 15.547 28.9377 15.6535 28.9377 15.6535C28.9377 15.6535 29.0925 15.6905 29.1905 16.6944C29.2785 17.6316 29.3651 19.5188 29.1706 22.9467Z" fill="#69C53E"/>
<path opacity="0.2" d="M29.1706 22.9467L24.3043 23.3727C24.2571 22.1664 24.0834 20.9685 23.786 19.7985C23.6695 19.3328 23.5247 18.8116 23.3372 18.211C23.2364 17.8886 23.1257 17.5436 23.0021 17.1729C22.9098 16.8889 22.809 16.5922 22.6982 16.2755C23.3592 16.0642 24.0345 15.9005 24.7189 15.7856C25.4404 15.6564 26.1703 15.5795 26.9029 15.5556C27.85 15.547 28.9377 15.6535 28.9377 15.6535C28.9377 15.6535 29.0925 15.6905 29.1905 16.6944C29.2785 17.6316 29.3651 19.5188 29.1706 22.9467Z" fill="white"/>
<path opacity="0.2" d="M24.2828 23.0021C25.0624 22.6982 27.6326 21.4401 27.6326 21.4401L24.2246 22.2097C24.2402 22.4681 24.2615 22.7294 24.2828 23.0021Z" fill="black"/>
<path d="M26.5015 16.6262C25.3016 16.4728 24.9395 15.9616 24.9395 15.9616C25.7006 15.2431 25.0687 13.9992 25.0687 13.9992L26.5114 14.269C26.4784 14.47 26.4599 14.6731 26.456 14.8767C26.4447 15.7529 26.8408 15.7614 26.8408 15.7614C27.095 16.2357 26.5015 16.6262 26.5015 16.6262Z" fill="#E4897B"/>
<path opacity="0.2" d="M26.513 14.269C26.48 14.47 26.4615 14.6731 26.4577 14.8767C25.4821 14.8767 25.0703 13.9992 25.0703 13.9992L26.513 14.269Z" fill="black"/>
<path d="M25.8655 10.2278C27.1208 10.1583 27.4048 10.7603 27.5695 12.0483C27.774 13.6586 27.4843 14.8783 25.8967 14.6199C24.1544 14.3359 23.6659 11.5768 24.7139 10.5218C24.9595 10.2719 25.4665 10.2477 25.8655 10.2278Z" fill="#E4897B"/>
<path d="M26.7588 12.2115C26.8693 12.3933 27.0014 12.5611 27.1521 12.7113C27.1185 12.7652 27.0706 12.8088 27.0137 12.8371C26.9568 12.8655 26.8931 12.8774 26.8298 12.8718L26.7588 12.2115Z" fill="#DE5753"/>
<path d="M25.9998 12.0667C26.0528 12.0398 26.0957 11.9965 26.1219 11.9431L25.9046 12.0482C25.873 12.0666 25.8478 12.0944 25.8325 12.1277C25.8173 12.161 25.8127 12.1982 25.8194 12.2342C25.8265 12.3379 25.889 12.416 25.9614 12.4117C26.0338 12.4075 26.0793 12.318 26.0722 12.2158C26.0687 12.1585 26.0427 12.1049 25.9998 12.0667Z" fill="#263238"/>
<path d="M27.2172 11.9516C27.2702 11.9247 27.3131 11.8814 27.3393 11.828L27.1235 11.9331C27.0917 11.9519 27.0664 11.9799 27.0509 12.0133C27.0355 12.0468 27.0306 12.0842 27.0368 12.1206C27.0454 12.2242 27.1078 12.3023 27.1788 12.2966C27.2498 12.291 27.2967 12.2043 27.2882 12.1007C27.2873 12.0723 27.2805 12.0444 27.2683 12.0187C27.2561 11.993 27.2387 11.9702 27.2172 11.9516Z" fill="#263238"/>
<path d="M25.9978 11.4873C25.8979 11.4809 25.7979 11.4974 25.7054 11.5356C25.6128 11.5737 25.5302 11.6325 25.4639 11.7074" stroke="#263238" stroke-width="0.707336" stroke-linecap="round" stroke-linejoin="round"/>
<path d="M26.7607 11.436C26.838 11.3924 26.9241 11.3669 27.0126 11.3612C27.1011 11.3556 27.1898 11.37 27.2719 11.4033" stroke="#263238" stroke-width="0.707336" stroke-linecap="round" stroke-linejoin="round"/>
<path d="M23.8291 16.0937C23.8291 16.0937 25.2377 17.2368 26.5484 17.2183C27.8591 17.1999 28.3206 15.7259 28.3206 15.7259C28.3206 15.7259 26.2871 15.1238 23.8291 16.0937Z" fill="#E4897B"/>
<path d="M21.7581 18.9479C21.7581 18.9479 21.3151 21.5607 21.3676 22.3048C21.4202 23.0489 22.5448 23.0716 23.1781 22.9963C23.9066 22.9097 27.7051 21.4073 27.7051 21.4073L27.529 20.6562C27.529 20.6562 24.5555 21.4656 23.2889 21.6076C23.2297 21.6136 23.1699 21.6061 23.1141 21.5855C23.0583 21.5649 23.0079 21.5319 22.9668 21.4889C22.9257 21.4458 22.895 21.394 22.8769 21.3373C22.8589 21.2806 22.8541 21.2205 22.8629 21.1617L23.1568 19.222L21.7581 18.9479Z" fill="#E4897B"/>
<path d="M22.6979 16.2697C22.6979 16.2697 23.4746 16.0979 23.6252 17.3319C23.7163 18.0792 23.6186 18.8374 23.3412 19.5372L21.373 19.1822C21.373 19.1822 21.826 16.3336 22.6979 16.2697Z" fill="#69C53E"/>
<path d="M28.4986 19.9035C28.4501 19.8741 28.3928 19.8625 28.3367 19.8709C28.1038 19.9305 27.3966 20.6306 27.3555 20.7229L27.5372 21.386C27.5372 21.386 27.9093 21.5848 28.0896 21.528C28.2699 21.4712 29.1844 20.7981 29.1858 20.6363C29.1869 20.6273 29.1869 20.6182 29.1858 20.6093C29.2185 20.5851 29.2455 20.5653 29.2639 20.5539C29.4187 20.4573 28.8465 20.0299 28.4986 19.9035Z" fill="#E4897B"/>
<path d="M25.7916 10.2319C25.7916 10.2319 25.9521 11.8053 24.64 11.8621C23.3279 11.9189 24.4242 10.452 24.4242 10.452L25.7916 10.2319Z" fill="#263238"/>
<path d="M25.5103 9.74642C23.3533 9.81458 23.5323 12.9698 24.6981 13.8502C24.6981 13.8502 24.1301 13.0863 24.4595 12.4217C24.4595 12.4217 24.8855 11.3936 24.7435 10.6027C25.077 10.458 25.4311 10.3664 25.7929 10.3315C26.0357 10.6268 26.6449 11.5243 27.4429 11.5058C27.489 11.6449 27.5246 11.7873 27.5494 11.9318C27.5494 11.9318 27.6701 9.67968 25.5103 9.74642Z" fill="#263238"/>
<path d="M27.086 13.4767C26.964 13.5416 26.8283 13.5768 26.6901 13.5792C26.5519 13.5817 26.4151 13.5514 26.2908 13.4909C26.2873 13.489 26.2843 13.4864 26.2818 13.4833C26.2793 13.4802 26.2775 13.4766 26.2765 13.4727C26.2754 13.4689 26.2751 13.4649 26.2756 13.4609C26.2762 13.457 26.2775 13.4532 26.2795 13.4497C26.2811 13.4463 26.2834 13.4433 26.2863 13.4409C26.2892 13.4384 26.2925 13.4366 26.2961 13.4356C26.2997 13.4345 26.3035 13.4342 26.3073 13.4347C26.311 13.4352 26.3146 13.4364 26.3178 13.4384C26.4335 13.4938 26.5606 13.5212 26.6889 13.5185C26.8171 13.5158 26.9429 13.483 27.0562 13.4228C27.063 13.4191 27.071 13.4183 27.0784 13.4204C27.0858 13.4225 27.0921 13.4275 27.096 13.4341C27.0995 13.4407 27.1003 13.4484 27.0982 13.4556C27.0961 13.4628 27.0912 13.4689 27.0846 13.4725L27.086 13.4767Z" fill="#263238"/>
<path d="M24.6795 12.6757C24.6594 12.5312 24.5828 12.4005 24.4665 12.3124C24.3501 12.2242 24.2036 12.1859 24.059 12.2057C23.6727 12.2682 23.5307 13.0776 24.5091 13.2167C24.6483 13.2366 24.7193 13.096 24.6795 12.6757Z" fill="#E4897B"/>
<path d="M24.5342 18.414L25.8406 18.2294C25.8406 18.2294 26.2666 19.6224 25.4913 19.7715C24.6435 19.9362 24.5342 18.414 24.5342 18.414Z" fill="#69C53E"/>
<path d="M29.4555 25.92C29.3902 25.2753 29.288 24.3977 29.1573 23.7076L29.1701 22.9465L24.3038 23.3725L24.2598 24.0825C24.1462 24.2927 23.6492 25.3335 23.4248 27.8796C24.4368 28.2467 25.5133 28.4026 26.5879 28.3376C27.6625 28.2727 28.7124 27.9882 29.6728 27.5019L29.4555 25.92Z" fill="#263238"/>
<path d="M41.796 23.5701L39.321 24.1977C39.1298 24.0794 38.9028 24.0331 38.6805 24.0671C38.3298 24.1324 37.4522 24.8495 37.4863 24.9546C37.5204 25.0596 38.5783 25.5467 38.7302 25.5069C39.2755 25.3649 39.8378 24.7302 39.8378 24.7302L42.0502 24.2744L41.796 23.5701Z" fill="#E4897B"/>
<path d="M47.996 14.6695C47.4934 15.2048 46.1614 15.1594 46.1614 15.1594C46.1614 15.1594 45.7226 15.1977 45.6133 14.8257C46.0947 14.7064 46.1685 14.3599 46.2438 14.0603C46.2808 13.8752 46.2808 13.6846 46.2438 13.4994C46.2283 13.395 46.2065 13.2916 46.1784 13.1899L47.7248 11.8451C47.5814 12.6616 47.428 14.1299 47.996 14.6695Z" fill="#E4897B"/>
<path opacity="0.2" d="M47.4153 12.6473C47.4281 13.6413 46.64 13.9736 46.248 14.0602C46.2851 13.8751 46.2851 13.6845 46.248 13.4993L47.4153 12.6473Z" fill="black"/>
<path d="M47.5428 12.8661C47.3924 13.1321 47.1588 13.3414 46.8778 13.4618C46.5969 13.5821 46.2842 13.6068 45.9879 13.5321C45.6024 13.4436 45.2655 13.2109 45.0464 12.8817C45.015 12.8363 44.9865 12.7888 44.9612 12.7397C44.4855 11.8337 44.2285 10.205 45.1714 9.51204C45.3787 9.35648 45.6226 9.25683 45.8795 9.22265C46.1365 9.18847 46.3979 9.22091 46.6387 9.31686C46.8795 9.41282 47.0916 9.56905 47.2547 9.77058C47.4177 9.97211 47.5262 10.2122 47.5698 10.4677C47.7742 11.554 47.9475 12.1831 47.5428 12.8661Z" fill="#E4897B"/>
<path d="M45.9552 11.2488C45.9702 11.2819 45.9719 11.3194 45.96 11.3538C45.9481 11.3881 45.9235 11.4166 45.8913 11.4334C45.8345 11.4476 45.7706 11.3879 45.7493 11.3013C45.728 11.2147 45.7564 11.1309 45.8132 11.1167C45.87 11.1025 45.9324 11.1607 45.9552 11.2488Z" fill="#263238"/>
<path d="M44.9971 11.4504C45.0255 11.5356 44.99 11.6208 44.9346 11.635C44.8793 11.6492 44.8125 11.5895 44.7926 11.5029C44.7728 11.4163 44.7997 11.3325 44.8565 11.3183C44.9133 11.3041 44.9758 11.368 44.9971 11.4504Z" fill="#263238"/>
<path d="M45.3418 11.4772C45.3146 11.7626 45.2472 12.0428 45.1416 12.3093C45.2836 12.3661 45.4824 12.2767 45.6173 12.2028L45.3418 11.4772Z" fill="#DE5753"/>
<path d="M46.2397 10.7829C46.2308 10.7864 46.2211 10.7875 46.2116 10.786C46.2021 10.7845 46.1932 10.7805 46.1858 10.7744C46.1349 10.7318 46.0748 10.7016 46.0102 10.6863C45.9456 10.671 45.8783 10.671 45.8137 10.6864C45.807 10.6893 45.7998 10.6908 45.7925 10.6907C45.7852 10.6907 45.7779 10.6891 45.7713 10.6861C45.7646 10.6831 45.7586 10.6788 45.7537 10.6733C45.7488 10.6679 45.7451 10.6615 45.7429 10.6546C45.7406 10.6476 45.7398 10.6403 45.7405 10.633C45.7412 10.6257 45.7434 10.6187 45.747 10.6123C45.7506 10.606 45.7555 10.6004 45.7614 10.5961C45.7672 10.5917 45.7739 10.5886 45.7811 10.587C45.8622 10.5663 45.947 10.5651 46.0286 10.5833C46.1103 10.6016 46.1865 10.6388 46.2511 10.692C46.2566 10.6962 46.2612 10.7015 46.2647 10.7074C46.2682 10.7134 46.2705 10.72 46.2714 10.7269C46.2723 10.7338 46.2719 10.7407 46.2701 10.7474C46.2683 10.7541 46.2652 10.7604 46.261 10.7659C46.2549 10.7727 46.2477 10.7785 46.2397 10.7829Z" fill="#263238"/>
<path d="M45.8205 12.6331C45.9497 12.6193 46.0739 12.575 46.1828 12.5039C46.2916 12.4328 46.3821 12.3369 46.4467 12.2241C46.4484 12.2209 46.4493 12.2173 46.4496 12.2137C46.4499 12.21 46.4494 12.2064 46.4482 12.2029C46.447 12.1995 46.4451 12.1963 46.4427 12.1936C46.4402 12.1909 46.4372 12.1887 46.4339 12.1872C46.4308 12.1855 46.4275 12.1844 46.424 12.1841C46.4205 12.1837 46.417 12.1841 46.4137 12.1852C46.4104 12.1862 46.4073 12.188 46.4047 12.1903C46.402 12.1926 46.3999 12.1954 46.3984 12.1985C46.3371 12.3023 46.2524 12.3904 46.1511 12.4557C46.0498 12.521 45.9346 12.5618 45.8148 12.5748C45.8111 12.575 45.8075 12.5759 45.8042 12.5776C45.8009 12.5792 45.798 12.5814 45.7956 12.5842C45.7932 12.587 45.7914 12.5903 45.7903 12.5938C45.7892 12.5973 45.7888 12.601 45.7892 12.6047C45.7896 12.6082 45.7906 12.6117 45.7923 12.6148C45.794 12.6179 45.7963 12.6207 45.7991 12.623C45.8019 12.6252 45.8051 12.6269 45.8085 12.6279C45.8119 12.6289 45.8155 12.6292 45.819 12.6288L45.8205 12.6331Z" fill="#263238"/>
<path d="M44.5145 11.1961C44.5061 11.2029 44.4955 11.2065 44.4847 11.206C44.4779 11.2048 44.4715 11.2023 44.4657 11.1985C44.4599 11.1948 44.455 11.1899 44.4511 11.1842C44.4473 11.1785 44.4446 11.1721 44.4433 11.1654C44.442 11.1586 44.4421 11.1517 44.4435 11.145C44.4588 11.0624 44.4936 10.9847 44.545 10.9182C44.5964 10.8518 44.6628 10.7986 44.7389 10.763C44.7453 10.7604 44.7522 10.7592 44.7591 10.7593C44.766 10.7595 44.7728 10.761 44.7791 10.7637C44.7855 10.7665 44.7912 10.7705 44.796 10.7755C44.8008 10.7805 44.8045 10.7864 44.807 10.7928C44.8096 10.7992 44.8108 10.8061 44.8107 10.813C44.8105 10.8199 44.809 10.8267 44.8063 10.8331C44.8035 10.8394 44.7995 10.8451 44.7945 10.8499C44.7895 10.8547 44.7837 10.8584 44.7772 10.861C44.7178 10.8907 44.6662 10.934 44.6265 10.9872C44.5868 11.0405 44.5602 11.1023 44.5486 11.1677C44.5452 11.1745 44.5404 11.1805 44.5345 11.1854C44.5287 11.1903 44.5218 11.1939 44.5145 11.1961Z" fill="#263238"/>
<path d="M48.2574 11.2274C48.1991 11.5001 48.0359 11.7388 47.803 11.892C47.492 12.0908 47.235 11.8395 47.2236 11.4901C47.2236 11.1792 47.377 10.6907 47.7334 10.6381C48.0898 10.5856 48.3227 10.8923 48.2574 11.2274Z" fill="#E4897B"/>
<path d="M43.3664 15.5128C42.8343 16.0195 42.4429 16.6556 42.2304 17.3588C41.9634 18.2108 41.7135 20.2173 41.5914 21.3064C41.5658 21.5167 41.4731 21.7132 41.327 21.8667C41.181 22.0201 40.9893 22.1224 40.7806 22.1584L37.79 22.6796L38.0286 24.2004L41.8172 23.8355C42.2226 23.7964 42.6046 23.6276 42.9065 23.3541C43.2084 23.0807 43.414 22.7171 43.4928 22.3175C43.7242 21.146 44.0338 19.4477 44.1744 18.1029C44.4129 15.8181 44.1616 15.2771 43.3664 15.5128Z" fill="#69C53E"/>
<path opacity="0.1" d="M43.3664 15.5128C42.8343 16.0195 42.4429 16.6556 42.2304 17.3588C41.9634 18.2108 41.7135 20.2173 41.5914 21.3064C41.5658 21.5167 41.4731 21.7132 41.327 21.8667C41.181 22.0201 40.9893 22.1224 40.7806 22.1584L37.79 22.6796L38.0286 24.2004L41.8172 23.8355C42.2226 23.7964 42.6046 23.6276 42.9065 23.3541C43.2084 23.0807 43.414 22.7171 43.4928 22.3175C43.7242 21.146 44.0338 19.4477 44.1744 18.1029C44.4129 15.8181 44.1616 15.2771 43.3664 15.5128Z" fill="black"/>
<path d="M41.2662 49.3118L40.1416 49.0349L40.782 46.6252L41.9067 46.9021L41.2662 49.3118Z" fill="#E4897B"/>
<path d="M40.1531 48.6459L41.4311 49.106C41.4521 49.1136 41.4697 49.1282 41.4811 49.1474C41.4925 49.1665 41.4969 49.189 41.4936 49.211L41.3644 50.2207C41.3584 50.2641 41.3355 50.3034 41.3006 50.33C41.2658 50.3566 41.2218 50.3683 41.1784 50.3627C41.1662 50.3609 41.1542 50.3576 41.1429 50.3527C40.7325 50.1979 40.4414 50.0687 39.9231 49.877C39.6036 49.7606 38.628 49.451 38.1878 49.2877C37.7476 49.1244 37.847 48.6729 38.0458 48.697C38.9191 48.8134 39.6164 48.7893 39.9586 48.6501C40.0206 48.6244 40.09 48.6229 40.1531 48.6459Z" fill="#2E353A"/>
<path d="M39.739 48.7041C39.6655 48.6847 39.6011 48.6399 39.5573 48.5777C39.5441 48.5546 39.5371 48.5284 39.5371 48.5018C39.5371 48.4751 39.5441 48.4489 39.5573 48.4258C39.5621 48.4112 39.5712 48.3983 39.5833 48.3887C39.5954 48.3791 39.61 48.3732 39.6254 48.3718C39.7674 48.3534 40.0273 48.6842 40.0514 48.7226C40.0546 48.7266 40.0564 48.7316 40.0564 48.7368C40.0564 48.7419 40.0546 48.7469 40.0514 48.751C40.0493 48.7558 40.0456 48.7598 40.041 48.7624C40.0364 48.765 40.0311 48.7659 40.0258 48.7652C39.9283 48.7553 39.8321 48.7348 39.739 48.7041ZM39.6609 48.4301C39.6497 48.4272 39.638 48.4272 39.6268 48.4301C39.6268 48.4301 39.6084 48.4301 39.5998 48.4528C39.5917 48.4686 39.5875 48.4861 39.5875 48.5039C39.5875 48.5217 39.5917 48.5392 39.5998 48.555C39.6989 48.6505 39.8301 48.7052 39.9676 48.7084C39.884 48.5969 39.7799 48.5025 39.6609 48.4301Z" fill="#69C53E"/>
<path d="M40.0216 48.7636H40.0088C39.9222 48.6656 39.7958 48.3589 39.8569 48.2567C39.8672 48.2394 39.8832 48.2264 39.9021 48.2196C39.921 48.2129 39.9417 48.2129 39.9606 48.2197C39.9805 48.2238 39.9993 48.2322 40.0157 48.2442C40.0321 48.2562 40.0458 48.2716 40.0557 48.2893C40.1409 48.4313 40.0557 48.7437 40.0557 48.7593C40.0544 48.7638 40.0518 48.7678 40.0483 48.7708C40.0447 48.7738 40.0404 48.7757 40.0358 48.7764C40.0327 48.7754 40.0298 48.7738 40.0273 48.7716C40.0249 48.7693 40.0229 48.7666 40.0216 48.7636ZM39.9634 48.2623H39.952C39.9194 48.251 39.9109 48.2694 39.9066 48.2751C39.8683 48.339 39.9393 48.5591 40.0174 48.6827C40.0557 48.5611 40.0557 48.4307 40.0174 48.3092C40.0121 48.2981 40.0046 48.2882 39.9953 48.2801C39.986 48.2721 39.9751 48.266 39.9634 48.2623Z" fill="#69C53E"/>
<path opacity="0.2" d="M41.9072 46.9021L40.7826 46.6252L40.4531 47.8691L41.5778 48.1446L41.9072 46.9021Z" fill="black"/>
<path d="M48.7131 49.3005L47.563 49.4369L47.3145 46.9561L48.4646 46.8198L48.7131 49.3005Z" fill="#E4897B"/>
<path d="M47.4369 49.069L48.793 49.0506C48.8154 49.0506 48.8371 49.0582 48.8546 49.0721C48.8721 49.086 48.8844 49.1055 48.8896 49.1272L49.1224 50.1212C49.1318 50.164 49.1239 50.2087 49.1005 50.2456C49.0771 50.2826 49.0401 50.3088 48.9975 50.3186C48.9852 50.3201 48.9728 50.3201 48.9606 50.3186C48.5218 50.3186 48.2023 50.2945 47.6513 50.3016C47.3119 50.3016 46.2895 50.3541 45.8209 50.3612C45.3523 50.3683 45.2842 49.904 45.4759 49.86C46.3279 49.6612 46.9782 49.3928 47.2509 49.1414C47.301 49.0939 47.3678 49.0679 47.4369 49.069Z" fill="#2E353A"/>
<path d="M47.07 49.269C46.994 49.2765 46.9177 49.2574 46.8541 49.2151C46.8332 49.1984 46.8169 49.1765 46.807 49.1516C46.797 49.1267 46.7937 49.0996 46.7973 49.0731C46.7965 49.0576 46.8003 49.0422 46.8081 49.0289C46.8159 49.0155 46.8275 49.0047 46.8414 48.9978C46.9649 48.9325 47.3284 49.1498 47.3682 49.1739C47.3727 49.1762 47.3765 49.18 47.3788 49.1846C47.3811 49.1892 47.3818 49.1944 47.381 49.1995C47.3805 49.2049 47.3783 49.21 47.3747 49.2141C47.3712 49.2182 47.3664 49.221 47.3611 49.2222C47.2662 49.2491 47.1685 49.2648 47.07 49.269ZM46.901 49.0404C46.8892 49.0391 46.8772 49.0415 46.8669 49.0475C46.8598 49.0475 46.8513 49.0575 46.8499 49.0788C46.8479 49.0964 46.8503 49.1143 46.8567 49.1308C46.8631 49.1474 46.8735 49.1622 46.8868 49.1739C47.0127 49.2288 47.1548 49.2339 47.2844 49.1881C47.1673 49.1146 47.0371 49.0644 46.901 49.0404Z" fill="#69C53E"/>
<path d="M47.3542 49.2266H47.3414C47.2264 49.1655 47.0006 48.9227 47.0219 48.8006C47.0253 48.7807 47.0355 48.7627 47.0508 48.7498C47.0662 48.7368 47.0856 48.7296 47.1057 48.7296C47.1256 48.7267 47.146 48.7282 47.1653 48.7338C47.1846 48.7394 47.2026 48.7491 47.2179 48.7622C47.3485 48.8659 47.3798 49.1882 47.3812 49.201C47.3814 49.2058 47.3803 49.2106 47.3781 49.2148C47.3758 49.219 47.3725 49.2226 47.3684 49.2251L47.3542 49.2266ZM47.1242 48.7764H47.1114C47.0773 48.7764 47.0745 48.7963 47.0745 48.8034C47.0603 48.8758 47.2051 49.0604 47.3215 49.1456C47.311 49.0178 47.2614 48.8964 47.1795 48.7977C47.1644 48.7839 47.1446 48.7762 47.1242 48.7764Z" fill="#69C53E"/>
<path opacity="0.2" d="M48.4646 46.8198L47.3145 46.9561L47.4437 48.2355L48.5939 48.0992L48.4646 46.8198Z" fill="black"/>
<path d="M43.3645 26.6287C43.3645 26.6287 40.4705 40.7776 40.3711 46.2105L42.2995 47.0724C42.2995 47.0724 43.87 40.9338 44.3798 37.4846C44.3798 37.4846 45.7316 34.7454 46.0951 32.5146C46.0951 32.5146 46.0199 42.3126 47.0352 47.4828L48.8442 47.3408C48.8442 47.3408 50.6689 28.9603 50.3395 26.0181L43.3645 26.6287Z" fill="#69C53E"/>
<path opacity="0.6" d="M43.3645 26.6287C43.3645 26.6287 40.4705 40.7776 40.3711 46.2105L42.2995 47.0724C42.2995 47.0724 43.87 40.9338 44.3798 37.4846C44.3798 37.4846 45.7316 34.7454 46.0951 32.5146C46.0951 32.5146 46.0199 42.3126 47.0352 47.4828L48.8442 47.3408C48.8442 47.3408 50.6689 28.9603 50.3395 26.0181L43.3645 26.6287Z" fill="white"/>
<path opacity="0.2" d="M45.7812 28.9434C45.7812 28.9434 45.5668 32.3074 45.8721 33.5428C45.9644 33.1949 46.041 32.8484 46.095 32.5133L45.7812 28.9434Z" fill="black"/>
<path d="M46.8045 47.8931L49.2881 47.5239L49.2114 46.8367L46.6299 47.1746L46.8045 47.8931Z" fill="#69C53E"/>
<path d="M40.0439 46.7402L42.4423 47.4786L42.6709 46.8268L40.1959 46.016L40.0439 46.7402Z" fill="#69C53E"/>
<path d="M43.3668 15.5131C43.3668 15.5131 43.6735 14.9067 46.3687 14.7505C49.0638 14.5943 50.268 14.9933 50.268 14.9933C50.268 14.9933 50.0237 20.6989 50.3361 26.0196C50.3361 26.0196 45.8291 27.6257 43.3611 26.6288C43.3639 26.6288 41.5151 19.7376 43.3668 15.5131Z" fill="#69C53E"/>
<path opacity="0.2" d="M47.3345 14.7163C47.0363 14.7163 46.7153 14.7305 46.3689 14.7504C46.1601 14.7632 45.9684 14.7774 45.7881 14.7944C45.7881 14.7944 46.0181 15.2304 46.3689 15.2304C46.5597 15.231 46.7478 15.1843 46.9162 15.0946C47.0847 15.005 47.2284 14.875 47.3345 14.7163Z" fill="black"/>
<path opacity="0.3" d="M50.1985 22.1302L46.0947 24.2048C46.0947 24.2048 48.682 24.2843 50.2283 23.4451C50.216 23.0011 50.2061 22.5628 50.1985 22.1302Z" fill="black"/>
<path opacity="0.1" d="M46.3164 16.3478L47.7747 22.8358L47.451 23.675L46.3164 16.3478Z" fill="black"/>
<path d="M46.3273 16.5293L38.6475 17.6929L39.7595 25.0326L47.4394 23.869L46.3273 16.5293Z" fill="#69C53E"/>
<path opacity="0.1" d="M46.3273 16.5293L38.6475 17.6929L39.7595 25.0326L47.4394 23.869L46.3273 16.5293Z" fill="white"/>
<path d="M40.5401 17.2407L34.5986 18.1605L35.7328 25.487L41.6743 24.5672L40.5401 17.2407Z" fill="#69C53E"/>
<path opacity="0.3" d="M40.5401 17.2407L34.5986 18.1605L35.7328 25.487L41.6743 24.5672L40.5401 17.2407Z" fill="white"/>
<path opacity="0.3" d="M38.4116 17.5693L36.7305 17.8295L37.0359 19.8025L38.717 19.5423L38.4116 17.5693Z" fill="white"/>
<path opacity="0.1" d="M44.6841 16.5999L43.0029 16.8602L43.3084 18.8332L44.9895 18.573L44.6841 16.5999Z" fill="black"/>
<path opacity="0.2" d="M41.0674 23.1029L39.2305 23.3873L39.4036 24.5057L41.2405 24.2213L41.0674 23.1029Z" fill="white"/>
<path opacity="0.2" d="M43.9359 24.1466L43.7471 23.8966L43.1379 24.0273C43.1055 24.131 43.093 24.2399 43.101 24.3482L43.953 24.2176L43.9359 24.1466Z" fill="#2E353A"/>
<path d="M42.8839 21.0707C42.7419 21.119 42.5431 21.1162 42.5232 20.9287C42.5076 20.7725 42.6922 20.6447 42.8328 20.6703C42.8437 20.6722 42.8549 20.6697 42.864 20.6633C42.873 20.6569 42.8792 20.6471 42.8811 20.6362C42.883 20.6253 42.8804 20.6141 42.874 20.605C42.8676 20.596 42.8579 20.5898 42.847 20.5879C42.7967 20.5809 42.7455 20.5846 42.6968 20.5989C42.6481 20.6131 42.6029 20.6376 42.5644 20.6706C42.5258 20.7037 42.4948 20.7445 42.4732 20.7905C42.4517 20.8365 42.4402 20.8865 42.4395 20.9373C42.4636 21.1843 42.7235 21.2213 42.9152 21.1503C42.9705 21.1318 42.9407 21.0523 42.8839 21.0707Z" fill="white"/>
<path d="M43.0257 20.2898C43.0129 20.2373 42.9291 20.2458 42.9405 20.2983C43.002 20.5691 43.0622 20.8394 43.1209 21.1092C43.1322 21.1617 43.216 21.1546 43.2046 21.1006L43.0257 20.2898Z" fill="white"/>
<path d="M43.5301 20.4488C43.5243 20.4504 43.5193 20.4539 43.5159 20.4588C43.1367 20.5312 43.3597 21.1233 43.7118 21.014C43.7843 20.9826 43.8425 20.9254 43.8753 20.8535C43.9081 20.7817 43.9131 20.7003 43.8893 20.6249C43.8809 20.5875 43.8641 20.5525 43.8403 20.5224C43.8165 20.4923 43.7863 20.4679 43.7518 20.451C43.7174 20.4341 43.6796 20.4252 43.6412 20.4248C43.6028 20.4244 43.5649 20.4326 43.5301 20.4488ZM43.7175 20.9189C43.469 21.0609 43.2489 20.5894 43.5315 20.5411C43.5402 20.5401 43.5482 20.536 43.5542 20.5298C43.807 20.4247 43.9106 20.8081 43.7175 20.9189Z" fill="white"/>
<path d="M44.2389 20.2246L44.0841 20.2516L44.0585 20.084C44.05 20.0301 43.9662 20.0386 43.9748 20.0926C43.9833 20.1465 43.9918 20.2076 44.0017 20.2658L43.8484 20.2914C43.7959 20.3013 43.803 20.3851 43.8569 20.3766L44.0145 20.3496L44.1082 20.9588C44.1168 21.0113 44.2005 21.0028 44.192 20.9488C44.1608 20.7443 44.1281 20.5399 44.0969 20.3354L44.2488 20.3084C44.3042 20.2999 44.2929 20.2147 44.2389 20.2246Z" fill="white"/>
<path d="M44.8324 20.3367C44.7808 20.3062 44.7215 20.2911 44.6615 20.2934C44.6016 20.2957 44.5436 20.3151 44.4944 20.3495C44.4746 20.2387 44.4533 20.128 44.4305 20.0172C44.4192 19.9647 44.3354 19.9732 44.3468 20.0271C44.4045 20.3111 44.4518 20.5951 44.4888 20.8791C44.4973 20.9331 44.5811 20.9246 44.5725 20.8706C44.5527 20.7286 44.5299 20.5866 44.5058 20.4446C44.5278 20.4228 44.554 20.4057 44.5829 20.3945C44.6118 20.3833 44.6427 20.3783 44.6736 20.3796C44.7046 20.3809 44.7349 20.3887 44.7627 20.4023C44.7905 20.4159 44.8152 20.4352 44.8352 20.4588C44.8866 20.5671 44.9133 20.6854 44.9133 20.8053C44.9159 20.8152 44.9219 20.8238 44.9302 20.8296C44.9386 20.8354 44.9488 20.838 44.9589 20.837C44.969 20.836 44.9784 20.8313 44.9854 20.824C44.9925 20.8166 44.9966 20.8069 44.9971 20.7968C44.9886 20.6434 44.9829 20.4176 44.8324 20.3367Z" fill="white"/>
<path d="M45.1897 20.1749C45.1555 20.193 45.1256 20.2182 45.102 20.2488C45.0783 20.2794 45.0614 20.3146 45.0524 20.3522C45.0434 20.3898 45.0425 20.4289 45.0498 20.4669C45.057 20.5049 45.0723 20.5409 45.0945 20.5725C45.1129 20.6109 45.139 20.6451 45.1712 20.6729C45.2035 20.7008 45.2411 20.7216 45.2818 20.7341C45.3225 20.7467 45.3654 20.7507 45.4077 20.7458C45.45 20.741 45.4908 20.7274 45.5276 20.706C45.5759 20.6818 45.5461 20.6023 45.4978 20.6264C45.4584 20.6546 45.4106 20.6684 45.3623 20.6656C45.314 20.6627 45.2681 20.6434 45.2323 20.6108C45.2047 20.5855 45.1817 20.5558 45.1641 20.5228C45.2891 20.5327 45.5177 20.5072 45.5234 20.3708C45.5305 20.1962 45.3303 20.1195 45.1897 20.1749ZM45.4282 20.3836C45.4155 20.4035 45.3572 20.4163 45.3345 20.4234C45.2703 20.4442 45.2019 20.4481 45.1357 20.4347C45.1314 20.4119 45.1318 20.3885 45.1366 20.3659C45.1415 20.3432 45.1508 20.3217 45.1641 20.3027C45.1845 20.2773 45.2122 20.2588 45.2434 20.2497C45.2746 20.2405 45.3079 20.2412 45.3388 20.2516C45.38 20.2615 45.468 20.3297 45.4282 20.3836Z" fill="white"/>
<path d="M46.1499 20.3395C46.1264 20.299 46.0899 20.2676 46.0464 20.2504C46.0029 20.2331 45.9548 20.231 45.9099 20.2444C45.8418 20.2586 45.677 20.3267 45.714 20.1918C45.7367 20.1024 45.856 20.0683 45.9397 20.0754C45.9937 20.0754 46.0079 19.9973 45.9525 19.9916C45.8105 19.9788 45.5365 20.1066 45.6245 20.2926C45.6657 20.3793 45.7665 20.3693 45.8489 20.3494C45.8939 20.331 45.9422 20.3218 45.9909 20.3225C46.0087 20.3237 46.0258 20.3299 46.0404 20.3403C46.0549 20.3507 46.0663 20.3649 46.0732 20.3814C46.0801 20.3979 46.0823 20.416 46.0796 20.4337C46.0768 20.4513 46.0692 20.4679 46.0576 20.4815C45.998 20.5596 45.8815 20.5454 45.7963 20.5312C45.7856 20.5302 45.7749 20.5332 45.7664 20.5398C45.7578 20.5463 45.7521 20.5559 45.7503 20.5665C45.7485 20.5771 45.7508 20.588 45.7567 20.597C45.7626 20.606 45.7717 20.6124 45.7821 20.615C45.8353 20.6301 45.8911 20.6332 45.9456 20.6241C46.0002 20.6151 46.052 20.594 46.0974 20.5624C46.1282 20.5354 46.1499 20.4993 46.1593 20.4594C46.1687 20.4194 46.1654 20.3775 46.1499 20.3395Z" fill="white"/>
<path d="M47.4601 22.684L44.9793 23.2889C44.7894 23.1671 44.5625 23.1168 44.3389 23.1469C43.9896 23.2094 43.1049 23.9179 43.1376 24.023C43.1703 24.1281 43.9896 24.7699 44.1415 24.7231C44.2935 24.6762 45.2491 24.0003 45.2491 24.0003L47.612 23.8029L47.4601 22.684Z" fill="#E4897B"/>
<path d="M50.1105 14.9847C50.1105 14.9847 49.0682 15.2616 49.2159 17.1957C49.2812 18.0363 49.3139 18.9338 49.3309 19.6807C49.3412 20.1804 49.2092 20.6727 48.9502 21.1001C48.6912 21.5276 48.316 21.8725 47.8683 22.0947L45.832 22.9268L46.0947 24.2048C46.0947 24.2048 49.054 23.9336 50.0949 23.1015C51.1357 22.2693 51.4978 20.4929 51.3289 19.0204C51.0931 16.9756 51.1712 14.9024 50.1105 14.9847Z" fill="#69C53E"/>
<path opacity="0.1" d="M50.1105 14.9847C50.1105 14.9847 49.0682 15.2616 49.2159 17.1957C49.2812 18.0363 49.3139 18.9338 49.3309 19.6807C49.3412 20.1804 49.2092 20.6727 48.9502 21.1001C48.6912 21.5276 48.316 21.8725 47.8683 22.0947L45.832 22.9268L46.0947 24.2048C46.0947 24.2048 49.054 23.9336 50.0949 23.1015C51.1357 22.2693 51.4978 20.4929 51.3289 19.0204C51.0931 16.9756 51.1712 14.9024 50.1105 14.9847Z" fill="black"/>
<path d="M46.0253 22.6031L46.1985 24.3809L45.72 24.4263L45.4658 22.7621L46.0253 22.6031Z" fill="#69C53E"/>
<path opacity="0.6" d="M46.0253 22.6031L46.1985 24.3809L45.72 24.4263L45.4658 22.7621L46.0253 22.6031Z" fill="white"/>
<path opacity="0.4" d="M48.5275 17.7203L46.877 17.8679L46.9005 18.131L48.551 17.9834L48.5275 17.7203Z" fill="white"/>
<path d="M46.3682 14.7505L46.9021 15.4605L48.0281 14.7178V14.6496C48.0308 14.5901 48.0193 14.5307 47.9947 14.4764C47.97 14.4221 47.9328 14.3744 47.8861 14.3372C47.8323 14.3041 47.7712 14.2846 47.7081 14.2804C47.645 14.2762 47.5818 14.2874 47.524 14.3131L46.3682 14.7505Z" fill="#69C53E"/>
<path d="M45.6172 14.8072L45.7492 14.5885C45.9154 14.3925 46.0474 14.4933 46.0474 14.4933L46.3684 14.7504L45.8998 15.4604L45.6172 14.8072Z" fill="#69C53E"/>
<path opacity="0.6" d="M46.3682 14.7505L46.9021 15.4605L48.0281 14.7178V14.6496C48.0308 14.5901 48.0193 14.5307 47.9947 14.4764C47.97 14.4221 47.9328 14.3744 47.8861 14.3372C47.8323 14.3041 47.7712 14.2846 47.7081 14.2804C47.645 14.2762 47.5818 14.2874 47.524 14.3131L46.3682 14.7505Z" fill="white"/>
<path opacity="0.6" d="M45.6172 14.8072L45.7492 14.5885C45.9154 14.3925 46.0474 14.4933 46.0474 14.4933L46.3684 14.7504L45.8998 15.4604L45.6172 14.8072Z" fill="white"/>
<path d="M48.2291 11.199C48.3044 10.7134 47.9678 10.6466 47.7463 10.7048C47.5248 10.7631 47.2848 11.1152 47.2848 11.1152C47.069 10.7659 46.9469 9.88124 46.9469 9.88124C46.6725 10.0328 46.3667 10.1187 46.0535 10.132C45.7403 10.1453 45.4283 10.0857 45.142 9.95792C45.0317 10.2562 44.8254 10.5095 44.5556 10.6779C44.5556 10.6779 44.1551 10.4947 44.3781 9.57452C44.6308 8.52798 46.2028 7.51552 47.7861 8.55922C49.3694 9.60292 48.4109 11.5412 48.4109 11.5412C48.4109 11.5412 48.0516 12.176 47.7335 12.4145C47.7605 12.2261 47.7605 12.0349 47.7335 11.8465C47.8626 11.787 47.9752 11.697 48.0615 11.5841C48.1479 11.4713 48.2054 11.3391 48.2291 11.199Z" fill="#2E353A"/>
<path d="M44.9547 9.69803C45.0463 9.8099 45.1523 9.90921 45.2699 9.99339C45.3897 10.0788 45.5194 10.1494 45.6562 10.2035C45.7928 10.2574 45.9361 10.2922 46.0822 10.3072C46.2317 10.3214 46.3824 10.3171 46.5309 10.2944C46.3834 10.3289 46.2322 10.3451 46.0807 10.3427C45.9271 10.3399 45.7746 10.3155 45.6278 10.2703C45.4781 10.2262 45.3349 10.1627 45.2018 10.0814C45.0665 10.0004 44.9428 9.90157 44.834 9.78749L44.9547 9.69803Z" fill="#2E353A"/>
<path d="M63.2142 17.7225C62.064 16.6944 60.7207 18.0888 60.7207 18.0888C60.7207 18.0888 59.3759 16.6944 58.2272 17.7225C56.5885 19.1893 58.9712 21.8163 60.7207 22.3417C62.4701 21.8163 64.8529 19.1936 63.2142 17.7225Z" fill="#69C53E"/>
<path opacity="0.6" d="M63.2142 17.7225C62.064 16.6944 60.7207 18.0888 60.7207 18.0888C60.7207 18.0888 59.3759 16.6944 58.2272 17.7225C56.5885 19.1893 58.9712 21.8163 60.7207 22.3417C62.4701 21.8163 64.8529 19.1936 63.2142 17.7225Z" fill="white"/>
<path d="M39.9964 4.04781C38.8462 3.01973 37.5029 4.41417 37.5029 4.41417C37.5029 4.41417 36.1582 3.01973 35.0094 4.04781C33.3707 5.51325 35.7535 8.14025 37.5029 8.66707C39.2524 8.14025 41.6351 5.51325 39.9964 4.04781Z" fill="#69C53E"/>
<path opacity="0.6" d="M39.9964 4.04781C38.8462 3.01973 37.5029 4.41417 37.5029 4.41417C37.5029 4.41417 36.1582 3.01973 35.0094 4.04781C33.3707 5.51325 35.7535 8.14025 37.5029 8.66707C39.2524 8.14025 41.6351 5.51325 39.9964 4.04781Z" fill="white"/>
<path d="M53.5106 8.31634C53.0405 7.89034 52.491 8.46686 52.491 8.46686C52.491 8.46686 51.9429 7.89886 51.4729 8.31634C50.8026 8.91558 51.7767 9.9891 52.491 10.2049C53.2067 9.9891 54.1794 8.91558 53.5106 8.31634Z" fill="#69C53E"/>
<path opacity="0.6" d="M53.5106 8.31634C53.0405 7.89034 52.491 8.46686 52.491 8.46686C52.491 8.46686 51.9429 7.89886 51.4729 8.31634C50.8026 8.91558 51.7767 9.9891 52.491 10.2049C53.2067 9.9891 54.1794 8.91558 53.5106 8.31634Z" fill="white"/>
<path d="M10.5744 19.5996C10.1044 19.1736 9.55626 19.7502 9.55626 19.7502C9.55626 19.7502 9.00672 19.1822 8.5367 19.5996C7.86788 20.1989 8.84058 21.2724 9.55626 21.4868C10.2705 21.2724 11.2446 20.1989 10.5744 19.5996Z" fill="#69C53E"/>
<path opacity="0.6" d="M10.5744 19.5996C10.1044 19.1736 9.55626 19.7502 9.55626 19.7502C9.55626 19.7502 9.00672 19.1822 8.5367 19.5996C7.86788 20.1989 8.84058 21.2724 9.55626 21.4868C10.2705 21.2724 11.2446 20.1989 10.5744 19.5996Z" fill="white"/>
</svg>
