<svg width="46" height="63" viewBox="0 0 46 63" fill="none" xmlns="http://www.w3.org/2000/svg">
<path d="M36.6826 26.5505L35.2231 43.3847L32.9987 58.3001L31.2777 58.0402C31.2777 58.0402 30.6958 51.8034 31.1142 46.8953C31.2107 45.7643 31.6716 44.4977 31.6732 43.5939C31.6732 42.8028 31.4411 42.2716 31.2662 40.4509C31.0538 38.2494 30.9247 35.3206 31.3872 33.124C31.3872 33.124 31.0374 29.6362 32.0916 26.4818L36.6826 26.5505Z" fill="#D89380"/>
<path d="M40.8274 42.6949L40.6803 58.4243L40.6248 60.0587L39.4202 59.9916L38.9528 57.1249C38.9528 57.1249 37.5717 51.6743 37.2776 46.7597C37.2122 45.627 37.4802 44.3081 37.356 43.4124C37.2465 42.6279 36.936 42.1376 36.498 40.3676C35.9684 38.2184 35.4225 35.3418 35.5565 33.0978C35.5565 33.0978 33.257 30.6969 33.8453 27.4216L39.01 26.2171L40.8274 42.6949Z" fill="#D89380"/>
<path d="M43.005 61.5884C42.7556 61.4426 42.4856 61.3352 42.2042 61.2697C42.2042 61.2697 41.3347 60.6356 40.8836 58.6972L39.7493 58.488C39.5684 58.4534 39.3818 58.464 39.2059 58.5187C39.03 58.5734 38.8703 58.6707 38.7409 58.8018C38.7118 58.8361 38.6881 58.8747 38.6707 58.9162C38.6189 59.1211 38.5839 59.3299 38.5661 59.5405C38.5197 60.2522 38.529 60.9664 38.5938 61.6767H38.8047L38.8553 60.3348C38.8553 59.8788 39.3457 60.4084 39.4911 60.8954C39.6366 61.3825 39.9242 61.9137 41.2432 61.9137C42.7583 61.9186 43.3973 61.8679 43.005 61.5884Z" fill="#263238"/>
<path d="M40.6682 58.0026C40.8566 58.6363 41.0792 59.2594 41.335 59.8691C41.5197 60.3955 41.8195 60.874 42.2127 61.2697C42.2127 61.2697 41.232 61.4152 40.7908 60.9183C40.3495 60.4215 39.7349 58.7103 38.7363 58.8116C38.8147 58.681 38.9097 58.5613 39.0191 58.4553C39.1858 58.2755 40.6682 58.0026 40.6682 58.0026Z" fill="#D89380"/>
<path d="M34.3948 62.0379C34.1887 61.8358 33.9528 61.6665 33.6953 61.5361C33.6953 61.5361 33.0023 60.7108 33.0301 58.7217L31.9808 58.2461C31.8136 58.1688 31.6299 58.134 31.4459 58.1448C31.262 58.1557 31.0836 58.2118 30.9266 58.3082C30.8898 58.3347 30.8573 58.3667 30.8302 58.403C30.7311 58.5893 30.6475 58.7833 30.5802 58.9832C30.3629 59.663 30.199 60.3586 30.0898 61.0638L30.2958 61.1145L30.6684 59.8233C30.7779 59.382 31.1293 60.0145 31.1506 60.5212C31.1718 61.0278 31.3254 61.613 32.6052 61.93C34.0777 62.2994 34.7103 62.404 34.3948 62.0379Z" fill="#263238"/>
<path d="M32.989 57.9961C33.0211 58.6569 33.0893 59.3154 33.1933 59.9688C33.2454 60.5242 33.4213 61.0609 33.7082 61.5394C33.7082 61.5394 32.7177 61.443 32.4121 60.8562C32.1065 60.2695 31.9218 58.4586 30.9248 58.318C31.0321 58.2102 31.153 58.1168 31.2844 58.0402C31.4838 57.9029 32.989 57.9961 32.989 57.9961Z" fill="#D89380"/>
<path d="M32.1553 6.72538C32.1983 6.56752 32.1818 6.39935 32.1089 6.25289C32.0359 6.10642 31.9117 5.99189 31.7598 5.93107C31.6056 5.87698 31.4401 5.86285 31.2789 5.89C31.1177 5.91715 30.9661 5.9847 30.838 6.08633C30.5843 6.29389 30.3921 6.56687 30.2823 6.87574C30.0817 7.39606 30.0175 7.95906 30.0959 8.51118C30.1743 9.0633 30.3926 9.58619 30.7302 10.0301C31.057 10.4534 31.5261 10.8032 32.0606 10.8636C32.595 10.9241 33.185 10.6316 33.3485 10.12L32.1553 6.72538Z" fill="#263238"/>
<path d="M35.6757 5.80032C35.6757 5.80032 37.0829 8.56897 37.1238 9.41558C37.6828 9.92715 38.1289 8.94651 38.1551 7.61776C38.178 6.52599 37.6501 5.32962 36.7234 4.86872C35.4191 4.21987 35.6757 5.80032 35.6757 5.80032Z" fill="#263238"/>
<path d="M35.1926 13.5996C35.0734 13.4875 34.9846 13.347 34.9346 13.1912C34.8846 13.0354 34.8749 12.8694 34.9066 12.7089C34.9599 12.415 35.0482 12.1286 35.1698 11.8557L34.8086 11.4406L32.9176 9.52509C32.965 10.7999 33.1186 12.8462 32.1216 13.5375C32.1216 13.5375 30.886 14.0491 30.3467 14.1602C30.6736 14.425 32.7329 17.2296 34.6418 17.0759C36.3776 16.9354 36.5018 14.4887 36.6848 13.7729C36.1912 13.6192 35.6584 13.7058 35.1926 13.5996Z" fill="#D89380"/>
<path opacity="0.2" d="M34.9099 12.7661C34.3902 12.4572 33.8198 11.9211 33.8885 11.3098C33.9111 11.0868 33.9605 10.8673 34.0355 10.6561L35.0914 12.0551C35.0065 12.2852 34.9457 12.5234 34.9099 12.7661Z" fill="black"/>
<path d="M32.4738 7.47882C32.652 9.4221 32.6863 10.2458 33.6882 11.2641C35.1967 12.7955 37.5159 12.2806 37.9163 10.3553C38.2759 8.62125 37.9245 5.73656 36.0172 4.91937C34.1426 4.11525 32.2957 5.53553 32.4738 7.47882Z" fill="#D89380"/>
<path d="M35.0811 8.25519C35.0811 8.43824 35.1742 8.59677 35.3017 8.60985C35.4292 8.62292 35.5354 8.48563 35.542 8.30422C35.5485 8.1228 35.4472 7.96426 35.3197 7.94956C35.1922 7.93485 35.086 8.07377 35.0811 8.25519Z" fill="#263238"/>
<path d="M37.0607 8.1571C37.0461 8.23071 37.0583 8.30714 37.0952 8.37251C37.1321 8.43788 37.1912 8.48786 37.2617 8.51339C37.3876 8.53464 37.502 8.40879 37.5167 8.23228C37.5313 8.15888 37.519 8.0827 37.4821 8.0176C37.4452 7.9525 37.3861 7.90282 37.3157 7.87761C37.1898 7.85637 37.0754 7.98222 37.0607 8.1571Z" fill="#263238"/>
<path d="M34.5881 7.61283C34.6005 7.61398 34.613 7.61254 34.6248 7.6086C34.6366 7.60466 34.6475 7.59831 34.6567 7.58995C34.7396 7.50862 34.8413 7.44905 34.9528 7.41655C35.0643 7.38404 35.1821 7.3796 35.2957 7.40363C35.3073 7.40706 35.3195 7.40807 35.3315 7.40659C35.3435 7.40512 35.3551 7.40119 35.3655 7.39506C35.3759 7.38893 35.385 7.38073 35.3921 7.37096C35.3992 7.36119 35.4042 7.35005 35.4069 7.33826C35.4112 7.31283 35.4061 7.2867 35.3926 7.26475C35.379 7.2428 35.358 7.22652 35.3333 7.21895C35.1904 7.18562 35.0414 7.18881 34.9 7.22823C34.7586 7.26764 34.6294 7.34202 34.5243 7.44449C34.5068 7.46275 34.4971 7.48704 34.4971 7.51232C34.4971 7.53759 34.5068 7.56189 34.5243 7.58014C34.5415 7.59758 34.5639 7.60904 34.5881 7.61283Z" fill="#263238"/>
<path d="M37.6077 7.32358C37.6191 7.32046 37.6297 7.31509 37.6389 7.30779C37.6482 7.30049 37.6559 7.29141 37.6616 7.28108C37.6674 7.26999 37.6708 7.25784 37.6717 7.24538C37.6726 7.23292 37.6709 7.22041 37.6668 7.20862C37.6626 7.19683 37.6561 7.18601 37.6476 7.17683C37.6392 7.16765 37.6289 7.1603 37.6175 7.15523C37.4841 7.07843 37.3347 7.03345 37.1811 7.02381C37.0274 7.01417 36.8736 7.04013 36.7316 7.09967C36.7207 7.10526 36.7111 7.11307 36.7033 7.1226C36.6956 7.13213 36.6899 7.14317 36.6867 7.15501C36.6835 7.16686 36.6827 7.17924 36.6846 7.19138C36.6864 7.20352 36.6908 7.21515 36.6973 7.22551C36.7103 7.24757 36.7312 7.26389 36.7558 7.27116C36.7804 7.27844 36.8068 7.27614 36.8297 7.26474C36.9432 7.22022 37.0652 7.20167 37.1868 7.21043C37.3085 7.2192 37.4266 7.25507 37.5325 7.3154C37.5438 7.32185 37.5563 7.32591 37.5692 7.32731C37.5822 7.32872 37.5953 7.32745 37.6077 7.32358Z" fill="#263238"/>
<path d="M31.8879 9.06255C32.093 9.42209 32.432 9.68589 32.8309 9.79639C33.3457 9.9255 33.6105 9.0985 33.4356 8.58367C33.3531 8.35182 33.1906 8.15699 32.9773 8.03417C32.764 7.91136 32.5139 7.8686 32.272 7.91357C31.7784 8.00837 31.6247 8.60655 31.8879 9.06255Z" fill="#D89380"/>
<path d="M36.3857 8.00836C36.5628 8.42353 36.7818 8.81948 37.0395 9.19002C37.053 9.20885 37.062 9.23054 37.0657 9.25341C37.0695 9.27628 37.0679 9.2997 37.0611 9.32185C37.0543 9.344 37.0424 9.36428 37.0265 9.38111C37.0106 9.39793 36.991 9.41084 36.9692 9.41884C36.7995 9.46947 36.6191 9.4723 36.4478 9.42701L36.3857 8.00836Z" fill="#A24E3F"/>
<path d="M35.2871 7.943L35.7398 7.87436C35.7398 7.87436 35.4636 8.18653 35.2871 7.943Z" fill="#263238"/>
<path d="M37.2695 7.87436L37.7255 7.8335C37.7255 7.8335 37.4379 8.12932 37.2695 7.87436Z" fill="#263238"/>
<path d="M31.9895 6.40015C31.7133 6.77115 32.1971 7.89398 32.1971 7.89398C32.1971 7.89398 33.1368 7.65208 33.1368 9.05439C33.4784 9.12467 33.9115 7.83023 33.9034 6.51128C33.8609 5.766 32.4782 5.74639 31.9895 6.40015Z" fill="#263238"/>
<path d="M37.5135 5.52083C37.1343 4.65297 35.4917 3.79819 33.5386 4.55327C31.7751 5.23154 31.1819 7.74196 32.4338 7.88252C33.6857 8.02307 35.2123 6.84795 35.2123 6.84795L37.5135 5.52083Z" fill="#263238"/>
<path opacity="0.2" d="M32.7348 9.30445H32.7234C32.6161 9.28214 32.5151 9.23626 32.4278 9.17011C32.3404 9.10396 32.2689 9.01921 32.2183 8.922C32.1891 8.86722 32.1717 8.80692 32.1672 8.74499C32.1627 8.68306 32.1712 8.62088 32.1922 8.56244C32.2289 8.47964 32.296 8.41403 32.3795 8.37908C32.4631 8.34413 32.5569 8.34249 32.6417 8.37449C32.6467 8.37643 32.6514 8.37941 32.6553 8.38325C32.6591 8.38708 32.6622 8.39169 32.6642 8.39676C32.6662 8.40184 32.6671 8.40728 32.6669 8.41273C32.6667 8.41818 32.6653 8.42352 32.6629 8.42842C32.6583 8.43813 32.6501 8.44572 32.6401 8.44967C32.6301 8.45361 32.619 8.45361 32.609 8.44967C32.5442 8.42636 32.473 8.4284 32.4096 8.45537C32.3463 8.48235 32.2955 8.53227 32.2674 8.59513C32.2511 8.64294 32.2448 8.69362 32.249 8.74397C32.2532 8.79432 32.2678 8.84325 32.2919 8.88768C32.3378 8.97393 32.4022 9.04897 32.4804 9.10745C32.5587 9.16593 32.6489 9.20641 32.7446 9.226C32.7499 9.22714 32.7548 9.22933 32.7592 9.23246C32.7635 9.23558 32.7672 9.23956 32.7699 9.24415C32.7727 9.24875 32.7745 9.25386 32.7752 9.25917C32.7759 9.26448 32.7755 9.26988 32.774 9.27503C32.7713 9.28339 32.7661 9.2907 32.7591 9.29597C32.7521 9.30124 32.7436 9.3042 32.7348 9.30445Z" fill="black"/>
<path d="M36.0895 10.0497C35.9075 10.0475 35.7294 9.99638 35.5739 9.9018C35.4183 9.80721 35.291 9.67259 35.2053 9.51201C35.201 9.50117 35.2011 9.48906 35.2057 9.47833C35.2103 9.4676 35.219 9.45914 35.2298 9.45481C35.2406 9.45047 35.2528 9.45062 35.2635 9.45522C35.2742 9.45982 35.2827 9.46849 35.287 9.47932C35.3672 9.62962 35.4873 9.7549 35.6341 9.8414C35.7808 9.9279 35.9486 9.97227 36.1189 9.96964C36.1243 9.96917 36.1296 9.96984 36.1347 9.97162C36.1398 9.97341 36.1444 9.97625 36.1483 9.97997C36.1521 9.98368 36.1552 9.98818 36.1571 9.99317C36.1591 9.99815 36.16 10.0035 36.1598 10.0089C36.16 10.0142 36.1592 10.0196 36.1573 10.0246C36.1554 10.0297 36.1526 10.0343 36.149 10.0382C36.1453 10.0422 36.1409 10.0454 36.1361 10.0476C36.1312 10.0499 36.1259 10.0511 36.1206 10.0514L36.0895 10.0497Z" fill="#263238"/>
<path d="M32.6365 10.0595C32.7837 10.0595 32.9029 9.94024 32.9029 9.79311C32.9029 9.64598 32.7837 9.5267 32.6365 9.5267C32.4894 9.5267 32.3701 9.64598 32.3701 9.79311C32.3701 9.94024 32.4894 10.0595 32.6365 10.0595Z" fill="#69C53E"/>
<path d="M37.044 5.73003C36.5978 6.29389 35.9735 6.65019 35.3459 6.9787C34.63 7.35134 33.857 7.77465 33.0218 7.61121C32.945 7.59486 32.9123 7.71254 32.9891 7.72888C33.8161 7.89232 34.5761 7.51478 35.2903 7.14541C35.9653 6.79565 36.6501 6.42301 37.1306 5.81665C37.1797 5.75618 37.0931 5.66792 37.044 5.73003Z" fill="#263238"/>
<path d="M41.4041 32.7105C40.7961 27.7567 38.4263 23.9567 37.9507 23.2212C37.8971 23.1379 37.8751 23.0382 37.8886 22.9401L38.1353 17.9961L37.73 13.7467C37.4587 13.6879 36.2264 13.6127 35.942 13.5963C35.942 13.5963 34.6247 17.9242 31.8168 13.6552L30.1955 14.1079L29.6905 17.9177C29.7215 18.1481 30.1318 19.4605 30.274 20.0424L31.2954 23.0856C31.3086 23.134 31.3135 23.1843 31.3102 23.2343C31.2382 24.1561 30.7741 25.6091 30.6057 26.2269C29.8131 29.1361 30.0402 29.4025 29.5859 32.6631C28.7327 38.7969 28.249 42.8339 26.9022 46.3772C26.8779 46.4399 26.8691 46.5076 26.8767 46.5744C26.8843 46.6412 26.908 46.7052 26.9457 46.7608C26.9835 46.8165 27.0343 46.8621 27.0936 46.8938C27.1529 46.9255 27.219 46.9422 27.2863 46.9427L42.9682 47.116L41.4041 32.7105Z" fill="#69C53E"/>
<path opacity="0.3" d="M41.4041 32.7105C40.7961 27.7567 38.4263 23.9567 37.9507 23.2212C37.8971 23.1379 37.8751 23.0382 37.8886 22.9401L38.1353 17.9961L37.73 13.7467C37.4587 13.6879 36.2264 13.6127 35.942 13.5963C35.942 13.5963 34.6247 17.9242 31.8168 13.6552L30.1955 14.1079L29.6905 17.9177C29.7215 18.1481 30.1318 19.4605 30.274 20.0424L31.2954 23.0856C31.3086 23.134 31.3135 23.1843 31.3102 23.2343C31.2382 24.1561 30.7741 25.6091 30.6057 26.2269C29.8131 29.1361 30.0402 29.4025 29.5859 32.6631C28.7327 38.7969 28.249 42.8339 26.9022 46.3772C26.8779 46.4399 26.8691 46.5076 26.8767 46.5744C26.8843 46.6412 26.908 46.7052 26.9457 46.7608C26.9835 46.8165 27.0343 46.8621 27.0936 46.8938C27.1529 46.9255 27.219 46.9422 27.2863 46.9427L42.9682 47.116L41.4041 32.7105Z" fill="white"/>
<g opacity="0.2">
<path d="M36.4315 21.8663C35.5457 20.902 33.8165 20.4755 32.6953 20.974C33.9701 20.9691 35.1518 21.3303 36.4315 21.8663Z" fill="black"/>
</g>
<path d="M30.114 14.1177C30.114 14.1177 29.2968 14.3351 28.9275 14.8826C28.5581 15.4301 27.2244 22.44 27.3797 23.3651C27.535 24.2901 30.5569 26.8414 30.5569 26.8414L31.4313 25.645L29.4864 22.6557L30.1598 17.8964L30.114 14.1177Z" fill="#D89380"/>
<path d="M39.8719 17.0759L37.8534 18.0566L38.5562 22.0526L34.8887 26.302L35.5179 27.889C35.5179 27.889 40.4995 23.5906 40.8444 22.7178C41.1892 21.8451 40.1203 17.6856 39.8719 17.0759Z" fill="#D89380"/>
<path d="M37.739 13.7516C37.739 13.7516 38.9223 13.8349 39.5172 15.265C40.068 16.5938 40.8443 18.4341 40.8443 18.4341L37.8943 19.266C37.8943 19.266 37.4039 15.4383 37.4448 15.4252C37.4857 15.4121 37.739 13.7516 37.739 13.7516Z" fill="#69C53E"/>
<path opacity="0.3" d="M37.739 13.7516C37.739 13.7516 38.9223 13.8349 39.5172 15.265C40.068 16.5938 40.8443 18.4341 40.8443 18.4341L37.8943 19.266C37.8943 19.266 37.4039 15.4383 37.4448 15.4252C37.4857 15.4121 37.739 13.7516 37.739 13.7516Z" fill="white"/>
<path d="M30.0345 20.3235C29.9462 20.3513 27.0566 19.1663 27.0566 19.1663C27.0566 19.1663 28.2007 15.3844 28.6763 14.7731C29.1307 14.1864 30.922 13.9102 30.922 13.9102L30.5951 18.2576L30.0345 20.3235Z" fill="#69C53E"/>
<path opacity="0.3" d="M30.0345 20.3235C29.9462 20.3513 27.0566 19.1663 27.0566 19.1663C27.0566 19.1663 28.2007 15.3844 28.6763 14.7731C29.1307 14.1864 30.922 13.9102 30.922 13.9102L30.5951 18.2576L30.0345 20.3235Z" fill="white"/>
<path opacity="0.2" d="M30.1948 19.7351C30.1948 19.7351 29.6914 18.1448 29.7045 17.1201C29.7045 17.1201 29.2142 18.8934 30.0313 20.3268L30.1948 19.7351Z" fill="black"/>
<path opacity="0.2" d="M38.0752 19.2137C38.1359 18.8109 38.1562 18.403 38.1357 17.9961C38.0932 17.4371 37.7598 16.213 37.7598 16.213C37.7598 16.213 38.5966 17.6414 38.5541 19.0781L38.0752 19.2137Z" fill="black"/>
<path opacity="0.2" d="M38.5555 22.0526C38.5555 22.0526 39.0458 22.0526 39.2942 22.3288C39.2337 22.1764 39.1257 22.0474 38.9861 21.9612C38.8466 21.8749 38.683 21.8359 38.5195 21.85L38.5555 22.0526Z" fill="black"/>
<path d="M15.6511 56.0103L15.1592 60.1976L16.6612 60.4051L18.24 56.4695L15.6511 56.0103Z" fill="#263238"/>
<path d="M17.8547 59.3804C17.8775 59.1238 17.8547 58.9113 17.5605 58.8901L17.1372 58.8672C16.9882 58.8856 16.8482 58.9483 16.7351 59.047C15.7643 59.6664 15.3655 58.8672 14.9896 58.8672C14.4993 58.8672 14.8163 60.2858 14.7935 60.361L14.2656 62.0068C14.2198 62.1441 14.313 62.4416 14.4731 62.4808C14.5021 62.4874 14.5317 62.4907 14.5614 62.4906H20.1641C21.0564 62.4906 21.0662 61.4887 20.6985 61.4185C19.0478 61.1063 18.3973 60.6111 17.853 60.2482C17.8331 59.9593 17.8337 59.6693 17.8547 59.3804Z" fill="#69C53E"/>
<path opacity="0.4" d="M20.1645 62.4971H14.5618C14.5321 62.4972 14.5025 62.4939 14.4735 62.4873C14.364 62.4595 14.2872 62.3157 14.2627 62.1817V62.0558H20.8771C20.8214 62.1962 20.7221 62.3149 20.5937 62.3943C20.4654 62.4738 20.3149 62.5099 20.1645 62.4971Z" fill="white"/>
<path d="M18.6348 60.7663C18.4926 60.8855 18.374 61.0302 18.285 61.1929C18.2772 61.2071 18.2753 61.2237 18.2796 61.2392C18.2838 61.2548 18.294 61.2681 18.3079 61.2763C18.3147 61.2804 18.3223 61.2831 18.3303 61.2843C18.3382 61.2854 18.3462 61.285 18.354 61.2831C18.3617 61.2811 18.369 61.2776 18.3754 61.2728C18.3818 61.268 18.3872 61.2619 18.3912 61.255C18.4732 61.1012 18.5842 60.9646 18.7181 60.853C18.729 60.8412 18.7351 60.8257 18.7351 60.8097C18.7351 60.7936 18.729 60.7781 18.7181 60.7663C18.7065 60.7551 18.691 60.7487 18.6748 60.7487C18.6586 60.7487 18.6431 60.7551 18.6315 60.7663H18.6348Z" fill="#263238"/>
<path d="M18.1255 60.4721C17.9968 60.5869 17.8866 60.7209 17.7987 60.8693C17.7929 60.8832 17.7924 60.8986 17.7972 60.9129C17.802 60.9271 17.8118 60.9391 17.8247 60.9467C17.8377 60.9542 17.8529 60.9569 17.8677 60.9541C17.8824 60.9513 17.8956 60.9432 17.9049 60.9314C17.9876 60.7912 18.0924 60.6654 18.2154 60.5588C18.2212 60.5531 18.2258 60.5464 18.229 60.539C18.2321 60.5315 18.2337 60.5235 18.2337 60.5155C18.2337 60.5074 18.2321 60.4994 18.229 60.4919C18.2258 60.4845 18.2212 60.4778 18.2154 60.4721C18.2037 60.4612 18.1882 60.4552 18.1721 60.4552C18.1561 60.4552 18.1406 60.4612 18.1288 60.4721H18.1255Z" fill="#263238"/>
<path d="M17.7651 60.2204C17.6339 60.2847 17.5263 60.3888 17.4579 60.5179C17.4501 60.532 17.4481 60.5487 17.4524 60.5642C17.4567 60.5798 17.4668 60.5931 17.4807 60.6013C17.4947 60.6092 17.5111 60.6114 17.5267 60.6074C17.5422 60.6034 17.5556 60.5936 17.5641 60.58C17.579 60.5516 17.596 60.5243 17.6147 60.4983C17.6147 60.4983 17.6246 60.4836 17.6147 60.4983V60.4885L17.6311 60.4705L17.6654 60.4345L17.7014 60.4019H17.7112C17.7112 60.4019 17.7275 60.3888 17.7324 60.3855C17.7601 60.3662 17.789 60.3487 17.819 60.3332C17.8259 60.3291 17.8319 60.3237 17.8367 60.3174C17.8415 60.311 17.845 60.3037 17.8469 60.2959C17.8489 60.2882 17.8493 60.2801 17.8482 60.2722C17.8471 60.2643 17.8444 60.2567 17.8403 60.2499C17.8362 60.243 17.8308 60.237 17.8244 60.2322C17.818 60.2274 17.8108 60.2239 17.803 60.222C17.7953 60.22 17.7872 60.2196 17.7793 60.2207C17.7714 60.2219 17.7638 60.2245 17.7569 60.2286L17.7651 60.2204Z" fill="#263238"/>
<path d="M17.7999 59.6893C17.6446 59.6904 17.4907 59.7192 17.3455 59.7743C17.33 59.7788 17.3168 59.7892 17.3086 59.8031C17.3004 59.8171 17.2978 59.8336 17.3014 59.8494C17.3063 59.865 17.317 59.8781 17.3313 59.886C17.3456 59.8939 17.3624 59.896 17.3782 59.8919C17.5132 59.8422 17.656 59.8173 17.7999 59.8184C17.816 59.818 17.8314 59.8112 17.8427 59.7996C17.854 59.788 17.8603 59.7725 17.8603 59.7563C17.8603 59.7402 17.854 59.7249 17.8426 59.7135C17.8313 59.7022 17.8159 59.6958 17.7999 59.6958V59.6893Z" fill="#263238"/>
<g opacity="0.3">
<path d="M16.2166 59.8756C16.2185 59.9513 16.2002 60.0261 16.1638 60.0924C16.1273 60.1587 16.0739 60.2142 16.009 60.2531C15.9155 60.2871 15.8156 60.3 15.7165 60.2907L14.8257 60.2662V60.258C14.78 59.8707 14.6541 58.926 15.0219 58.926C15.3128 58.926 15.6168 59.4686 16.2231 59.3101C16.2133 59.516 16.2231 59.7775 16.2166 59.8756Z" fill="black"/>
</g>
<path d="M20.2901 43.0055C20.0237 40.5849 16.6552 27.7338 16.6552 27.7338L12.3666 27.6292L5.76528 27.4428C5.76528 27.4428 5.37793 30.8898 5.37793 35.399C5.37793 35.399 5.70481 54.6586 5.95977 59.2431L9.5832 59.3836C9.9967 55.788 10.541 44.5434 10.541 44.5434C10.7894 42.507 11.0133 36.4973 11.1947 34.7812C11.2699 34.4004 11.3418 34.018 11.4121 33.6372C12.1165 35.4987 15.3477 43.4615 15.5961 44.6039L14.2706 59.7497L18.1703 59.601C18.1703 59.601 20.5581 45.4358 20.2901 43.0055Z" fill="#263238"/>
<path d="M14.3798 28.2323C14.5931 28.8577 14.9569 29.421 15.4391 29.8728C15.9213 30.3245 16.5072 30.6507 17.1452 30.8228C17.1591 30.8267 17.1708 30.8359 17.1779 30.8485C17.1849 30.861 17.1867 30.8759 17.1828 30.8898C17.1789 30.9036 17.1696 30.9154 17.1571 30.9224C17.1445 30.9295 17.1297 30.9313 17.1158 30.9274C16.4583 30.7514 15.8542 30.4161 15.3571 29.9511C14.8599 29.4862 14.485 28.906 14.2654 28.2617C14.2442 28.1947 14.3537 28.1669 14.3749 28.2323H14.3798Z" fill="black"/>
<path d="M11.0977 28.4137C11.175 29.4956 11.2518 30.5776 11.3281 31.6596C11.3281 31.7298 11.4458 31.7298 11.4425 31.6596C11.4017 31.1055 11.3624 30.5482 11.3232 29.9925C11.606 30.1984 11.9361 29.9484 12.0276 29.6738C12.155 29.2067 12.147 28.713 12.0047 28.2502C11.9851 28.1816 11.8756 28.211 11.8936 28.278C11.9783 28.5897 12.0098 28.9135 11.9868 29.2358C11.9861 29.4087 11.9494 29.5796 11.8789 29.7375C11.789 29.901 11.5602 30.0464 11.3771 29.901C11.3688 29.8942 11.3587 29.8899 11.348 29.8884C11.3374 29.887 11.3265 29.8885 11.3167 29.8928C11.2823 29.4025 11.2464 28.9122 11.2121 28.4218C11.2023 28.345 11.0977 28.345 11.0977 28.4137Z" fill="black"/>
<path d="M8.40481 28.2143C8.42115 29.6477 7.26074 30.8489 5.74729 30.9617C5.67538 30.9617 5.67538 30.8604 5.74729 30.8555C7.19373 30.7476 8.30674 29.5872 8.29203 28.2143C8.29203 28.1457 8.40317 28.1457 8.40481 28.2143Z" fill="black"/>
<path d="M8.95114 56.213L8.31373 60.5098L6.78721 60.5817L6.29199 56.4385L8.95114 56.213Z" fill="#263238"/>
<path d="M5.4862 62.5053H8.90206C8.90206 62.5053 8.97561 62.3746 8.89062 62.0232C8.87755 61.9692 8.8612 61.9088 8.83832 61.8434C8.83903 61.8402 8.83903 61.8368 8.83832 61.8336C8.80727 61.7372 8.76968 61.6178 8.73209 61.4887C8.56865 60.9641 8.46895 59.7579 8.46895 59.7579C8.46895 59.7579 7.82337 59.163 7.16144 59.4425C6.57797 59.686 6.67113 59.9965 6.67113 59.9965C6.67113 59.9965 6.66132 60.7958 6.2184 61.1586C5.94546 61.3825 5.67415 61.5557 5.5434 61.8336C5.51836 61.8858 5.49917 61.9406 5.4862 61.997V62.0183C5.45252 62.1789 5.45252 62.3447 5.4862 62.5053Z" fill="#69C53E"/>
<path d="M8.89026 62.0232C8.97525 62.3746 8.9017 62.5053 8.9017 62.5053H5.48583C5.44851 62.3472 5.44406 62.1831 5.47276 62.0232H8.89026Z" fill="white"/>
<path d="M6.84897 60.5621C6.94006 60.4963 7.05096 60.4639 7.16312 60.4701C7.27528 60.4764 7.3819 60.5209 7.46513 60.5964C7.51253 60.6389 7.58281 60.5735 7.53704 60.531C7.43372 60.4386 7.30165 60.3847 7.16316 60.3784C7.02468 60.3722 6.88828 60.4139 6.77705 60.4967C6.72639 60.5326 6.7983 60.598 6.84897 60.5621Z" fill="#263238"/>
<path d="M6.75033 60.8546C6.84143 60.7889 6.95233 60.7564 7.06449 60.7627C7.17665 60.7689 7.28326 60.8135 7.36649 60.8889C7.41389 60.9314 7.48417 60.866 7.43841 60.8235C7.33509 60.7311 7.20301 60.6772 7.06453 60.671C6.92604 60.6647 6.78965 60.7065 6.67842 60.7892C6.62775 60.8252 6.69966 60.8906 6.75033 60.8546Z" fill="#263238"/>
<path d="M6.65463 61.1259C6.74591 61.0604 6.85692 61.0282 6.96908 61.0348C7.08124 61.0413 7.18775 61.0862 7.27079 61.1618C7.31819 61.2027 7.38847 61.1373 7.34271 61.0965C7.23958 61.0038 7.10761 60.9496 6.96912 60.9431C6.83063 60.9365 6.69413 60.978 6.58272 61.0605C6.53205 61.0981 6.60396 61.1618 6.65463 61.1259Z" fill="#263238"/>
<path d="M16.621 26.7319C17.229 27.7305 17.229 28.5297 16.6488 28.7373C16.6488 28.7373 11.3812 29.6296 5.99426 29.0184C4.69656 29.0887 5.3307 27.8874 5.3307 27.8874L5.30292 11.2575C9.39705 10.388 14.3509 11.1921 15.3544 11.2575L16.621 26.7319Z" fill="#69C53E"/>
<path d="M3.77654 13.6715C3.77654 13.6715 2.10946 21.0573 1.95747 22.7555C1.80547 24.4536 1.77441 32.5618 1.77441 32.5618L3.54282 32.3902L4.53816 24.0009L6.53211 14.1145L3.77654 13.6715Z" fill="#B97964"/>
<path d="M3.41664 32.1548C3.41664 32.1548 3.9707 32.4996 4.09818 33.0472C4.22566 33.5947 4.46265 33.9935 4.53129 34.407C4.59994 34.8205 4.1848 34.4609 4.00175 34.2239C3.8187 33.9869 3.60623 33.7172 3.46077 33.897C3.31531 34.0768 2.92633 36.0397 2.69588 36.2587C2.46543 36.4777 2.43601 36.1378 2.43601 36.1378C2.43601 36.1378 2.32978 36.6117 2.14019 36.6199C2.09116 36.6199 1.97675 36.5398 1.98982 36.3159C2.02578 35.8109 2.15326 34.7535 2.15326 34.7535C2.15326 34.8156 1.89993 36.1067 1.83946 36.2947C1.75938 36.5415 1.60411 36.6216 1.47009 36.5611C1.2805 36.4843 1.53547 34.8728 1.50114 34.7959C1.50114 34.7959 1.38347 35.7292 1.13831 35.8305C0.893152 35.9318 0.938915 35.3402 1.06967 34.8237C1.19061 34.3514 1.31156 33.3936 1.4799 32.9262C1.68583 32.3509 1.9457 32.0142 2.48995 31.9766C2.80927 31.9511 3.12953 32.0127 3.41664 32.1548Z" fill="#B97964"/>
<path d="M5.30306 11.2575C5.30306 11.2575 4.00863 11.2575 3.51668 13.0096C2.99041 14.8793 1.71885 22.4612 1.5358 23.4484C1.35275 24.4356 1.48677 31.9685 1.48677 31.9685H3.87298C3.87298 31.9685 4.47933 24.2869 4.53817 24.0008C4.59701 23.7148 7.04859 14.0147 7.04859 14.0147L5.30306 11.2575Z" fill="#69C53E"/>
<path opacity="0.2" d="M5.31912 20.92V15.4268C5.31912 15.4268 4.51336 21.0638 4.91869 22.4629L5.31912 20.92Z" fill="black"/>
<path d="M15.1836 11.2575C15.1836 11.2575 16.7673 11.1987 17.4717 13.3267C18.2186 15.6017 19.8007 21.3221 19.8007 21.3221L24.7595 26.0912L23.8491 27.0719C23.8491 27.0719 20.0246 25.0648 18.2317 23.9453C16.4388 22.8257 15.2653 17.3244 15.3045 17.04C15.3438 16.7556 15.1836 11.2575 15.1836 11.2575Z" fill="#69C53E"/>
<path opacity="0.2" d="M16.5489 21.4528L16.0929 20.2793L15.5225 14.8859C15.5225 14.8859 16.8071 19.1663 16.5489 21.4528Z" fill="black"/>
<path d="M13.1042 3.85704C13.1042 3.85704 15.2779 2.63452 13.9884 1.32211C12.9702 0.285907 12.0696 0.436272 10.7098 0.684698C7.37404 1.29269 7.56853 2.68192 7.56853 2.68192L13.1042 3.85704Z" fill="#263238"/>
<path d="M8.85556 10.8555C8.85556 10.8555 9.03534 9.57574 8.28516 7.35788C8.28516 7.35788 8.4012 7.29905 8.4012 7.29578C8.29823 6.98524 8.19036 6.69923 8.08903 6.45243C8.08881 6.44917 8.08881 6.44589 8.08903 6.44263L11.2434 8.20776C11.2025 8.92853 11.5212 10.3063 11.6994 10.8849C11.6994 10.8849 12.1341 11.9293 10.7188 12.0371C9.69236 12.1156 8.85556 10.8555 8.85556 10.8555Z" fill="#B97964"/>
<path opacity="0.2" d="M11.3385 9.21454L9.55371 8.88766C9.73676 9.43028 10.2516 10.0612 11.4856 10.0595C11.4141 9.78223 11.3649 9.49967 11.3385 9.21454Z" fill="black"/>
<path d="M7.9926 4.95043C8.28515 6.89045 8.411 7.98876 9.48479 8.89421C11.0979 10.254 13.3861 9.17532 13.6754 7.19118C13.9401 5.39335 13.4188 2.52828 11.4395 1.9399C11.0016 1.80901 10.5377 1.79121 10.0911 1.88815C9.64451 1.98509 9.22973 2.19361 8.88552 2.49424C8.54131 2.79488 8.27888 3.17783 8.12274 3.60734C7.96659 4.03686 7.92182 4.49893 7.9926 4.95043Z" fill="#B97964"/>
<path d="M7.54321 2.6296C9.92451 0.341463 12.345 1.62282 13.2717 2.87966L9.12039 2.9287C8.93734 2.9287 8.83437 3.11502 8.87523 3.45987C8.87523 3.45987 10.3151 6.0422 8.32935 7.49027C7.62002 7.21896 7.4762 6.0373 7.19835 5.35085C6.78649 4.32936 6.26512 2.82409 7.54321 2.6296Z" fill="#263238"/>
<path d="M7.37155 6.64367C7.46593 6.86808 7.60397 7.07149 7.77764 7.24208C7.95132 7.41267 8.15717 7.54704 8.38324 7.63738C8.99123 7.876 9.1514 7.22061 9.03699 6.61098C8.93893 6.06346 8.71828 5.40317 8.07924 5.42605C7.44019 5.44894 7.14274 6.08635 7.37155 6.64367Z" fill="#B97964"/>
<path d="M10.618 5.22993C10.6343 5.42932 10.7552 5.58132 10.886 5.56824C11.0167 5.55517 11.1066 5.38356 11.0903 5.18416C11.0739 4.98477 10.9514 4.83277 10.8223 4.84585C10.6931 4.85892 10.6081 5.0338 10.618 5.22993Z" fill="#263238"/>
<path d="M12.6331 5.16782C12.6495 5.36722 12.7704 5.51922 12.9012 5.50614C13.0319 5.49307 13.1218 5.32146 13.1055 5.12206C13.0891 4.92267 12.9682 4.77067 12.8374 4.78374C12.7067 4.79682 12.6151 4.96843 12.6331 5.16782Z" fill="#263238"/>
<path d="M12.1523 5.07956C12.1523 5.07956 12.8698 6.01443 13.1085 6.40014C12.8535 6.67635 12.3648 6.60281 12.3648 6.60281L12.1523 5.07956Z" fill="#A24E3F"/>
<path d="M10.2676 4.37024C10.2834 4.3753 10.3002 4.376 10.3163 4.37226C10.3324 4.36851 10.3472 4.36048 10.3591 4.34899C10.4441 4.26528 10.5475 4.20272 10.6611 4.16638C10.7746 4.13004 10.8952 4.12093 11.0129 4.13979C11.0372 4.14574 11.0628 4.14186 11.0842 4.129C11.1057 4.11615 11.1211 4.09536 11.1273 4.07115C11.1305 4.05923 11.1312 4.04679 11.1294 4.03459C11.1276 4.02239 11.1234 4.01067 11.117 4.00014C11.1106 3.9896 11.1021 3.98048 11.0921 3.9733C11.0821 3.96612 11.0707 3.96105 11.0587 3.95837C10.912 3.93272 10.7613 3.94248 10.6192 3.98683C10.477 4.03117 10.3475 4.10883 10.2415 4.21334C10.2327 4.222 10.2258 4.23231 10.221 4.24367C10.2163 4.25503 10.2139 4.26722 10.2139 4.27953C10.2139 4.29184 10.2163 4.30403 10.221 4.31539C10.2258 4.32675 10.2327 4.33706 10.2415 4.34572C10.2487 4.35534 10.2576 4.36363 10.2676 4.37024Z" fill="#263238"/>
<path d="M11.6781 7.35462C11.3736 7.33935 11.0843 7.21725 10.8609 7.00976C10.8485 6.99927 10.8407 6.98432 10.8391 6.96812C10.8376 6.95192 10.8425 6.93577 10.8528 6.92314C10.863 6.91081 10.8776 6.90302 10.8936 6.90149C10.9095 6.89996 10.9254 6.90481 10.9377 6.91497C11.2434 7.16012 11.4869 7.25329 11.7549 7.22877C11.7629 7.22786 11.7709 7.22854 11.7786 7.23077C11.7863 7.233 11.7935 7.23673 11.7997 7.24174C11.8059 7.24676 11.8111 7.25296 11.8149 7.25999C11.8188 7.26703 11.8211 7.27474 11.8219 7.2827C11.8233 7.29893 11.8183 7.31504 11.8079 7.32757C11.7975 7.34011 11.7826 7.34806 11.7664 7.34971L11.6781 7.35462Z" fill="#263238"/>
<path opacity="0.2" d="M8.71211 6.61261C8.70263 6.6125 8.69346 6.60922 8.68606 6.6033C8.67865 6.59738 8.67344 6.58915 8.67125 6.57992C8.63873 6.41989 8.56492 6.27114 8.45715 6.14844C8.37397 6.0465 8.25878 5.97565 8.13027 5.94741C8.06813 5.93484 8.00364 5.94138 7.94529 5.96618C7.88694 5.99098 7.83747 6.03287 7.8034 6.08634C7.79745 6.09452 7.78867 6.1002 7.77878 6.10229C7.76888 6.10437 7.75856 6.10271 7.74982 6.09763C7.74107 6.09255 7.73452 6.0844 7.73144 6.07476C7.72835 6.06513 7.72895 6.0547 7.73312 6.04548C7.77488 5.97842 7.83592 5.92554 7.90824 5.89375C7.98057 5.86196 8.0608 5.85275 8.13845 5.86733C8.28738 5.89673 8.42144 5.97706 8.51762 6.09451C8.63428 6.22814 8.71425 6.38977 8.74971 6.56358C8.75166 6.57396 8.74952 6.5847 8.74373 6.59353C8.73794 6.60237 8.72895 6.60862 8.71865 6.61097L8.71211 6.61261Z" fill="black"/>
<path d="M13.5869 4.21496C13.6043 4.2099 13.6197 4.19963 13.631 4.18554C13.639 4.17604 13.6449 4.16505 13.6486 4.15321C13.6522 4.14137 13.6535 4.12893 13.6523 4.1166C13.6511 4.10427 13.6474 4.09231 13.6415 4.08142C13.6356 4.07052 13.6276 4.06091 13.6179 4.05315C13.5058 3.95624 13.3719 3.88781 13.2276 3.85367C13.0834 3.81953 12.933 3.82068 12.7893 3.85702C12.7658 3.86523 12.7463 3.88224 12.735 3.90449C12.7238 3.92674 12.7215 3.95249 12.7288 3.97634C12.7364 3.99964 12.7527 4.01906 12.7745 4.03037C12.7962 4.04169 12.8215 4.044 12.8449 4.03681C12.9589 4.00844 13.0781 4.0085 13.1921 4.037C13.3061 4.0655 13.4114 4.12155 13.4986 4.20025C13.5107 4.21034 13.5252 4.21703 13.5408 4.21961C13.5563 4.2222 13.5722 4.22059 13.5869 4.21496Z" fill="#263238"/>
<path opacity="0.3" d="M6.90431 4.54184L9.28724 4.60067C9.22523 4.32535 9.13994 4.0558 9.03228 3.79492H6.74414C6.76971 4.04906 6.82342 4.29956 6.90431 4.54184Z" fill="white"/>
<g opacity="0.2">
<path d="M10.7495 6.51782C10.6641 6.61163 10.5981 6.72149 10.5555 6.84101C10.5128 6.96054 10.4943 7.08735 10.5011 7.21407C10.4337 7.08801 10.4112 6.94275 10.4374 6.80221C10.488 6.58974 10.7495 6.51782 10.7495 6.51782Z" fill="black"/>
</g>
<path d="M11.4089 9.83399L12.5334 10.8457L10.6555 13.1224L7.94238 10.8359L8.7465 9.65421L10.443 11.0696L11.4089 9.83399Z" fill="#69C53E"/>
<path opacity="0.8" d="M11.4089 9.83399L12.5334 10.8457L10.6555 13.1224L7.94238 10.8359L8.7465 9.65421L10.443 11.0696L11.4089 9.83399Z" fill="white"/>
<path d="M39.7124 51.7151V44.5908C39.7124 42.4661 40.2256 39.4327 37.9064 38.3802C37.1955 38.0533 36.3913 38.0974 35.6183 38.1089C35.6075 37.8822 35.5107 37.6681 35.3477 37.5102C35.1846 37.3523 34.9676 37.2625 34.7406 37.259H26.5458C26.3183 37.2625 26.1008 37.3528 25.9376 37.5114C25.7745 37.67 25.6781 37.8848 25.6681 38.1121H23.6023L23.2264 34.3988C23.1185 33.3267 23.0809 32.2153 22.8897 31.1529C22.7626 30.4338 22.3908 29.7807 21.8375 29.3041C21.2841 28.8276 20.583 28.5569 19.853 28.5379H19.7876C19.7433 28.4856 19.6879 28.4438 19.6254 28.4155C19.5629 28.3873 19.495 28.3732 19.4264 28.3745H15.919C15.2653 28.3745 15.2653 29.4303 15.919 29.4303H19.433C19.5552 29.4312 19.6727 29.3836 19.7598 29.2979C20.662 29.3698 21.4841 29.6362 21.9728 30.625C22.1983 31.0859 22.2278 31.5697 22.2768 32.0649L22.4942 34.1275L23.2247 41.3809C18.9868 42.1981 15.7409 46.5243 15.7409 51.7609C15.7409 57.5597 19.7402 62.2782 24.663 62.2782C29.4763 62.2782 33.4086 57.7509 33.572 52.1303H37.2265C37.7649 52.0989 38.3051 52.1191 38.8396 52.1907C38.8985 52.2022 38.9557 52.2136 39.0113 52.2283V56.7131C38.6133 56.4214 38.1334 56.263 37.64 56.2604C36.2017 56.2604 35.025 57.6104 35.025 59.2725C35.025 60.9347 36.1952 62.2831 37.64 62.2831C39.0848 62.2831 40.255 60.9331 40.255 59.2725C40.2591 58.6296 40.0751 57.9996 39.7255 57.46V51.7069L39.7124 51.7151ZM37.6286 61.0164C36.8637 61.0164 36.241 60.2352 36.241 59.2742C36.241 58.3131 36.8637 57.5303 37.6286 57.5303C37.8865 57.5441 38.1353 57.6308 38.3459 57.7804C38.5565 57.9299 38.7204 58.1362 38.8184 58.3752C38.6337 58.8525 38.2643 59.1924 37.5338 59.2366C37.0778 59.2594 37.0745 59.9998 37.5338 59.9753C38.0931 59.9626 38.6251 59.7314 39.0162 59.3314C38.99 60.2581 38.3804 61.0164 37.6286 61.0164ZM24.6499 61.0164C20.4005 61.0164 16.9552 56.8683 16.9552 51.7674C16.9552 47.2026 19.7337 43.3994 23.3473 42.6525C23.3653 42.8371 23.3849 43.0235 23.4029 43.2081C19.9494 43.9126 17.3083 47.4804 17.3083 51.7674C17.3083 56.5578 20.5999 60.4558 24.6434 60.4558C28.5855 60.4558 31.8085 56.7523 31.9801 52.1368H32.3446C32.1812 57.0661 28.7914 61.0164 24.6499 61.0164ZM31.9867 51.3981C31.8232 46.7776 28.597 43.079 24.6499 43.079C24.4685 43.079 24.2854 43.0888 24.1057 43.1052L24.0501 42.5479C24.2479 42.5299 24.4456 42.5168 24.645 42.5168C28.7865 42.5168 32.1779 46.4671 32.3266 51.3981H31.9867ZM23.8147 47.2075C23.9161 48.2208 23.9782 49.2521 24.1253 50.2573C24.4374 52.3672 26.4608 52.1368 27.9906 52.1368H31.4375C31.2741 56.4581 28.2946 59.892 24.6499 59.892C20.9055 59.892 17.8574 56.2473 17.8574 51.7674C17.8574 47.7746 20.2812 44.4454 23.4601 43.7704L23.8082 47.2026L23.8147 47.2075ZM30.0091 51.3981H27.2143C26.7534 51.3981 26.1764 51.4781 25.7302 51.3196C24.5175 50.8898 24.6728 48.7275 24.5649 47.6667L24.1727 43.6658C24.3361 43.6527 24.4996 43.6429 24.663 43.6429C28.306 43.6429 31.2872 47.0882 31.449 51.3981H30.0091ZM38.1728 51.3981C37.6515 51.3866 37.1284 51.3981 36.6071 51.3981H33.5606C33.3971 45.7676 29.4648 41.2485 24.6499 41.2485C24.4064 41.2485 24.1596 41.2632 23.9226 41.2861C23.8398 40.4722 23.757 39.6588 23.6742 38.846H25.9509C26.1107 39 26.3239 39.0861 26.5458 39.0862H34.7439C34.966 39.0855 35.1792 38.9988 35.3388 38.8443H36.4943C37.8819 38.8443 38.959 39.8103 38.9982 41.2959C39.0178 41.9971 38.9982 42.7031 38.9982 43.4043V51.4896C38.7219 51.4311 38.4405 51.3993 38.1581 51.3948L38.1728 51.3981Z" fill="#69C53E"/>
<path opacity="0.4" d="M39.7124 51.7151V44.5908C39.7124 42.4661 40.2256 39.4327 37.9064 38.3802C37.1955 38.0533 36.3913 38.0974 35.6183 38.1089C35.6075 37.8822 35.5107 37.6681 35.3477 37.5102C35.1846 37.3523 34.9676 37.2625 34.7406 37.259H26.5458C26.3183 37.2625 26.1008 37.3528 25.9376 37.5114C25.7745 37.67 25.6781 37.8848 25.6681 38.1121H23.6023L23.2264 34.3988C23.1185 33.3267 23.0809 32.2153 22.8897 31.1529C22.7626 30.4338 22.3908 29.7807 21.8375 29.3041C21.2841 28.8276 20.583 28.5569 19.853 28.5379H19.7876C19.7433 28.4856 19.6879 28.4438 19.6254 28.4155C19.5629 28.3873 19.495 28.3732 19.4264 28.3745H15.919C15.2653 28.3745 15.2653 29.4303 15.919 29.4303H19.433C19.5552 29.4312 19.6727 29.3836 19.7598 29.2979C20.662 29.3698 21.4841 29.6362 21.9728 30.625C22.1983 31.0859 22.2278 31.5697 22.2768 32.0649L22.4942 34.1275L23.2247 41.3809C18.9868 42.1981 15.7409 46.5243 15.7409 51.7609C15.7409 57.5597 19.7402 62.2782 24.663 62.2782C29.4763 62.2782 33.4086 57.7509 33.572 52.1303H37.2265C37.7649 52.0989 38.3051 52.1191 38.8396 52.1907C38.8985 52.2022 38.9557 52.2136 39.0113 52.2283V56.7131C38.6133 56.4214 38.1334 56.263 37.64 56.2604C36.2017 56.2604 35.025 57.6104 35.025 59.2725C35.025 60.9347 36.1952 62.2831 37.64 62.2831C39.0848 62.2831 40.255 60.9331 40.255 59.2725C40.2591 58.6296 40.0751 57.9996 39.7255 57.46V51.7069L39.7124 51.7151ZM37.6286 61.0164C36.8637 61.0164 36.241 60.2352 36.241 59.2742C36.241 58.3131 36.8637 57.5303 37.6286 57.5303C37.8865 57.5441 38.1353 57.6308 38.3459 57.7804C38.5565 57.9299 38.7204 58.1362 38.8184 58.3752C38.6337 58.8525 38.2643 59.1924 37.5338 59.2366C37.0778 59.2594 37.0745 59.9998 37.5338 59.9753C38.0931 59.9626 38.6251 59.7314 39.0162 59.3314C38.99 60.2581 38.3804 61.0164 37.6286 61.0164ZM24.6499 61.0164C20.4005 61.0164 16.9552 56.8683 16.9552 51.7674C16.9552 47.2026 19.7337 43.3994 23.3473 42.6525C23.3653 42.8371 23.3849 43.0235 23.4029 43.2081C19.9494 43.9126 17.3083 47.4804 17.3083 51.7674C17.3083 56.5578 20.5999 60.4558 24.6434 60.4558C28.5855 60.4558 31.8085 56.7523 31.9801 52.1368H32.3446C32.1812 57.0661 28.7914 61.0164 24.6499 61.0164ZM31.9867 51.3981C31.8232 46.7776 28.597 43.079 24.6499 43.079C24.4685 43.079 24.2854 43.0888 24.1057 43.1052L24.0501 42.5479C24.2479 42.5299 24.4456 42.5168 24.645 42.5168C28.7865 42.5168 32.1779 46.4671 32.3266 51.3981H31.9867ZM23.8147 47.2075C23.9161 48.2208 23.9782 49.2521 24.1253 50.2573C24.4374 52.3672 26.4608 52.1368 27.9906 52.1368H31.4375C31.2741 56.4581 28.2946 59.892 24.6499 59.892C20.9055 59.892 17.8574 56.2473 17.8574 51.7674C17.8574 47.7746 20.2812 44.4454 23.4601 43.7704L23.8082 47.2026L23.8147 47.2075ZM30.0091 51.3981H27.2143C26.7534 51.3981 26.1764 51.4781 25.7302 51.3196C24.5175 50.8898 24.6728 48.7275 24.5649 47.6667L24.1727 43.6658C24.3361 43.6527 24.4996 43.6429 24.663 43.6429C28.306 43.6429 31.2872 47.0882 31.449 51.3981H30.0091ZM38.1728 51.3981C37.6515 51.3866 37.1284 51.3981 36.6071 51.3981H33.5606C33.3971 45.7676 29.4648 41.2485 24.6499 41.2485C24.4064 41.2485 24.1596 41.2632 23.9226 41.2861C23.8398 40.4722 23.757 39.6588 23.6742 38.846H25.9509C26.1107 39 26.3239 39.0861 26.5458 39.0862H34.7439C34.966 39.0855 35.1792 38.9988 35.3388 38.8443H36.4943C37.8819 38.8443 38.959 39.8103 38.9982 41.2959C39.0178 41.9971 38.9982 42.7031 38.9982 43.4043V51.4896C38.7219 51.4311 38.4405 51.3993 38.1581 51.3948L38.1728 51.3981Z" fill="black"/>
<path d="M25.376 26.5211C25.376 26.5211 26.6671 26.7074 27.2457 27.7779C27.9273 29.038 29.4636 31.1987 29.4636 31.1987L31.111 28.4284L32.9007 29.1034C32.9007 29.1034 30.9983 32.9393 30.6125 33.6535C30.1353 34.5197 29.001 34.1765 28.5875 33.9019C27.6184 33.2482 26.6263 32.1466 26.6263 32.1466L25.376 26.5211Z" fill="#69C53E"/>
<path opacity="0.5" d="M25.376 26.5211C25.376 26.5211 26.6671 26.7074 27.2457 27.7779C27.9273 29.038 29.4636 31.1987 29.4636 31.1987L31.111 28.4284L32.9007 29.1034C32.9007 29.1034 30.9983 32.9393 30.6125 33.6535C30.1353 34.5197 29.001 34.1765 28.5875 33.9019C27.6184 33.2482 26.6263 32.1466 26.6263 32.1466L25.376 26.5211Z" fill="white"/>
<path d="M38.609 44.9929H16.079C15.6972 44.9929 15.3877 45.3024 15.3877 45.6842V45.9637C15.3877 46.3455 15.6972 46.6551 16.079 46.6551H38.609C38.9909 46.6551 39.3004 46.3455 39.3004 45.9637V45.6842C39.3004 45.3024 38.9909 44.9929 38.609 44.9929Z" fill="#69C53E"/>
<path d="M15.2686 38.1579H23.6922L23.1316 32.6402H14.708L15.2686 38.1579Z" fill="#69C53E"/>
<path d="M40.608 43.2719C40.0311 40.701 38.6615 40.0195 37.6057 39.6762C34.7815 38.7348 27.9317 38.099 27.9317 38.099L27.3744 37.3407L19.3545 36.8112C19.3545 36.8112 19.7108 42.0003 24.3524 44.1659C25.0363 44.4671 25.7533 44.6866 26.4886 44.8196C29.8242 45.4531 33.2417 45.5293 36.6022 45.0452L39.5065 55.9073L42.9681 54.9643L40.608 43.2719Z" fill="#263238"/>
<path d="M42.5577 55.064C42.543 54.8286 42.5005 54.639 42.2504 54.6603L41.8958 54.6913C41.7729 54.7277 41.6644 54.8014 41.5853 54.9022C40.8596 55.5804 40.4248 54.9022 40.1143 54.9496C39.7139 55.0084 40.1584 56.2571 40.1486 56.3257L39.9264 57.88C39.9051 58.0108 40.0211 58.2674 40.1601 58.2837C40.185 58.287 40.2103 58.287 40.2352 58.2837L42.1736 58.0026L44.89 57.6087C45.6304 57.5009 45.5061 56.5938 45.1923 56.5742C43.7802 56.4892 43.1739 56.1198 42.6754 55.8567C42.6191 55.5952 42.5798 55.3305 42.5577 55.064Z" fill="#69C53E"/>
<path opacity="0.4" d="M44.8874 57.6071L42.1711 58.001L40.2327 58.2821C40.2078 58.2853 40.1825 58.2853 40.1575 58.2821C40.0644 58.2706 39.981 58.1497 39.9434 58.0304L39.9287 57.9176L45.4202 57.1217C45.3973 57.25 45.3326 57.3671 45.2363 57.4549C45.1399 57.5427 45.0173 57.5962 44.8874 57.6071Z" fill="white"/>
<path d="M43.3845 56.2228C43.2772 56.3548 43.1953 56.5055 43.1426 56.6673C43.1386 56.6829 43.1407 56.6995 43.1487 56.7135C43.1566 56.7275 43.1697 56.7379 43.1851 56.7425C43.2007 56.7461 43.2171 56.7438 43.231 56.7359C43.2449 56.728 43.2554 56.7152 43.2603 56.7C43.3072 56.5585 43.3786 56.4263 43.4711 56.3094C43.4824 56.2978 43.4887 56.2822 43.4887 56.2661C43.4887 56.2499 43.4824 56.2343 43.4711 56.2228C43.4593 56.2118 43.4439 56.2058 43.4278 56.2058C43.4118 56.2058 43.3963 56.2118 43.3845 56.2228Z" fill="#263238"/>
<path d="M42.919 56.0168C42.8216 56.1421 42.7439 56.2816 42.6886 56.4303C42.6845 56.4461 42.6866 56.4629 42.6945 56.4772C42.7024 56.4915 42.7155 56.5022 42.7311 56.5071C42.7469 56.5107 42.7634 56.5081 42.7774 56.4999C42.7913 56.4918 42.8017 56.4785 42.8062 56.463C42.855 56.3338 42.9228 56.2127 43.0073 56.1035C43.0182 56.0917 43.0243 56.0762 43.0243 56.0601C43.0243 56.0441 43.0182 56.0286 43.0073 56.0168C42.9952 56.0058 42.9795 55.9997 42.9631 55.9997C42.9468 55.9997 42.9311 56.0058 42.919 56.0168Z" fill="#263238"/>
<path d="M42.596 55.8256C42.487 55.9075 42.4069 56.022 42.3672 56.1525C42.3632 56.1681 42.3653 56.1846 42.3733 56.1987C42.3812 56.2127 42.3943 56.2231 42.4097 56.2276C42.4257 56.2313 42.4425 56.2288 42.4567 56.2206C42.471 56.2124 42.4816 56.1992 42.4865 56.1835C42.4902 56.1702 42.4945 56.1571 42.4996 56.1443V56.1361L42.5094 56.1165C42.522 56.0908 42.5367 56.0661 42.5535 56.043C42.5568 56.0371 42.5606 56.0317 42.565 56.0266L42.5944 55.9939L42.6238 55.9661L42.6402 55.9498C42.6287 55.9498 42.6516 55.94 42.6402 55.9498C42.6533 55.9414 42.6632 55.9287 42.668 55.9138C42.6712 55.9064 42.6728 55.8983 42.6728 55.8901C42.6728 55.882 42.6712 55.8739 42.668 55.8665C42.6598 55.8526 42.6465 55.8424 42.6309 55.8381C42.6154 55.8339 42.5987 55.8358 42.5846 55.8436L42.596 55.8256Z" fill="#263238"/>
<path d="M42.5418 55.3467C42.4118 55.3674 42.287 55.4129 42.1741 55.4808C42.1602 55.489 42.15 55.5022 42.1458 55.5178C42.1415 55.5334 42.1434 55.55 42.1512 55.5641C42.16 55.5778 42.1736 55.5878 42.1893 55.592C42.205 55.5962 42.2217 55.5944 42.2362 55.587C42.3395 55.5237 42.4546 55.482 42.5745 55.4644C42.5823 55.4623 42.5896 55.4587 42.5959 55.4538C42.6023 55.4489 42.6076 55.4427 42.6115 55.4357C42.6155 55.4287 42.618 55.421 42.619 55.413C42.6199 55.405 42.6192 55.397 42.617 55.3892C42.6121 55.374 42.6016 55.3612 42.5877 55.3533C42.5738 55.3454 42.5574 55.3431 42.5418 55.3467Z" fill="#263238"/>
<g opacity="0.3">
<path d="M41.1917 55.672C41.2041 55.7384 41.1994 55.8069 41.1779 55.8709C41.1565 55.935 41.119 55.9925 41.0691 56.0381C40.9973 56.0808 40.9157 56.1044 40.8322 56.1067L40.0885 56.1933C39.9986 55.8485 39.7616 55.0068 40.0754 54.9626C40.3173 54.9283 40.6409 55.3827 41.1247 55.1653C41.1427 55.3451 41.1836 55.5821 41.1917 55.672Z" fill="black"/>
</g>
<path opacity="0.3" d="M33.0787 40.0113C35.9013 40.786 35.7297 42.4628 36.6041 44.9945C36.6041 44.9945 32.8744 45.627 27.883 44.9945L26.9023 42.8453L28.4713 39.1434C29.6171 39.1385 31.2727 39.552 33.0787 40.0113Z" fill="black"/>
<path d="M37.3054 55.368C37.2907 55.1343 37.2482 54.943 36.9982 54.9659L36.6435 54.997C36.5203 55.0327 36.4117 55.1065 36.333 55.2078C35.6073 55.8861 35.1726 55.2078 34.862 55.2552C34.46 55.314 34.9061 56.5627 34.8963 56.6314L34.6692 58.184C34.6496 58.3131 34.7656 58.5714 34.9045 58.5877C34.9289 58.591 34.9537 58.591 34.9781 58.5877L36.9213 58.3066L39.6377 57.9127C40.3764 57.8048 40.2539 56.8978 39.9401 56.8781C38.5279 56.7932 37.9216 56.4238 37.4231 56.1606C37.3669 55.8992 37.3275 55.6345 37.3054 55.368Z" fill="#69C53E"/>
<path opacity="0.4" d="M39.6342 57.9127L36.9211 58.3066L34.9811 58.5877C34.9567 58.591 34.9319 58.591 34.9075 58.5877C34.8127 58.5763 34.731 58.4537 34.6934 58.336L34.6787 58.2216L40.1735 57.4257C40.1506 57.5553 40.0851 57.6735 39.9874 57.7617C39.8897 57.85 39.7654 57.9031 39.6342 57.9127Z" fill="white"/>
<path d="M38.1326 56.5202C38.0257 56.6519 37.9437 56.802 37.8907 56.9631C37.8866 56.9789 37.8887 56.9957 37.8966 57.01C37.9045 57.0243 37.9176 57.035 37.9332 57.0399C37.949 57.0439 37.9658 57.0415 37.9799 57.0333C37.9939 57.025 38.0042 57.0116 38.0084 56.9958C38.055 56.8546 38.1264 56.7229 38.2192 56.6068C38.2307 56.5953 38.2372 56.5798 38.2372 56.5635C38.2372 56.5473 38.2307 56.5317 38.2192 56.5202C38.2077 56.5087 38.1922 56.5023 38.1759 56.5023C38.1597 56.5023 38.1441 56.5087 38.1326 56.5202Z" fill="#263238"/>
<path d="M37.6664 56.3225C37.5686 56.4475 37.4909 56.587 37.436 56.736C37.4337 56.7437 37.4331 56.7518 37.434 56.7598C37.4349 56.7678 37.4375 56.7755 37.4414 56.7825C37.4454 56.7895 37.4507 56.7956 37.457 56.8005C37.4634 56.8055 37.4707 56.8091 37.4785 56.8111C37.4941 56.8152 37.5106 56.813 37.5246 56.8051C37.5387 56.7972 37.5491 56.7841 37.5536 56.7686C37.6025 56.6398 37.6696 56.5187 37.753 56.4091C37.7643 56.3975 37.7706 56.3819 37.7706 56.3658C37.7706 56.3496 37.7643 56.334 37.753 56.3225C37.7412 56.3115 37.7258 56.3055 37.7097 56.3055C37.6937 56.3055 37.6782 56.3115 37.6664 56.3225Z" fill="#263238"/>
<path d="M37.3424 56.1312C37.2339 56.2137 37.1539 56.328 37.1136 56.4581C37.1114 56.4658 37.1108 56.4739 37.1118 56.4819C37.1128 56.4898 37.1153 56.4975 37.1192 56.5045C37.1232 56.5115 37.1285 56.5176 37.1348 56.5225C37.1411 56.5275 37.1483 56.5311 37.1561 56.5333C37.1638 56.5354 37.1719 56.536 37.1798 56.5351C37.1878 56.5341 37.1955 56.5316 37.2024 56.5276C37.2094 56.5237 37.2156 56.5184 37.2205 56.5121C37.2254 56.5057 37.2291 56.4985 37.2312 56.4908L37.2459 56.4499V56.4418L37.2557 56.4238C37.2673 56.3979 37.2816 56.3732 37.2982 56.3502L37.3113 56.3339C37.3113 56.3339 37.3113 56.3339 37.3113 56.3241L37.3407 56.293L37.3702 56.2636L37.3865 56.2489H37.3947C37.3832 56.2489 37.4061 56.2391 37.3947 56.2489C37.4082 56.2402 37.4181 56.2268 37.4225 56.2113C37.4283 56.1966 37.4283 56.1802 37.4225 56.1655C37.4185 56.1585 37.4133 56.1523 37.4069 56.1473C37.4006 56.1424 37.3934 56.1387 37.3856 56.1366C37.3778 56.1344 37.3697 56.1339 37.3617 56.1349C37.3537 56.136 37.3461 56.1386 37.3391 56.1427L37.3424 56.1312Z" fill="#263238"/>
<path d="M37.2889 55.6524C37.1586 55.6719 37.0335 55.7174 36.9212 55.7864C36.9073 55.7946 36.8971 55.8079 36.8928 55.8234C36.8886 55.839 36.8905 55.8556 36.8983 55.8697C36.907 55.8835 36.9207 55.8933 36.9365 55.8973C36.9523 55.9012 36.9691 55.899 36.9833 55.891C37.0346 55.8597 37.0895 55.8344 37.1467 55.8158C37.205 55.7946 37.2652 55.7793 37.3265 55.77C37.3343 55.768 37.3415 55.7644 37.3479 55.7594C37.3543 55.7545 37.3596 55.7484 37.3635 55.7414C37.3675 55.7344 37.37 55.7266 37.3709 55.7187C37.3719 55.7107 37.3712 55.7026 37.369 55.6948C37.3644 55.6794 37.354 55.6663 37.34 55.6584C37.326 55.6505 37.3094 55.6483 37.2938 55.6524H37.2889Z" fill="#263238"/>
<g opacity="0.3">
<path d="M35.9407 55.976C35.9535 56.0424 35.9489 56.1109 35.9274 56.1751C35.9059 56.2392 35.8683 56.2967 35.8182 56.3421C35.7465 56.3853 35.6649 56.4095 35.5812 56.4123L34.8359 56.499C34.746 56.1525 34.5172 55.3124 34.8228 55.2683C35.0647 55.2323 35.3883 55.6883 35.8721 55.4709C35.8901 55.6507 35.9309 55.8861 35.9407 55.976Z" fill="black"/>
</g>
<path d="M18.1784 39.0355C18.1784 39.0355 18.0493 44.4601 21.4341 44.7722C25.6737 45.1629 30.9789 44.9962 30.9789 44.9962L34.1169 55.8452L37.6913 55.1914C37.6913 55.1914 36.5047 42.5822 33.8342 40.7124C33.1134 40.2074 25.8159 38.4946 25.8159 38.4946L18.1784 39.0355Z" fill="#263238"/>
<path d="M22.4393 22.5724C21.7562 21.4545 21.2021 20.683 21.31 19.3772L20.4928 18.2053C19.8897 17.7379 18.8895 18.1726 18.4972 18.645C18.1194 19.1351 17.923 19.7409 17.9415 20.3594C17.9415 20.871 18.0494 21.3793 18.0412 21.8909C18.033 22.4024 17.8876 22.9499 17.4888 23.2703C17.2175 23.4893 16.835 23.6086 16.7027 23.9322C16.5866 24.2231 16.737 24.5533 16.9347 24.7952C17.2667 25.179 17.716 25.4426 18.213 25.5451C18.71 25.6477 19.227 25.5834 19.6838 25.3623C19.5596 25.6532 19.7737 26.0046 20.0679 26.1206C20.3728 26.2168 20.7029 26.1934 20.9913 26.0553C21.5306 25.8395 22.2988 25.2773 22.4622 24.7232C22.6861 24.0564 22.9395 23.3929 22.4393 22.5724Z" fill="#263238"/>
<path d="M23.3752 28.0508C23.0369 28.3042 22.7868 28.162 22.4256 27.9413C20.2502 26.7466 21.1099 25.7398 21.1099 25.7398C21.6297 25.2969 21.7457 24.6856 21.7343 23.723C21.7358 23.6956 21.7391 23.6683 21.7441 23.6413C21.7644 23.5184 21.8214 23.4044 21.9075 23.3144C21.964 23.2545 22.0318 23.2064 22.1069 23.1728C22.182 23.1392 22.2631 23.1207 22.3453 23.1184C22.4276 23.1161 22.5095 23.1301 22.5864 23.1595C22.6633 23.1889 22.7336 23.2332 22.7933 23.2899L23.774 23.7491V23.7949C23.6955 24.3081 23.6105 24.7036 23.5713 25.0158C23.5693 25.0543 23.5638 25.0926 23.555 25.1302C23.5548 25.1692 23.5504 25.2081 23.5419 25.2462C23.4994 25.6794 23.5533 25.9229 23.8263 26.119C24.0093 26.2465 24.5209 27.1977 23.3752 28.0508Z" fill="#B97964"/>
<path opacity="0.2" d="M23.7873 23.7426C23.784 23.7582 23.784 23.7744 23.7873 23.79C23.7089 24.3032 23.6239 24.6987 23.5847 25.0109C23.5768 25.0486 23.5714 25.0869 23.5683 25.1253C23.5659 25.1656 23.5659 25.206 23.5683 25.2462C22.8192 24.9074 22.1918 24.3473 21.7705 23.6413C21.7923 23.5188 21.849 23.4053 21.9339 23.3144C22.047 23.1927 22.2035 23.1207 22.3695 23.1139C22.5354 23.1072 22.6973 23.1663 22.8198 23.2784L23.7873 23.7426Z" fill="black"/>
<path opacity="0.2" d="M27.201 30.6185C27.1013 29.4352 26.3838 28.3418 26.3838 28.3418C26.5755 28.7209 26.7267 29.1191 26.8349 29.53C27.0914 30.4027 25.998 32.2381 25.998 32.2381L26.7319 32.2627C27.0686 31.707 27.2598 31.3196 27.201 30.6185Z" fill="black"/>
<path d="M19.0903 35.3271L18.9432 38.2543L27.6299 37.4486C27.3848 36.8259 26.4417 34.2288 26.4466 33.6176C26.5888 32.8429 26.7964 32.0257 27.0007 31.0859C27.2213 29.5659 25.6638 26.5096 25.4284 26.3985C24.8856 26.1776 24.3215 26.0133 23.745 25.9082C22.876 25.823 22.0031 25.7842 21.13 25.7921C20.9665 25.7921 20.7933 25.7921 20.6266 25.7921C20.6266 25.7921 17.366 25.9556 17.3987 27.2892C17.3921 27.3628 18.9219 31.0892 19.0903 35.3271Z" fill="#69C53E"/>
<path opacity="0.5" d="M19.0903 35.3271L18.9432 38.2543L27.6299 37.4486C27.3848 36.8259 26.4417 34.2288 26.4466 33.6176C26.5888 32.8429 26.7964 32.0257 27.0007 31.0859C27.2213 29.5659 25.6638 26.5096 25.4284 26.3985C24.8856 26.1776 24.3215 26.0133 23.745 25.9082C22.876 25.823 22.0031 25.7842 21.13 25.7921C20.9665 25.7921 20.7933 25.7921 20.6266 25.7921C20.6266 25.7921 17.366 25.9556 17.3987 27.2892C17.3921 27.3628 18.9219 31.0892 19.0903 35.3271Z" fill="white"/>
<path d="M20.7686 25.7693C20.9024 26.1801 21.1397 26.5496 21.4578 26.8422C21.7758 27.1347 22.1638 27.3405 22.5844 27.4396C22.7861 27.4943 22.9988 27.4943 23.2005 27.4396C23.4272 27.3665 23.6285 27.2305 23.7807 27.0473C24.0226 26.6714 23.9147 26.0308 23.9098 25.9654C22.8213 25.6418 21.862 25.5421 20.7686 25.7693Z" fill="#B97964"/>
<path opacity="0.2" d="M18.9863 37.3489L21.0587 37.8081H21.9299L22.1145 37.3342L19.0305 36.6837L18.9863 37.3489Z" fill="black"/>
<path opacity="0.2" d="M18.6455 31.7151L19.0002 30.0121C18.9855 30.084 19.1407 32.5144 18.8694 32.9981L18.6455 31.7151Z" fill="black"/>
<path d="M18.3122 26.2988C18.3122 26.2988 17.5914 26.3887 16.7677 27.8139C15.9439 29.2391 14.9404 34.4773 15.5452 35.6409C16.1499 36.8046 21.9568 37.7428 21.9568 37.7428L22.774 35.6409L18.1978 33.866L19.0852 29.6019L18.3122 26.2988Z" fill="#69C53E"/>
<path opacity="0.5" d="M18.3122 26.2988C18.3122 26.2988 17.5914 26.3887 16.7677 27.8139C15.9439 29.2391 14.9404 34.4773 15.5452 35.6409C16.1499 36.8046 21.9568 37.7428 21.9568 37.7428L22.774 35.6409L18.1978 33.866L19.0852 29.6019L18.3122 26.2988Z" fill="white"/>
<path d="M20.8765 19.5046C20.8348 19.295 20.7802 19.0881 20.713 18.8852C20.6478 18.6809 20.6524 18.4607 20.7261 18.2592L20.6771 18.2887C20.5029 18.3174 20.338 18.3871 20.1959 18.4919C20.0539 18.5967 19.9387 18.7338 19.8599 18.8918C19.7392 19.0954 19.6823 19.3305 19.6965 19.5668C19.7052 19.6846 19.7413 19.7987 19.8017 19.9003C19.8621 20.0018 19.9452 20.0879 20.0446 20.1519C20.1457 20.2122 20.2631 20.2393 20.3804 20.2293C20.4977 20.2194 20.6089 20.1728 20.6983 20.0963C20.7711 20.0178 20.825 19.9236 20.8559 19.8211C20.8868 19.7186 20.8938 19.6103 20.8765 19.5046Z" fill="#69C53E"/>
<path d="M20.8517 20.1028C20.8697 21.9562 20.8386 22.7375 21.7098 23.7802C23.0173 25.3459 25.2548 25.037 25.781 23.2441C26.255 21.631 26.1439 18.8721 24.4016 17.9536C22.6855 17.0449 20.8321 18.2478 20.8517 20.1028Z" fill="#B97964"/>
<path d="M23.0938 20.8677C23.0938 21.041 23.1836 21.1946 23.3046 21.1946C23.4255 21.1946 23.5269 21.0769 23.5318 20.9037C23.5367 20.7304 23.4419 20.5768 23.3209 20.5768C23.2 20.5768 23.0987 20.6945 23.0938 20.8677Z" fill="#263238"/>
<path d="M25.0029 20.9969C24.993 21.0676 25.0088 21.1395 25.0475 21.1995C25.0862 21.2596 25.1452 21.3036 25.2137 21.3237C25.333 21.3352 25.4344 21.2093 25.4376 21.0426C25.4476 20.9719 25.4318 20.9 25.3931 20.8399C25.3544 20.7799 25.2953 20.7358 25.2268 20.7157C25.1075 20.7027 25.0062 20.8285 25.0029 20.9969Z" fill="#263238"/>
<path d="M22.8553 20.1846C22.867 20.1871 22.8791 20.187 22.8907 20.1841C22.9023 20.1813 22.9132 20.1759 22.9223 20.1682C23.0077 20.0986 23.1089 20.0513 23.217 20.0305C23.3251 20.0096 23.4367 20.016 23.5418 20.0489C23.5524 20.0535 23.564 20.0559 23.5756 20.0557C23.5872 20.0555 23.5987 20.0529 23.6092 20.0479C23.6197 20.043 23.629 20.0358 23.6366 20.027C23.6441 20.0181 23.6497 20.0078 23.6529 19.9966C23.6596 19.9732 23.6575 19.9481 23.647 19.9261C23.6364 19.9041 23.6182 19.8867 23.5957 19.8773C23.4632 19.8334 23.3219 19.8235 23.1845 19.8483C23.0472 19.8731 22.9183 19.932 22.8096 20.0195C22.7913 20.0353 22.7798 20.0576 22.7777 20.0817C22.7756 20.1058 22.7829 20.1298 22.7981 20.1486C22.8123 20.167 22.8326 20.1797 22.8553 20.1846Z" fill="#263238"/>
<path d="M25.6439 20.3202C25.6649 20.3283 25.6882 20.3283 25.7092 20.3202C25.7298 20.3083 25.7448 20.2886 25.7509 20.2657C25.757 20.2427 25.7538 20.2182 25.7419 20.1976C25.6789 20.0657 25.5862 19.9501 25.4711 19.86C25.356 19.7698 25.2216 19.7075 25.0784 19.6779C25.0669 19.6763 25.0552 19.6771 25.0441 19.6803C25.033 19.6834 25.0226 19.6889 25.0137 19.6962C25.0048 19.7036 24.9975 19.7128 24.9923 19.7231C24.9871 19.7335 24.9842 19.7448 24.9836 19.7563C24.9821 19.7808 24.9898 19.805 25.0052 19.824C25.0207 19.8431 25.0427 19.8557 25.0669 19.8593C25.1798 19.8832 25.2858 19.9323 25.3772 20.0027C25.4686 20.0731 25.543 20.1632 25.5948 20.2663C25.6042 20.2896 25.6216 20.3087 25.6439 20.3202Z" fill="#263238"/>
<path d="M21.5414 21.3188C21.5414 21.3188 22.1772 20.5016 22.0792 18.8182C22.0689 18.6821 22.1117 18.5473 22.1985 18.4419C22.2853 18.3365 22.4094 18.2688 22.545 18.2527C23.3507 18.1628 24.4915 17.2476 25.6241 19.3412C25.6241 19.3412 25.1714 16.7605 21.5088 17.5761C19.1536 18.0991 20.2012 21.072 20.5134 21.3793C20.8256 21.6866 21.5414 21.3188 21.5414 21.3188Z" fill="#263238"/>
<path d="M20.1741 21.5542C20.2562 21.731 20.3724 21.8898 20.516 22.0216C20.6596 22.1534 20.8278 22.2556 21.0109 22.3224C21.4882 22.4858 21.802 21.7225 21.6761 21.2208C21.6162 20.9948 21.4776 20.7977 21.2852 20.665C21.0928 20.5322 20.8593 20.4726 20.6268 20.4967C20.1512 20.5539 19.96 21.1031 20.1741 21.5542Z" fill="#B97964"/>
<path d="M24.3934 22.7555C24.2491 22.9637 24.1202 23.1822 24.0077 23.4092L23.8818 23.3684C23.3065 23.1837 23.1006 22.9091 23.0483 22.659C23.0153 22.4659 23.0499 22.2674 23.1463 22.0968C23.3931 22.3763 23.9145 22.5871 24.1989 22.6917C24.3166 22.7326 24.3934 22.7555 24.3934 22.7555Z" fill="#263238"/>
<path d="M24.199 22.6884L24.0797 22.878C23.5387 22.7031 23.1824 22.507 23.0664 22.288C23.0839 22.2197 23.1108 22.1543 23.1465 22.0935C23.3933 22.373 23.9147 22.5871 24.199 22.6884Z" fill="white"/>
<path d="M23.8824 23.3716C23.3071 23.1869 23.1011 22.9124 23.0488 22.6623C23.2655 22.7349 23.4676 22.8456 23.6454 22.9892C23.7629 23.0883 23.8459 23.2222 23.8824 23.3716Z" fill="#DE5753"/>
<path d="M24.5129 20.9053C24.6464 21.3111 24.8211 21.7021 25.0343 22.0723C25.0457 22.0913 25.0525 22.1127 25.0543 22.1347C25.056 22.1568 25.0526 22.179 25.0444 22.1996C25.0362 22.2201 25.0233 22.2385 25.0068 22.2533C24.9903 22.2681 24.9706 22.2788 24.9493 22.2848C24.786 22.3191 24.6163 22.3078 24.459 22.2521L24.5129 20.9053Z" fill="#A24E3F"/>
<path opacity="0.2" d="M21.3192 21.7274H21.3094C21.2991 21.7247 21.2902 21.7181 21.2847 21.7089C21.2792 21.6997 21.2775 21.6888 21.28 21.6784C21.3181 21.522 21.2929 21.3569 21.2097 21.2191C21.169 21.1507 21.1151 21.0911 21.0511 21.0436C20.9871 20.9962 20.9144 20.962 20.8371 20.9429C20.8318 20.9416 20.8269 20.9393 20.8225 20.9361C20.8181 20.9329 20.8144 20.9289 20.8116 20.9242C20.8088 20.9196 20.807 20.9145 20.8061 20.9091C20.8053 20.9038 20.8056 20.8983 20.8068 20.8931C20.8081 20.8878 20.8104 20.8828 20.8136 20.8785C20.8168 20.8741 20.8209 20.8704 20.8255 20.8676C20.8301 20.8648 20.8353 20.8629 20.8406 20.8621C20.846 20.8613 20.8514 20.8615 20.8567 20.8628C21.0339 20.9072 21.1862 21.0201 21.2803 21.1766C21.3743 21.3332 21.4025 21.5207 21.3585 21.698C21.356 21.7065 21.3508 21.7139 21.3437 21.7192C21.3367 21.7245 21.3281 21.7274 21.3192 21.7274Z" fill="black"/>
<path d="M23.2861 20.5686L23.716 20.5033C23.716 20.5033 23.4594 20.8007 23.2861 20.5686Z" fill="#263238"/>
<path d="M25.1846 20.7157L25.6144 20.6504C25.6144 20.6504 25.3578 20.9462 25.1846 20.7157Z" fill="#263238"/>
<path d="M25.8841 20.1453C25.8841 20.1453 27.1132 18.8754 25.2778 17.6006C25.2778 17.6006 23.6744 16.5399 21.9747 17.4927C20.2749 18.4456 20.1899 19.1761 21.5841 20.9756C21.5841 20.9756 21.437 20.7419 22.0417 20.2908C22.6464 19.8397 23.3083 19.4458 23.0436 18.9391C23.0436 18.9391 23.4996 19.1582 23.4963 19.6076L24.3413 19.4442C24.3225 19.214 24.2534 18.9908 24.1386 18.7904C24.3724 18.9583 24.5524 19.1906 24.6567 19.4589L25.3611 19.6517C25.3611 19.6517 25.3088 18.9882 25.1258 18.7348C25.1258 18.7332 25.7256 19.4605 25.8841 20.1453Z" fill="#263238"/>
<path d="M8.87379 28.5166H9.73021C10.5474 28.5166 11.3646 28.4921 12.1818 28.5166C12.8579 28.5255 13.5104 28.7659 14.0307 29.1978C14.5509 29.6296 14.9073 30.2269 15.0403 30.8898C15.2266 31.854 15.2561 32.8625 15.3574 33.8317C15.7769 37.849 16.198 41.8663 16.6208 45.8836C16.7205 46.8446 16.575 48.8092 17.7191 49.1981C18.1375 49.342 18.6817 49.2701 19.1165 49.2701H27.9569C28.4472 49.2701 28.9375 49.2603 29.4278 49.2701C29.8253 49.2761 30.2199 49.3389 30.5997 49.4564V50.1755C30.423 50.1017 30.2389 50.0469 30.0505 50.0121C29.5466 49.947 29.0378 49.9284 28.5305 49.9565H19.8405C18.4023 49.9565 16.4933 50.1657 16.1958 48.2518C16.0553 47.3382 16.0095 46.4017 15.9049 45.4832C15.4898 41.5258 15.0757 37.569 14.6628 33.6126C14.5952 32.9894 14.5293 32.3634 14.465 31.7347C14.4176 31.282 14.3915 30.8424 14.1774 30.4272C13.571 29.2423 12.4139 29.1982 11.2649 29.1982H8.87379C8.7845 29.1982 8.69886 29.1627 8.63572 29.0996C8.57258 29.0364 8.53711 28.9508 8.53711 28.8615C8.53711 28.7722 8.57258 28.6866 8.63572 28.6234C8.69886 28.5603 8.7845 28.5248 8.87379 28.5248V28.5166Z" fill="#263238"/>
<path opacity="0.7" d="M8.87379 28.5166H9.73021C10.5474 28.5166 11.3646 28.4921 12.1818 28.5166C12.8579 28.5255 13.5104 28.7659 14.0307 29.1978C14.5509 29.6296 14.9073 30.2269 15.0403 30.8898C15.2266 31.854 15.2561 32.8625 15.3574 33.8317C15.7769 37.849 16.198 41.8663 16.6208 45.8836C16.7205 46.8446 16.575 48.8092 17.7191 49.1981C18.1375 49.342 18.6817 49.2701 19.1165 49.2701H27.9569C28.4472 49.2701 28.9375 49.2603 29.4278 49.2701C29.8253 49.2761 30.2199 49.3389 30.5997 49.4564V50.1755C30.423 50.1017 30.2389 50.0469 30.0505 50.0121C29.5466 49.947 29.0378 49.9284 28.5305 49.9565H19.8405C18.4023 49.9565 16.4933 50.1657 16.1958 48.2518C16.0553 47.3382 16.0095 46.4017 15.9049 45.4832C15.4898 41.5258 15.0757 37.569 14.6628 33.6126C14.5952 32.9894 14.5293 32.3634 14.465 31.7347C14.4176 31.282 14.3915 30.8424 14.1774 30.4272C13.571 29.2423 12.4139 29.1982 11.2649 29.1982H8.87379C8.7845 29.1982 8.69886 29.1627 8.63572 29.0996C8.57258 29.0364 8.53711 28.9508 8.53711 28.8615C8.53711 28.7722 8.57258 28.6866 8.63572 28.6234C8.69886 28.5603 8.7845 28.5248 8.87379 28.5248V28.5166Z" fill="white"/>
<path d="M8.47152 29.3306H11.7763C12.394 29.3306 12.394 28.3728 11.7763 28.3728H8.47152C7.85536 28.3728 7.85373 29.3306 8.47152 29.3306Z" fill="#69C53E"/>
<path opacity="0.3" d="M8.47152 29.3306H11.7763C12.394 29.3306 12.394 28.3728 11.7763 28.3728H8.47152C7.85536 28.3728 7.85373 29.3306 8.47152 29.3306Z" fill="black"/>
<path d="M28.9842 62.4857C27.6276 62.4857 26.5244 61.2599 26.5244 59.753C26.5244 58.2461 27.6276 57.0187 28.9842 57.0187C30.3407 57.0187 31.4357 58.2429 31.4357 59.753C31.4357 61.2632 30.3391 62.4857 28.9842 62.4857ZM28.9842 58.1693C28.2634 58.1693 27.6767 58.8786 27.6767 59.753C27.6767 60.6274 28.2634 61.3351 28.9842 61.3351C29.7049 61.3351 30.2917 60.6258 30.2917 59.753C30.2917 58.8803 29.7049 58.1693 28.9842 58.1693Z" fill="#263238"/>
<path d="M16.1467 62.5053C11.2289 62.5053 7.22461 57.9601 7.22461 52.3721C7.22461 46.7842 11.2256 42.239 16.1467 42.239C21.0679 42.239 25.0672 46.7858 25.0672 52.3721C25.0672 57.9585 21.0679 62.5053 16.1467 62.5053ZM16.1467 43.4582C11.8973 43.4582 8.44876 47.4575 8.44876 52.3803C8.44876 57.3031 11.9006 61.2893 16.1467 61.2893C20.3929 61.2893 23.8463 57.2949 23.8463 52.3803C23.8463 47.4657 20.388 43.4582 16.1467 43.4582Z" fill="#263238"/>
<path opacity="0.2" d="M16.1467 62.5053C11.2289 62.5053 7.22461 57.9601 7.22461 52.3721C7.22461 46.7842 11.2256 42.239 16.1467 42.239C21.0679 42.239 25.0672 46.7858 25.0672 52.3721C25.0672 57.9585 21.0679 62.5053 16.1467 62.5053ZM16.1467 43.4582C11.8973 43.4582 8.44876 47.4575 8.44876 52.3803C8.44876 57.3031 11.9006 61.2893 16.1467 61.2893C20.3929 61.2893 23.8463 57.2949 23.8463 52.3803C23.8463 47.4657 20.388 43.4582 16.1467 43.4582Z" fill="white"/>
<path d="M16.1463 60.7516C12.0996 60.7516 8.80957 56.9925 8.80957 52.3803C8.80957 47.7681 12.1012 44.0074 16.1463 44.0074C20.1914 44.0074 23.4815 47.7664 23.4815 52.3803C23.4815 56.9942 20.1898 60.7516 16.1463 60.7516ZM16.1463 44.5516C12.3987 44.5516 9.35055 48.0623 9.35055 52.3803C9.35055 56.6984 12.3987 60.2074 16.1463 60.2074C19.894 60.2074 22.9405 56.6967 22.9405 52.3803C22.9405 48.0639 19.8907 44.5434 16.1463 44.5434V44.5516Z" fill="#263238"/>
<g opacity="0.7">
<path d="M16.1463 60.7516C12.0996 60.7516 8.80957 56.9925 8.80957 52.3803C8.80957 47.7681 12.1012 44.0074 16.1463 44.0074C20.1914 44.0074 23.4815 47.7664 23.4815 52.3803C23.4815 56.9942 20.1898 60.7516 16.1463 60.7516ZM16.1463 44.5516C12.3987 44.5516 9.35055 48.0623 9.35055 52.3803C9.35055 56.6984 12.3987 60.2074 16.1463 60.2074C19.894 60.2074 22.9405 56.6967 22.9405 52.3803C22.9405 48.0639 19.8907 44.5434 16.1463 44.5434V44.5516Z" fill="white"/>
</g>
<path d="M15.3468 39.3363C19.4769 39.3363 23.6103 39.3134 27.742 39.3363C29.0495 39.3363 30.0628 40.2646 30.102 41.6914C30.1184 42.3648 30.102 43.0431 30.102 43.7148V56.2914C30.102 57.4011 30.1854 58.8198 28.7193 58.9064C28.2879 58.9277 28.2862 59.6386 28.7193 59.6141C30.0661 59.5438 30.7738 58.4521 30.7738 57.12V44.8621C30.7738 42.8224 31.2641 39.9116 29.0724 38.8983C28.3255 38.5501 27.4641 38.6417 26.6666 38.6417H15.3468C15.2601 38.6519 15.1802 38.6936 15.1222 38.7588C15.0643 38.824 15.0322 38.9082 15.0322 38.9955C15.0322 39.0828 15.0643 39.167 15.1222 39.2322C15.1802 39.2975 15.2601 39.3391 15.3468 39.3494V39.3363Z" fill="#263238"/>
<g opacity="0.7">
<path d="M15.3468 39.3363C19.4769 39.3363 23.6103 39.3134 27.742 39.3363C29.0495 39.3363 30.0628 40.2646 30.102 41.6914C30.1184 42.3648 30.102 43.0431 30.102 43.7148V56.2914C30.102 57.4011 30.1854 58.8198 28.7193 58.9064C28.2879 58.9277 28.2862 59.6386 28.7193 59.6141C30.0661 59.5438 30.7738 58.4521 30.7738 57.12V44.8621C30.7738 42.8224 31.2641 39.9116 29.0724 38.8983C28.3255 38.5501 27.4641 38.6417 26.6666 38.6417H15.3468C15.2601 38.6519 15.1802 38.6936 15.1222 38.7588C15.0643 38.824 15.0322 38.9082 15.0322 38.9955C15.0322 39.0828 15.0643 39.167 15.1222 39.2322C15.1802 39.2975 15.2601 39.3391 15.3468 39.3494V39.3363Z" fill="white"/>
</g>
<path d="M18.2287 37.8081H26.2372C26.3306 37.8107 26.4226 37.8316 26.5078 37.8697C26.5931 37.9078 26.6701 37.9623 26.7343 38.0302C26.7985 38.098 26.8487 38.1778 26.882 38.2651C26.9154 38.3524 26.9312 38.4453 26.9286 38.5387V38.8345C26.9312 38.9279 26.9154 39.0209 26.882 39.1081C26.8487 39.1954 26.7985 39.2752 26.7343 39.3431C26.6701 39.4109 26.5931 39.4655 26.5078 39.5036C26.4226 39.5416 26.3306 39.5626 26.2372 39.5651H18.2287C18.1354 39.5626 18.0434 39.5416 17.9581 39.5036C17.8728 39.4655 17.7959 39.4109 17.7317 39.3431C17.6675 39.2752 17.6173 39.1954 17.5839 39.1081C17.5506 39.0209 17.5348 38.9279 17.5374 38.8345V38.5387C17.5348 38.4453 17.5506 38.3524 17.5839 38.2651C17.6173 38.1778 17.6675 38.098 17.7317 38.0302C17.7959 37.9623 17.8728 37.9078 17.9581 37.8697C18.0434 37.8316 18.1354 37.8107 18.2287 37.8081Z" fill="#69C53E"/>
<path opacity="0.3" d="M18.2287 37.8081H26.2372C26.3306 37.8107 26.4226 37.8316 26.5078 37.8697C26.5931 37.9078 26.6701 37.9623 26.7343 38.0302C26.7985 38.098 26.8487 38.1778 26.882 38.2651C26.9154 38.3524 26.9312 38.4453 26.9286 38.5387V38.8345C26.9312 38.9279 26.9154 39.0209 26.882 39.1081C26.8487 39.1954 26.7985 39.2752 26.7343 39.3431C26.6701 39.4109 26.5931 39.4655 26.5078 39.5036C26.4226 39.5416 26.3306 39.5626 26.2372 39.5651H18.2287C18.1354 39.5626 18.0434 39.5416 17.9581 39.5036C17.8728 39.4655 17.7959 39.4109 17.7317 39.3431C17.6675 39.2752 17.6173 39.1954 17.5839 39.1081C17.5506 39.0209 17.5348 38.9279 17.5374 38.8345V38.5387C17.5348 38.4453 17.5506 38.3524 17.5839 38.2651C17.6173 38.1778 17.6675 38.098 17.7317 38.0302C17.7959 37.9623 17.8728 37.9078 17.9581 37.8697C18.0434 37.8316 18.1354 37.8107 18.2287 37.8081Z" fill="black"/>
<path d="M24.9668 37.8196C24.9668 37.8196 25.4244 39.485 25.3068 39.5504C25.1891 39.6158 24.7805 39.7138 24.5239 39.57C24.4261 39.6209 24.315 39.6402 24.2058 39.6252C24.0967 39.6103 23.9948 39.5619 23.9143 39.4867L23.777 39.2971C23.777 39.2971 23.5939 39.6795 23.1674 39.3085C22.7408 38.9375 22.5528 38.2658 22.5022 37.8016L21.9824 37.6758L22.6492 35.9564C22.6492 35.9564 24.7511 37.0171 25.1695 37.2002C25.4447 37.312 25.6644 37.5283 25.7807 37.8016L24.9668 37.8196Z" fill="#B97964"/>
<path d="M43.4292 58.0484H33.752V58.8247H43.4292V58.0484Z" fill="#263238"/>
<path opacity="0.7" d="M43.4292 58.0484H33.752V58.8247H43.4292V58.0484Z" fill="white"/>
<path d="M30.1592 51.7985L33.7973 58.7332L34.4347 58.4357L30.7835 51.3997L30.1592 51.7985Z" fill="#263238"/>
<path opacity="0.7" d="M30.1592 51.7985L33.7973 58.7332L34.4347 58.4357L30.7835 51.3997L30.1592 51.7985Z" fill="white"/>
<path d="M24.3237 26.2203C24.3237 26.2203 24.2877 27.7632 24.5443 27.9838C24.8009 28.2045 24.9072 27.7338 24.9072 27.7338C24.9072 27.7338 24.8205 28.2568 25.0379 28.3238C25.2978 28.4039 25.4089 27.9119 25.4089 27.9119C25.4089 27.9119 25.355 28.3418 25.5527 28.3892C25.7505 28.4366 25.9205 27.8988 25.9205 27.8988C25.9205 27.8988 25.9417 28.2078 26.097 28.1636C26.2523 28.1195 26.6216 26.964 26.5007 26.5603C26.3797 26.1566 24.881 25.7349 24.5394 25.7104C24.1978 25.6859 24.2011 25.6548 23.5898 25.9261C23.8481 26.052 24.1161 26.1452 24.327 26.2285L24.3237 26.2203Z" fill="#B97964"/>
<path opacity="0.2" d="M24.9315 27.7387L25.0378 26.8185C25.038 26.8155 25.0376 26.8125 25.0367 26.8096C25.0357 26.8068 25.0342 26.8041 25.0322 26.8018C25.0303 26.7996 25.0279 26.7977 25.0252 26.7964C25.0225 26.795 25.0195 26.7942 25.0165 26.794C25.0135 26.793 25.0103 26.7927 25.0071 26.7931C25.004 26.7935 25.001 26.7946 24.9983 26.7963C24.9957 26.7981 24.9934 26.8004 24.9917 26.8031C24.9901 26.8058 24.9891 26.8088 24.9887 26.812L24.8809 27.7321C24.8809 27.7436 24.8907 27.755 24.9037 27.7583C24.9099 27.7589 24.9162 27.7572 24.9213 27.7536C24.9264 27.75 24.93 27.7447 24.9315 27.7387Z" fill="black"/>
<path opacity="0.2" d="M25.4396 27.8923L25.6112 27.0179C25.6122 27.0116 25.6106 27.0052 25.607 27.0001C25.6033 26.9949 25.5978 26.9913 25.5916 26.9901C25.5853 26.989 25.5789 26.9903 25.5735 26.9936C25.5681 26.9969 25.5641 27.0021 25.5622 27.0081L25.3889 27.8825C25.3885 27.8857 25.3886 27.889 25.3895 27.8922C25.3903 27.8953 25.3917 27.8983 25.3937 27.9009C25.3957 27.9034 25.3982 27.9056 25.401 27.9072C25.4038 27.9088 25.4069 27.9099 25.4102 27.9103C25.4164 27.9118 25.4231 27.9107 25.4286 27.9073C25.4341 27.904 25.438 27.8986 25.4396 27.8923Z" fill="black"/>
<path opacity="0.2" d="M25.9531 27.8661L26.1002 27.2124C26.1008 27.2062 26.0991 27.2 26.0955 27.1949C26.0919 27.1898 26.0866 27.1861 26.0806 27.1846C26.0743 27.1833 26.0678 27.1843 26.0621 27.1872C26.0565 27.1902 26.052 27.1951 26.0495 27.2009L25.9024 27.8547C25.9019 27.8611 25.9038 27.8675 25.9077 27.8727C25.9116 27.8778 25.9173 27.8813 25.9237 27.8825C25.9297 27.884 25.9362 27.8832 25.9416 27.8802C25.9471 27.8771 25.9512 27.8721 25.9531 27.8661Z" fill="black"/>
<path d="M32.6967 25.8885C32.6967 25.8885 33.0236 25.6025 33.3505 25.7365C33.6773 25.8706 33.5695 26.1304 33.5695 26.1304C33.5695 26.1304 34.2232 26.1974 34.0598 26.5211L33.9274 26.7482C34.0316 26.7604 34.1288 26.8065 34.2042 26.8795C34.2795 26.9524 34.3287 27.0482 34.3442 27.1519C34.4324 27.5393 33.0072 28.7226 33.0072 28.7226L32.8961 29.1034L31.1064 28.4284L31.3353 27.8514L32.6967 25.8885Z" fill="#B97964"/>
<g opacity="0.2">
<path d="M32.7313 26.0618C32.7313 26.0618 33.1219 27.1127 32.9895 27.4363C32.8572 27.7599 32.5368 27.3775 32.5368 27.3775C32.5368 27.3775 32.8637 27.8204 32.7003 27.9838C32.4976 28.1816 32.1642 27.7795 32.1642 27.7795C32.1642 27.7795 32.4159 28.1506 32.2557 28.2862C32.0955 28.4219 31.6804 28.0002 31.6804 28.0002C31.6804 28.0002 31.8079 28.296 31.6428 28.3271C31.4777 28.3581 30.5935 27.4706 30.5151 27.0392C30.4366 26.6077 31.445 25.5077 31.7948 25.4211C32.1446 25.3345 32.594 25.4816 33.1203 25.8183L32.7378 26.0618H32.7313Z" fill="black"/>
</g>
<path d="M32.563 25.9474C32.563 25.9474 32.952 26.9983 32.8196 27.3203C32.6872 27.6422 32.3669 27.2614 32.3669 27.2614C32.3669 27.2614 32.6938 27.7043 32.5303 27.8678C32.3277 28.0655 31.9942 27.6635 31.9942 27.6635C31.9942 27.6635 32.2459 28.0345 32.0858 28.1718C31.9256 28.3091 31.5105 27.8858 31.5105 27.8858C31.5105 27.8858 31.6379 28.18 31.4729 28.2126C31.3078 28.2453 30.4236 27.3546 30.3451 26.9231C30.2667 26.4916 31.2767 25.3917 31.6249 25.3051C31.973 25.2184 32.4241 25.3655 32.9504 25.7022L32.5695 25.9474H32.563Z" fill="#D89380"/>
<path opacity="0.2" d="M32.3453 27.2794L31.8125 26.4769C31.8107 26.4742 31.8095 26.4711 31.8089 26.4678C31.8084 26.4646 31.8085 26.4613 31.8093 26.458C31.81 26.4548 31.8114 26.4518 31.8134 26.4492C31.8153 26.4465 31.8178 26.4443 31.8206 26.4426C31.8228 26.4402 31.8254 26.4382 31.8284 26.4369C31.8313 26.4356 31.8345 26.4349 31.8378 26.4349C31.841 26.4349 31.8443 26.4356 31.8472 26.4369C31.8502 26.4382 31.8528 26.4402 31.855 26.4426L32.3878 27.2402C32.3909 27.2459 32.3919 27.2526 32.3903 27.2589C32.3888 27.2653 32.385 27.2709 32.3796 27.2745C32.3755 27.2794 32.3697 27.2826 32.3634 27.2835C32.357 27.2844 32.3506 27.2829 32.3453 27.2794Z" fill="black"/>
<path opacity="0.2" d="M31.9501 27.6602L31.3781 26.9345C31.3736 26.93 31.3711 26.9238 31.3711 26.9174C31.3711 26.911 31.3736 26.9048 31.3781 26.9002C31.383 26.8956 31.3894 26.8931 31.3961 26.8931C31.4028 26.8931 31.4092 26.8956 31.4141 26.9002L31.9861 27.6259C31.9906 27.6305 31.9931 27.6366 31.9931 27.6431C31.9931 27.6495 31.9906 27.6556 31.9861 27.6602C31.9838 27.6627 31.981 27.6647 31.9779 27.666C31.9748 27.6674 31.9715 27.6681 31.9681 27.6681C31.9647 27.6681 31.9614 27.6674 31.9583 27.666C31.9552 27.6647 31.9524 27.6627 31.9501 27.6602Z" fill="black"/>
<path opacity="0.2" d="M31.4624 27.8776L31.0228 27.3513C31.0182 27.3465 31.0156 27.34 31.0156 27.3333C31.0156 27.3266 31.0182 27.3202 31.0228 27.3154C31.0274 27.3109 31.0335 27.3083 31.04 27.3083C31.0464 27.3083 31.0525 27.3109 31.0571 27.3154L31.4984 27.8416C31.503 27.8465 31.5056 27.8529 31.5056 27.8596C31.5056 27.8663 31.503 27.8727 31.4984 27.8776C31.4934 27.8818 31.487 27.8842 31.4804 27.8842C31.4738 27.8842 31.4675 27.8818 31.4624 27.8776Z" fill="black"/>
<path d="M33.4682 25.8036C33.3822 25.744 33.2842 25.7041 33.1812 25.6866C33.0781 25.6691 32.9724 25.6744 32.8716 25.7022C32.7082 25.7562 32.0381 26.3707 32.2179 26.5194C32.3977 26.6682 32.7899 26.4377 32.7899 26.4377C32.7899 26.4377 32.2849 26.7352 32.5317 26.9607C32.7785 27.1863 33.0874 26.8904 33.0874 26.8904C33.0618 26.9158 33.0415 26.946 33.0277 26.9792C33.0139 27.0124 33.0067 27.0481 33.0067 27.0841C33.0067 27.1201 33.0139 27.1558 33.0277 27.189C33.0415 27.2222 33.0618 27.2524 33.0874 27.2778C33.277 27.469 33.9046 27.4788 33.9046 27.4788L33.5483 26.575L33.4682 25.8036Z" fill="#B97964"/>
<path d="M35.2189 26.4949C34.9754 26.24 34.655 26.2825 34.0307 26.2857L33.9948 26.5293C33.9948 26.5293 33.1874 27.2092 33.1253 27.5524C33.0632 27.8956 33.5388 27.7452 33.5388 27.7452C33.5388 27.7452 33.0272 27.9446 33.0811 28.1734C33.1465 28.448 33.645 28.2878 33.645 28.2878C33.645 28.2878 33.2331 28.466 33.2952 28.667C33.3573 28.8681 33.9343 28.734 33.9343 28.734C33.9343 28.734 33.6679 28.9138 33.7905 29.0299C33.913 29.1459 35.1356 28.8664 35.433 28.5395C35.7305 28.2127 35.4673 26.7532 35.2189 26.4949Z" fill="#D89380"/>
<path opacity="0.2" d="M33.5468 27.7714L34.4244 27.3824C34.4304 27.3792 34.4349 27.3739 34.4371 27.3675C34.4392 27.3611 34.4388 27.3542 34.4359 27.3481C34.4337 27.342 34.4292 27.3371 34.4234 27.3344C34.4176 27.3316 34.4109 27.3312 34.4048 27.3334L33.5272 27.7223C33.5215 27.7258 33.5172 27.7311 33.5151 27.7374C33.513 27.7437 33.5132 27.7505 33.5157 27.7567C33.5179 27.7627 33.5224 27.7676 33.5282 27.7704C33.5341 27.7731 33.5407 27.7735 33.5468 27.7714Z" fill="black"/>
<path opacity="0.2" d="M33.6772 28.3042L34.5484 27.9969C34.5516 27.9958 34.5545 27.9941 34.557 27.9918C34.5595 27.9896 34.5614 27.9868 34.5628 27.9838C34.5642 27.9807 34.5649 27.9774 34.565 27.974C34.565 27.9707 34.5644 27.9673 34.5631 27.9642C34.5621 27.9611 34.5606 27.9582 34.5585 27.9556C34.5565 27.9531 34.5539 27.951 34.551 27.9495C34.5481 27.948 34.5449 27.9471 34.5417 27.9468C34.5384 27.9465 34.5351 27.9469 34.532 27.9479L33.6593 28.2535C33.6534 28.2564 33.6488 28.2613 33.6464 28.2673C33.644 28.2734 33.6439 28.2801 33.6462 28.2862C33.6469 28.2895 33.6484 28.2926 33.6504 28.2953C33.6524 28.298 33.6549 28.3003 33.6578 28.3019C33.6607 28.3036 33.6639 28.3047 33.6673 28.3051C33.6706 28.3055 33.674 28.3052 33.6772 28.3042Z" fill="black"/>
<path opacity="0.2" d="M33.9791 28.7487L34.6329 28.5395C34.6359 28.5383 34.6387 28.5364 34.641 28.5341C34.6433 28.5318 34.6451 28.529 34.6463 28.5259C34.6475 28.5229 34.6481 28.5196 34.6481 28.5163C34.648 28.5131 34.6473 28.5098 34.6459 28.5068C34.644 28.5008 34.64 28.4956 34.6346 28.4923C34.6292 28.489 34.6228 28.4878 34.6165 28.4888L33.9628 28.698C33.9571 28.7011 33.9525 28.706 33.9499 28.7119C33.9472 28.7178 33.9466 28.7244 33.9481 28.7307C33.9488 28.734 33.9502 28.7371 33.9522 28.7398C33.9542 28.7425 33.9568 28.7448 33.9597 28.7465C33.9626 28.7482 33.9658 28.7492 33.9692 28.7496C33.9725 28.75 33.9759 28.7497 33.9791 28.7487Z" fill="black"/>
</svg>
