<svg width="96" height="71" viewBox="0 0 96 71" fill="none" xmlns="http://www.w3.org/2000/svg">
<path d="M95.5 65.3568H0.5V65.4064H95.5V65.3568Z" fill="#EBEBEB"/>
<path d="M15.4068 67.2466H10.4668V67.2963H15.4068V67.2466Z" fill="#EBEBEB"/>
<path d="M38.5817 66.7089H28.3027V66.7585H38.5817V66.7089Z" fill="#EBEBEB"/>
<path d="M20.5985 69.0911H15.5977V69.1408H20.5985V69.0911Z" fill="#EBEBEB"/>
<path d="M85.9808 68.7577H82.3271V68.8073H85.9808V68.7577Z" fill="#EBEBEB"/>
<path d="M80.634 68.7577H74.8789V68.8073H80.634V68.7577Z" fill="#EBEBEB"/>
<path d="M59.9299 67.9199H49.5635V67.9695H59.9299V67.9199Z" fill="#EBEBEB"/>
<path d="M45.5299 56.5018H8.84277C8.55536 56.5012 8.2799 56.3816 8.07685 56.169C7.87381 55.9565 7.75977 55.6684 7.75977 55.3681V1.47823C7.76227 1.17963 7.87741 0.894121 8.08019 0.683716C8.28297 0.47331 8.557 0.355004 8.84277 0.354492H45.5299C45.8176 0.354492 46.0935 0.473932 46.297 0.686536C46.5005 0.899139 46.6148 1.18749 46.6148 1.48816V55.3681C46.6148 55.6688 46.5005 55.9571 46.297 56.1697C46.0935 56.3823 45.8176 56.5018 45.5299 56.5018ZM8.84277 0.3942C8.56796 0.394726 8.30458 0.509168 8.11044 0.712407C7.9163 0.915645 7.80727 1.19107 7.80727 1.47823V55.3681C7.80727 55.6553 7.9163 55.9307 8.11044 56.1339C8.30458 56.3372 8.56796 56.4516 8.84277 56.4521H45.5299C45.8048 56.4516 46.0684 56.3372 46.2629 56.1341C46.4573 55.9309 46.5668 55.6555 46.5673 55.3681V1.47823C46.5668 1.19089 46.4573 0.915467 46.2629 0.712285C46.0684 0.509104 45.8048 0.394725 45.5299 0.3942H8.84277Z" fill="#EBEBEB"/>
<path d="M86.6294 56.5018H49.9404C49.6528 56.5013 49.3771 56.3816 49.1738 56.1692C48.9704 55.9567 48.856 55.6686 48.8555 55.3681V1.47823C48.8585 1.17945 48.974 0.893942 49.1771 0.683592C49.3802 0.473241 49.6544 0.354998 49.9404 0.354492H86.6294C86.9148 0.355525 87.1884 0.474063 87.3907 0.684413C87.5931 0.894762 87.708 1.17997 87.7105 1.47823V55.3681C87.7105 55.6681 87.5967 55.9558 87.3941 56.1683C87.1914 56.3808 86.9164 56.5007 86.6294 56.5018ZM49.9404 0.3942C49.6654 0.394725 49.4018 0.509104 49.2074 0.712285C49.0129 0.915467 48.9035 1.19089 48.903 1.47823V55.3681C48.9035 55.6555 49.0129 55.9309 49.2074 56.1341C49.4018 56.3372 49.6654 56.4516 49.9404 56.4521H86.6294C86.9044 56.4516 87.1679 56.3372 87.3624 56.1341C87.5568 55.9309 87.6663 55.6555 87.6668 55.3681V1.47823C87.6663 1.19089 87.5568 0.915467 87.3624 0.712285C87.1679 0.509104 86.9044 0.394725 86.6294 0.3942H49.9404Z" fill="#EBEBEB"/>
<path d="M77.1404 26.959C79.8257 26.959 82.0025 24.6843 82.0025 21.8783C82.0025 19.0724 79.8257 16.7977 77.1404 16.7977C74.4552 16.7977 72.2783 19.0724 72.2783 21.8783C72.2783 24.6843 74.4552 26.959 77.1404 26.959Z" fill="#FAFAFA"/>
<path d="M25.9885 14.4052C25.7555 14.4176 25.5253 14.4637 25.3045 14.5422C25.2513 14.0657 24.7022 13.7739 23.7275 13.8076C23.186 13.8335 22.6492 13.9248 22.1277 14.0796C22.4678 13.3629 22.1277 12.8546 21.1777 12.8546C20.5439 12.8803 19.9202 13.0291 19.3385 13.2934C19.1998 12.8129 18.6773 12.5171 17.7995 12.5171C16.3992 12.5171 14.5087 13.2676 13.0628 14.3238C12.3674 14.3417 11.0298 14.7586 10.8037 15.1319H26.2583L26.3305 15.0624C26.6991 14.6812 26.5509 14.3854 25.9885 14.4052Z" fill="#E6E6E6"/>
<path d="M86.6022 24.4256C86.3434 24.4396 86.0878 24.4904 85.8422 24.5765C85.7833 24.0504 85.1772 23.7287 84.098 23.7645C83.4991 23.793 82.9055 23.8942 82.3291 24.0663C82.7091 23.2721 82.3291 22.7122 81.2689 22.7122C80.5683 22.7403 79.8788 22.9046 79.2359 23.1967C79.082 22.6646 78.5044 22.337 77.5259 22.337C75.9793 22.337 73.8874 23.1689 72.2876 24.3363C71.5181 24.3561 70.0418 24.8167 69.7891 25.2297H86.8891C86.9157 25.2039 86.9423 25.1801 86.9689 25.1523C87.3869 24.7314 87.2235 24.4058 86.6022 24.4256Z" fill="#F5F5F5"/>
<path d="M77.6526 12.253C77.2747 12.2804 76.9027 12.366 76.5487 12.5071C76.7387 11.6216 76.0927 11.0796 74.6183 11.1392C73.7499 11.1954 72.8918 11.3669 72.0647 11.6494C72.99 10.3152 72.7677 9.37019 71.3389 9.37019C70.5257 9.37019 69.456 9.67594 68.335 10.1862C68.4091 9.28879 67.7973 8.73883 66.4825 8.73883C64.8542 8.73883 62.5172 9.58461 60.2505 10.887C60.1897 10.5078 59.8477 10.2914 59.2188 10.2914C58.3486 10.2914 57.1288 10.7183 55.9109 11.3893C55.833 11.3893 55.7513 11.3893 55.6639 11.3893C54.123 11.5005 51.9551 12.3682 50.6992 13.3589H77.8958C78.5513 12.7096 78.4601 12.2212 77.6526 12.253Z" fill="#F0F0F0"/>
<path d="M29.7791 23.3276C29.6229 23.3377 29.4692 23.3725 29.3231 23.4309C29.4029 23.0676 29.1331 22.8353 28.527 22.867C28.1689 22.8899 27.8152 22.9606 27.4744 23.0775C27.8544 22.5275 27.7632 22.1384 27.1742 22.1384C26.7444 22.1657 26.3237 22.2796 25.9354 22.4739C25.9658 22.1046 25.7131 21.8783 25.1754 21.8783C24.5047 21.8783 23.5395 22.2257 22.6066 22.7638C22.58 22.6069 22.4394 22.5156 22.181 22.5156C21.6992 22.5594 21.2327 22.714 20.8149 22.9683H20.7142C19.9761 23.0551 19.271 23.335 18.6641 23.7823H29.8741C30.1401 23.5143 30.1116 23.3137 29.7791 23.3276Z" fill="#FAFAFA"/>
<path d="M13.3163 27.6003C12.2352 27.3183 11.5607 26.7366 10.7969 27.7194C11.8609 26.959 13.2669 28.0708 13.2669 28.0708C13.2669 28.0708 14.8458 27.229 15.7692 28.1701C15.1878 27.0642 14.4278 27.5169 13.3163 27.6003Z" fill="#E0E0E0"/>
<path d="M18.299 30.8384C17.6112 30.6597 17.1837 30.2885 16.6973 30.9139C17.3737 30.4294 18.2743 31.1362 18.2743 31.1362C18.2743 31.1362 19.2756 30.6022 19.8627 31.1998C19.4865 30.4969 19.0039 30.7848 18.299 30.8384Z" fill="#E0E0E0"/>
<path d="M75.3786 5.38743C74.4742 5.15117 73.9118 4.66474 73.2734 5.4867C74.1626 4.85137 75.3463 5.78054 75.3463 5.78054C75.3463 5.78054 76.663 5.07771 77.4363 5.86393C76.9423 4.93873 76.3096 5.31794 75.3786 5.38743Z" fill="#E0E0E0"/>
<path d="M25.3123 40.3662H36.2582V65.3565H17.3779V46.66L25.3123 40.3662Z" fill="#E0E0E0"/>
<path d="M28.3236 65.3568H44.1924V46.6602H28.3236V65.3568Z" fill="#EBEBEB"/>
<path d="M28.3236 47.1563H44.1924V46.66H28.3236V47.1563Z" fill="#E0E0E0"/>
<path d="M36.2576 40.3662L44.192 46.66H28.3232L36.2576 40.3662Z" fill="#EBEBEB"/>
<path d="M30.7744 53.4383H41.7393V49.8983H30.7744V53.4383Z" fill="#E0E0E0"/>
<path d="M40.2953 61.7234H41.7393V57.0795H40.2953V61.7234Z" fill="#E0E0E0"/>
<path d="M34.2842 65.3568H38.2324V58.1497H34.2842V65.3568Z" fill="#E0E0E0"/>
<path d="M30.7748 61.7234H32.2188V57.0795H30.7748V61.7234Z" fill="#E0E0E0"/>
<path d="M19.705 45.1968H22.707V39.6655H19.705V45.1968Z" fill="#E0E0E0"/>
<path d="M78.4771 51.1412L71.2799 51.1392L69.0474 52.9102V52.1974H67.6471V54.022L66.0625 55.2788V55.6044V65.3567H69.9822H71.2799H83.6945V55.2788L78.4771 51.1412Z" fill="#F5F5F5"/>
<path d="M59.1116 41.4859H68.2544L71.0892 43.7354V42.828H72.8676V45.145L74.8797 46.7413V47.1562V65.3564H69.9017H68.2544H52.4863V46.7413L59.1116 41.4859Z" fill="#F0F0F0"/>
<path d="M48.0002 70.9272C68.3459 70.9272 84.8393 69.9643 84.8393 68.7764C84.8393 67.5886 68.3459 66.6256 48.0002 66.6256C27.6546 66.6256 11.1611 67.5886 11.1611 68.7764C11.1611 69.9643 27.6546 70.9272 48.0002 70.9272Z" fill="#F5F5F5"/>
<path d="M36.6975 30.9656L33.9834 31.7855L34.0385 31.9679L36.7526 31.148L36.6975 30.9656Z" fill="#69C53E"/>
<path d="M38.9212 30.2926L37.4766 30.729L37.5317 30.9114L38.9763 30.475L38.9212 30.2926Z" fill="#69C53E"/>
<path d="M28.9555 32.594L42.5938 28.4373L39.1678 17.1963L25.5295 21.353L28.9555 32.594Z" fill="#69C53E"/>
<path d="M44.2674 15.647L39.1621 17.203L42.5881 28.444L47.6934 26.888L44.2674 15.647Z" fill="#69C53E"/>
<path opacity="0.3" d="M44.2674 15.647L39.1621 17.203L42.5881 28.444L47.6934 26.888L44.2674 15.647Z" fill="black"/>
<path opacity="0.3" d="M38.727 27.1542L45.0234 25.2521L43.9534 21.7099L37.6569 23.612L38.727 27.1542Z" fill="white"/>
<path d="M28.2329 24.7727L30.5938 24.0532L29.8742 21.6923L27.5133 22.4119L28.2329 24.7727Z" fill="white"/>
<path d="M31.1254 23.8902L33.4863 23.1706L32.7668 20.8097L30.4059 21.5293L31.1254 23.8902Z" fill="white"/>
<path d="M32.9283 11.6169C33.3899 11.5422 33.803 11.2878 34.0775 10.9093C34.352 10.5309 34.4655 10.0591 34.3932 9.59722L33.9714 6.94862C33.8962 6.48733 33.6417 6.07448 33.2634 5.80006C32.8851 5.52565 32.4136 5.41194 31.9517 5.48372C31.4904 5.55892 31.0776 5.81343 30.8032 6.19177C30.5288 6.57011 30.4151 7.04159 30.4868 7.50342L30.9086 10.1634C30.986 10.6229 31.2415 11.0332 31.6197 11.3053C31.9979 11.5775 32.4681 11.6895 32.9283 11.6169Z" fill="#69C53E"/>
<path opacity="0.3" d="M31.3139 8.66429C31.3508 8.88437 31.452 9.08862 31.6047 9.2513C31.7574 9.41399 31.9549 9.52784 32.1722 9.57851C32.3895 9.62918 32.617 9.61441 32.8259 9.53605C33.0348 9.45769 33.2159 9.31925 33.3463 9.13817C33.4767 8.95709 33.5506 8.74147 33.5587 8.51848C33.5667 8.29548 33.5086 8.07508 33.3917 7.88504C33.2747 7.695 33.1042 7.54382 32.9014 7.45054C32.6987 7.35727 32.4729 7.32608 32.2525 7.36089C31.9557 7.41032 31.6905 7.57507 31.5147 7.81922C31.3389 8.06338 31.2667 8.36714 31.3139 8.66429Z" fill="black"/>
<path d="M31.7052 8.60152C31.728 8.74472 31.7927 8.87795 31.8912 8.98436C31.9897 9.09078 32.1176 9.1656 32.2586 9.19938C32.3996 9.23315 32.5475 9.22436 32.6835 9.17412C32.8195 9.12388 32.9376 9.03444 33.0228 8.91711C33.108 8.79978 33.1566 8.65982 33.1623 8.51492C33.1679 8.37003 33.1306 8.22669 33.0548 8.10304C32.9791 7.97939 32.8683 7.88097 32.7367 7.82021C32.605 7.75946 32.4583 7.73911 32.315 7.76172C32.123 7.79255 31.9509 7.89824 31.8366 8.05564C31.7223 8.21304 31.675 8.40933 31.7052 8.60152Z" fill="#263238"/>
<path d="M32.4198 8.23674C32.4291 8.2957 32.4614 8.34854 32.5097 8.38364C32.558 8.41874 32.6182 8.43322 32.6772 8.42389C32.7362 8.41457 32.789 8.38221 32.8241 8.33393C32.8592 8.28565 32.8737 8.2254 32.8644 8.16644C32.8597 8.13725 32.8494 8.10925 32.834 8.08405C32.8185 8.05885 32.7983 8.03693 32.7744 8.01955C32.7505 8.00217 32.7234 7.98967 32.6947 7.98276C32.6659 7.97586 32.6361 7.97468 32.6069 7.97929C32.5777 7.98391 32.5497 7.99423 32.5245 8.00967C32.4993 8.0251 32.4774 8.04535 32.46 8.06926C32.4426 8.09317 32.4301 8.12026 32.4232 8.149C32.4163 8.17774 32.4151 8.20755 32.4198 8.23674Z" fill="white"/>
<path d="M32.0609 8.85987C32.063 8.87467 32.068 8.8889 32.0756 8.90173C32.0833 8.91456 32.0934 8.92572 32.1055 8.93457C32.1175 8.94343 32.1312 8.94978 32.1457 8.95327C32.1603 8.95675 32.1753 8.9573 32.1901 8.95487C32.2194 8.94975 32.2455 8.93337 32.2629 8.90923C32.2803 8.88509 32.2876 8.8551 32.2832 8.82567C32.2786 8.7962 32.2626 8.76973 32.2385 8.75209C32.2145 8.73445 32.1844 8.72709 32.1549 8.73162C32.1254 8.73616 32.099 8.75222 32.0813 8.77627C32.0637 8.80032 32.0563 8.8304 32.0609 8.85987Z" fill="white"/>
<path d="M42.0586 7.13669L37.2402 7.61169L37.3523 8.31469L42.1593 7.77509L42.0586 7.13669Z" fill="#69C53E"/>
<path opacity="0.3" d="M42.0586 7.13669L37.2402 7.61169L37.3523 8.31469L42.1593 7.77509L42.0586 7.13669Z" fill="white"/>
<path d="M42.3495 8.84658C42.559 8.81244 42.7466 8.69722 42.8717 8.52584C42.9969 8.35445 43.0495 8.14069 43.0183 7.93078L42.8283 6.71858C42.7942 6.50748 42.678 6.31846 42.5049 6.19279C42.3319 6.06712 42.1162 6.01503 41.9049 6.04788C41.6938 6.08199 41.5048 6.19824 41.3791 6.37126C41.2535 6.54427 41.2014 6.75999 41.2342 6.97128L41.4242 8.18348C41.4601 8.39357 41.5774 8.58104 41.7506 8.70518C41.9238 8.82933 42.1391 8.88014 42.3495 8.84658Z" fill="#69C53E"/>
<path d="M37.2568 7.17092L33.9736 6.96762L34.3536 9.32552L37.4411 8.83342C37.4908 8.8258 37.5384 8.80841 37.5813 8.78226C37.6242 8.75611 37.6614 8.72173 37.6909 8.68109C37.7204 8.64046 37.7416 8.59438 37.7532 8.54552C37.7648 8.49665 37.7666 8.44598 37.7584 8.39642L37.614 7.49202C37.6006 7.40555 37.5577 7.32638 37.4926 7.26788C37.4275 7.20938 37.3442 7.17513 37.2568 7.17092Z" fill="#69C53E"/>
<path d="M41.5165 5.53125C41.5259 5.58988 41.5524 5.6444 41.5928 5.68793C41.6332 5.73146 41.6856 5.76204 41.7433 5.77579C41.8011 5.78955 41.8616 5.78587 41.9173 5.76522C41.973 5.74457 42.0213 5.70787 42.0561 5.65977C42.0909 5.61167 42.1107 5.55433 42.1129 5.495C42.1151 5.43566 42.0997 5.377 42.0686 5.32643C42.0375 5.27587 41.992 5.23566 41.9381 5.2109C41.8841 5.18615 41.824 5.17795 41.7654 5.18735C41.6868 5.19995 41.6164 5.24326 41.5697 5.30775C41.523 5.37225 41.5039 5.45264 41.5165 5.53125Z" fill="#69C53E"/>
<path d="M42.6097 5.58997L45.0094 5.20997C45.0694 5.19972 45.1229 5.16627 45.1585 5.11686C45.194 5.06744 45.2087 5.00603 45.1994 4.94587C45.1948 4.91613 45.1843 4.88759 45.1686 4.86191C45.1529 4.83623 45.1322 4.81391 45.1079 4.79625C45.0835 4.77858 45.0559 4.76592 45.0266 4.75899C44.9973 4.75206 44.9669 4.751 44.9372 4.75587L42.5375 5.13587C42.4775 5.14613 42.4239 5.17958 42.3884 5.22899C42.3528 5.27841 42.3381 5.33982 42.3475 5.39997C42.3582 5.45937 42.3915 5.51233 42.4403 5.54774C42.4892 5.58316 42.5499 5.59829 42.6097 5.58997Z" fill="#69C53E"/>
<path d="M38.689 6.2208L41.0887 5.8408C41.1185 5.83617 41.147 5.82571 41.1727 5.81C41.1984 5.79429 41.2207 5.77366 41.2384 5.74928C41.256 5.7249 41.2687 5.69727 41.2756 5.66798C41.2825 5.63868 41.2836 5.6083 41.2787 5.5786C41.2741 5.54885 41.2636 5.52031 41.2479 5.49463C41.2322 5.46895 41.2116 5.44663 41.1872 5.42897C41.1628 5.4113 41.1352 5.39864 41.1059 5.39171C41.0766 5.38478 41.0462 5.38372 41.0165 5.3886L38.6168 5.7686C38.5871 5.77322 38.5585 5.78368 38.5329 5.79939C38.5072 5.81509 38.4849 5.83573 38.4672 5.86011C38.4495 5.88449 38.4369 5.91212 38.43 5.94142C38.423 5.97071 38.422 6.00109 38.4268 6.0308C38.4366 6.09065 38.4697 6.1442 38.5188 6.17979C38.5679 6.21537 38.6291 6.23011 38.689 6.2208Z" fill="#69C53E"/>
<path d="M22.8604 10.1975L27.5857 9.15063L27.6978 9.85364L22.9611 10.8359L22.8604 10.1975Z" fill="#69C53E"/>
<path opacity="0.3" d="M22.8604 10.1975L27.5857 9.15063L27.6978 9.85364L22.9611 10.8359L22.8604 10.1975Z" fill="white"/>
<path d="M23.1094 11.9208C22.898 11.9542 22.682 11.9023 22.5089 11.7765C22.3358 11.6508 22.2196 11.4614 22.186 11.2501L21.996 10.0379C21.9631 9.82688 22.0149 9.61141 22.1402 9.43845C22.2655 9.26548 22.454 9.14904 22.6648 9.11449C22.8763 9.08161 23.0923 9.13365 23.2656 9.25928C23.4389 9.38491 23.5555 9.57394 23.5901 9.78519L23.7801 10.9974C23.8135 11.2088 23.7616 11.4247 23.6358 11.5979C23.5101 11.771 23.3207 11.8872 23.1094 11.9208Z" fill="#69C53E"/>
<path d="M27.4335 8.73442L30.4906 7.52222L30.8706 9.88012L27.7831 10.3722C27.7336 10.3803 27.6829 10.3785 27.634 10.367C27.5852 10.3554 27.5391 10.3342 27.4984 10.3047C27.4578 10.2752 27.4234 10.2379 27.3973 10.1951C27.3711 10.1522 27.3537 10.1046 27.3461 10.0549L27.2017 9.15052C27.1871 9.06513 27.2022 8.97732 27.2443 8.90164C27.2865 8.82597 27.3532 8.76697 27.4335 8.73442Z" fill="#69C53E"/>
<path d="M22.8754 8.50092C22.8855 8.55988 22.8777 8.62049 22.8531 8.675C22.8284 8.7295 22.7881 8.77541 22.7372 8.80683C22.6863 8.83825 22.6272 8.85375 22.5674 8.85135C22.5077 8.84895 22.45 8.82875 22.4018 8.79334C22.3536 8.75794 22.3171 8.70894 22.2969 8.65264C22.2767 8.59633 22.2738 8.53529 22.2886 8.47733C22.3033 8.41937 22.3351 8.36713 22.3797 8.32733C22.4243 8.28753 22.4799 8.26196 22.5391 8.25392C22.6163 8.24345 22.6945 8.26336 22.7572 8.30944C22.8199 8.35552 22.8623 8.42418 22.8754 8.50092Z" fill="#69C53E"/>
<path d="M21.8557 8.89798L19.456 9.27798C19.3959 9.28734 19.3345 9.27265 19.285 9.2371C19.2356 9.20155 19.2022 9.14799 19.1919 9.08798C19.1831 9.02813 19.1981 8.9672 19.2336 8.91821C19.2691 8.86922 19.3223 8.83605 19.3819 8.82579L21.7816 8.44579C21.8416 8.43647 21.9027 8.45121 21.9518 8.48679C22.001 8.52238 22.034 8.57593 22.0438 8.63579C22.0487 8.66535 22.0477 8.6956 22.0409 8.72479C22.0341 8.75397 22.0216 8.78153 22.0041 8.80589C21.9867 8.83024 21.9646 8.85091 21.9391 8.86671C21.9136 8.88251 21.8853 8.89314 21.8557 8.89798Z" fill="#69C53E"/>
<path d="M25.7698 8.27283L23.3701 8.65283C23.3099 8.66219 23.2485 8.6475 23.1991 8.61195C23.1497 8.5764 23.1162 8.52284 23.106 8.46283C23.0972 8.40298 23.1121 8.34205 23.1476 8.29306C23.1831 8.24407 23.2364 8.2109 23.296 8.20063L25.6957 7.82063C25.7254 7.81576 25.7558 7.81682 25.7851 7.82375C25.8144 7.83068 25.842 7.84334 25.8664 7.861C25.8908 7.87867 25.9114 7.90099 25.9271 7.92667C25.9428 7.95235 25.9533 7.98089 25.9579 8.01063C25.9628 8.0402 25.9618 8.07045 25.955 8.09963C25.9482 8.12882 25.9357 8.15638 25.9182 8.18073C25.9007 8.20509 25.8786 8.22576 25.8532 8.24156C25.8277 8.25736 25.7994 8.26799 25.7698 8.27283Z" fill="#69C53E"/>
<path d="M43.4391 15.5061C43.4159 15.5067 43.3928 15.5035 43.3707 15.4966L33.0841 12.5535C33.0246 12.5316 32.9756 12.488 32.947 12.4314C32.9183 12.3748 32.9122 12.3095 32.9298 12.2486C32.9473 12.1877 32.9873 12.1357 33.0417 12.1031C33.0961 12.0704 33.1608 12.0596 33.2228 12.0728L43.498 15.0159C43.5616 15.0344 43.6154 15.0774 43.6474 15.1355C43.6795 15.1935 43.6872 15.2618 43.669 15.3256C43.6549 15.3762 43.625 15.421 43.5836 15.4535C43.5423 15.486 43.4916 15.5044 43.4391 15.5061Z" fill="#263238"/>
<path d="M38.9988 16.6252C38.9478 16.625 38.898 16.6091 38.8563 16.5796L33.01 12.5193C32.9809 12.5014 32.9558 12.4777 32.9361 12.4498C32.9165 12.4218 32.9028 12.3901 32.8959 12.3567C32.8889 12.3232 32.8889 12.2887 32.8958 12.2552C32.9026 12.2217 32.9163 12.19 32.9359 12.162C32.9555 12.134 32.9805 12.1103 33.0096 12.0923C33.0387 12.0744 33.0711 12.0625 33.1049 12.0576C33.1387 12.0526 33.1732 12.0546 33.2062 12.0634C33.2392 12.0722 33.2701 12.0877 33.2969 12.1089L39.1413 16.1692C39.1848 16.1998 39.2175 16.2434 39.2346 16.2937C39.2517 16.344 39.2524 16.3985 39.2365 16.4492C39.2207 16.5 39.1891 16.5444 39.1464 16.576C39.1036 16.6076 39.052 16.6249 38.9988 16.6252Z" fill="#263238"/>
<path d="M25.8739 20.8699C25.8256 20.8706 25.7781 20.8573 25.7373 20.8316C25.6964 20.8058 25.6639 20.7687 25.6438 20.7248C25.6236 20.6809 25.6167 20.632 25.6238 20.5843C25.631 20.5365 25.6518 20.4918 25.6839 20.4557L32.9628 12.1489C33.0064 12.0985 33.0682 12.0675 33.1347 12.0627C33.2012 12.0579 33.2668 12.0796 33.3172 12.1232C33.3676 12.1668 33.3986 12.2286 33.4034 12.2951C33.4082 12.3615 33.3864 12.4272 33.3428 12.4776L26.0639 20.7844C26.0403 20.8115 26.0111 20.8332 25.9783 20.848C25.9455 20.8627 25.9099 20.8702 25.8739 20.8699Z" fill="#263238"/>
<path d="M53.5462 23.6343H53.5101C53.4754 23.6345 53.4411 23.6429 53.4101 23.6587C53.3792 23.6745 53.3524 23.6974 53.3318 23.7255C53.3113 23.7536 53.2977 23.7861 53.292 23.8204C53.2864 23.8547 53.2888 23.8899 53.2992 23.9231L54.0953 26.452H54.4069L53.5462 23.6343Z" fill="#69C53E"/>
<path d="M53.3564 29.211H53.6015L52.1081 24.326C52.0458 24.3266 51.9846 24.3417 51.9292 24.3701C51.8738 24.3984 51.8257 24.4393 51.7888 24.4894C51.752 24.5396 51.7273 24.5976 51.7167 24.659C51.7062 24.7203 51.7101 24.7833 51.7281 24.8429L52.9764 28.9278C53.0017 29.0091 53.0521 29.0803 53.1203 29.1312C53.1886 29.1821 53.2712 29.21 53.3564 29.211Z" fill="#69C53E"/>
<path d="M59.3585 24.3202H57.9354L57.7264 23.6343H56.6966L56.3166 22.4107C56.3131 22.3987 56.3073 22.3875 56.2995 22.3778C56.2917 22.3681 56.282 22.36 56.2711 22.354C56.2601 22.348 56.2481 22.3442 56.2357 22.3428C56.2233 22.3415 56.2108 22.3426 56.1988 22.3461C56.1748 22.3539 56.1548 22.3708 56.1431 22.3932C56.1314 22.4155 56.1289 22.4416 56.1361 22.4658L56.4933 23.6343H54.6883L53.9283 21.1643C53.9259 21.1511 53.9207 21.1386 53.9131 21.1275C53.9055 21.1165 53.8957 21.1071 53.8842 21.1002C53.8728 21.0932 53.86 21.0887 53.8467 21.0871C53.8334 21.0854 53.8199 21.0865 53.8071 21.0904C53.7943 21.0944 53.7824 21.1009 53.7723 21.1098C53.7622 21.1186 53.7541 21.1294 53.7485 21.1416C53.7429 21.1538 53.74 21.167 53.7398 21.1804C53.7397 21.1938 53.7424 21.2071 53.7478 21.2194L54.485 23.6343H53.535L53.744 24.3202H52.0967L53.6015 29.2108H60.8519L59.3585 24.3202Z" fill="#69C53E"/>
<path opacity="0.4" d="M59.3585 24.3202H57.9354L57.7264 23.6343H56.6966L56.3166 22.4107C56.3131 22.3987 56.3073 22.3875 56.2995 22.3778C56.2917 22.3681 56.282 22.36 56.2711 22.354C56.2601 22.348 56.2481 22.3442 56.2357 22.3428C56.2233 22.3415 56.2108 22.3426 56.1988 22.3461C56.1748 22.3539 56.1548 22.3708 56.1431 22.3932C56.1314 22.4155 56.1289 22.4416 56.1361 22.4658L56.4933 23.6343H54.6883L53.9283 21.1643C53.9259 21.1511 53.9207 21.1386 53.9131 21.1275C53.9055 21.1165 53.8957 21.1071 53.8842 21.1002C53.8728 21.0932 53.86 21.0887 53.8467 21.0871C53.8334 21.0854 53.8199 21.0865 53.8071 21.0904C53.7943 21.0944 53.7824 21.1009 53.7723 21.1098C53.7622 21.1186 53.7541 21.1294 53.7485 21.1416C53.7429 21.1538 53.74 21.167 53.7398 21.1804C53.7397 21.1938 53.7424 21.2071 53.7478 21.2194L54.485 23.6343H53.535L53.744 24.3202H52.0967L53.6015 29.2108H60.8519L59.3585 24.3202Z" fill="white"/>
<path d="M65.5224 20.752C65.7466 21.0978 65.9366 21.4303 66.1304 21.7742C66.3242 22.1181 66.5104 22.4639 66.6852 22.8135C67.0405 23.5146 67.3654 24.2366 67.6542 24.9814C67.8024 25.3519 67.9297 25.7414 68.0513 26.1214L68.0741 26.1974L68.1064 26.3209C68.127 26.404 68.1416 26.4885 68.1501 26.5736C68.1692 26.7457 68.1653 26.9194 68.1387 27.0904C68.0897 27.3996 67.9758 27.6949 67.8043 27.9568C67.526 28.3641 67.1598 28.7037 66.7327 28.9505C66.5494 29.0617 66.359 29.1607 66.1627 29.2469C65.9635 29.3334 65.7584 29.4058 65.549 29.4635L65.1044 28.5135C65.3655 28.2945 65.6129 28.0597 65.8454 27.8105C66.0424 27.6119 66.1981 27.3762 66.3033 27.117C66.3303 27.0495 66.3382 26.9759 66.3261 26.9042C66.3192 26.885 66.3103 26.8666 66.2995 26.8491C66.2955 26.8397 66.2904 26.8308 66.2843 26.8225C66.2837 26.8181 66.2837 26.8137 66.2843 26.8092L66.2596 26.7484C66.1247 26.4178 65.9784 26.0891 65.8264 25.7566C65.5167 25.0973 65.1804 24.4399 64.8251 23.7882L64.2893 22.8135L63.7402 21.8635L65.5224 20.752Z" fill="#FFB573"/>
<path d="M65.572 28.4129L64.5726 28.1526L64.5156 29.7638C64.5156 29.7638 65.2965 29.8797 65.7753 29.4028L65.572 28.4129Z" fill="#FFB573"/>
<path d="M63.1562 27.881L63.3824 29.2965L64.5148 29.7639L64.5718 28.1526L63.1562 27.881Z" fill="#FFB573"/>
<path d="M59.0206 14.2692C58.9978 14.3794 58.9218 14.4592 58.8496 14.4421C58.7774 14.425 58.7375 14.3262 58.7603 14.216C58.7831 14.1058 58.8591 14.026 58.9313 14.0431C59.0035 14.0602 59.051 14.159 59.0206 14.2692Z" fill="#263238"/>
<path d="M58.9389 14.4593C58.7389 14.7696 58.4973 15.0509 58.2207 15.2953C58.2851 15.3646 58.3639 15.4188 58.4516 15.4543C58.5392 15.4897 58.6336 15.5055 58.728 15.5005L58.9389 14.4593Z" fill="#ED893E"/>
<path d="M59.5559 13.7392C59.5729 13.7386 59.5891 13.7318 59.6015 13.7202C59.6137 13.7077 59.6205 13.691 59.6205 13.6736C59.6205 13.6562 59.6137 13.6395 59.6015 13.6271C59.5311 13.5474 59.4426 13.4859 59.3433 13.4479C59.2441 13.4098 59.1371 13.3964 59.0315 13.4086C59.0141 13.4114 58.9986 13.421 58.9882 13.4352C58.9779 13.4494 58.9737 13.4672 58.9764 13.4846C58.9796 13.5017 58.9893 13.517 59.0035 13.5272C59.0176 13.5375 59.0351 13.5419 59.0524 13.5397C59.1352 13.5321 59.2186 13.5441 59.2959 13.5748C59.3731 13.6055 59.442 13.654 59.497 13.7164C59.5039 13.7251 59.513 13.7317 59.5234 13.7357C59.5337 13.7397 59.5449 13.7409 59.5559 13.7392Z" fill="#263238"/>
<path d="M62.1703 15.8216C61.9708 16.8419 61.7713 18.7134 62.4857 19.3936C62.4857 19.3936 62.2064 20.4291 60.3083 20.4291C58.2183 20.4291 59.3108 19.3936 59.3108 19.3936C60.4508 19.1219 60.4204 18.2783 60.2228 17.4841L62.1703 15.8216Z" fill="#FFB573"/>
<path d="M62.8964 19.5836C63.0503 19.3005 63.2175 18.9756 62.8698 18.873C62.4898 18.7609 60.0331 18.5538 59.3111 18.7647C59.5334 19.158 59.1572 19.6425 59.1572 19.6425L62.8964 19.5836Z" fill="#69C53E"/>
<path d="M69.079 67.1881C69.0227 67.2082 68.9629 67.2169 68.9032 67.2136C68.8435 67.2103 68.7851 67.1952 68.7313 67.1691C68.7105 67.1501 68.6962 67.125 68.6904 67.0974C68.6846 67.0698 68.6876 67.041 68.699 67.0152C68.7053 66.9938 68.7163 66.9741 68.7311 66.9574C68.7458 66.9406 68.764 66.9273 68.7845 66.9183C68.9745 66.829 69.4058 67.0057 69.4229 67.0133C69.4291 67.015 69.4345 67.0188 69.4383 67.024C69.4421 67.0291 69.444 67.0354 69.4438 67.0418C69.4442 67.0483 69.4426 67.0547 69.4392 67.0601C69.4358 67.0656 69.4308 67.0698 69.4248 67.0722C69.3141 67.1233 69.1981 67.1622 69.079 67.1881ZM68.851 66.9658C68.838 66.9685 68.8253 66.9723 68.813 66.9772C68.8009 66.9826 68.7901 66.9905 68.7813 67.0003C68.7725 67.0101 68.7658 67.0217 68.7617 67.0342C68.7446 67.095 68.7617 67.1121 68.7731 67.1197C68.8491 67.1824 69.1265 67.1197 69.3241 67.0456C69.1743 66.9841 69.0126 66.9568 68.851 66.9658Z" fill="#69C53E"/>
<path d="M69.4191 67.076H69.402C69.2443 67.0304 68.9061 66.7909 68.9023 66.6332C68.9021 66.6082 68.9105 66.5838 68.926 66.5641C68.9416 66.5444 68.9634 66.5306 68.9878 66.525C69.0118 66.5171 69.037 66.514 69.0621 66.516C69.0873 66.5179 69.1117 66.5248 69.1341 66.5364C69.3241 66.6333 69.4381 67.0189 69.4419 67.036C69.445 67.0409 69.4466 67.0465 69.4466 67.0522C69.4466 67.0579 69.445 67.0635 69.4419 67.0684L69.4191 67.076ZM69.0239 66.582H69.0087C68.9669 66.5972 68.9688 66.6162 68.9688 66.6257C68.9688 66.7188 69.193 66.9068 69.3488 66.9828C69.306 66.8294 69.2179 66.6923 69.0961 66.5896C69.0734 66.5796 69.0482 66.5769 69.0239 66.582Z" fill="#69C53E"/>
<path d="M58.7731 67.4219C58.5926 67.4219 58.4197 67.3972 58.3627 67.3174C58.3478 67.2962 58.3398 67.271 58.3398 67.2452C58.3398 67.2193 58.3478 67.1941 58.3627 67.173C58.3859 67.1342 58.4235 67.1062 58.4672 67.0951C58.7009 67.0324 59.1873 67.3098 59.2082 67.3231C59.2145 67.3259 59.2197 67.3309 59.2228 67.3371C59.2259 67.3434 59.2268 67.3505 59.2253 67.3573C59.224 67.3638 59.2207 67.3698 59.216 67.3745C59.2113 67.3793 59.2053 67.3825 59.1987 67.3839C59.0582 67.4085 58.9158 67.4212 58.7731 67.4219ZM58.5508 67.1521C58.53 67.149 58.5089 67.149 58.4881 67.1521C58.4744 67.1544 58.4614 67.1597 58.4499 67.1676C58.4384 67.1755 58.4288 67.1857 58.4216 67.1977C58.3988 67.2395 58.4083 67.2604 58.4216 67.2718C58.4862 67.3611 58.8396 67.363 59.0999 67.3269C58.9298 67.2338 58.7434 67.1745 58.5508 67.1521Z" fill="#69C53E"/>
<path d="M59.1948 67.3837H59.1796C59.0124 67.3077 58.678 67.0037 58.7046 66.8479C58.7046 66.8099 58.7369 66.7643 58.8262 66.7548C58.8601 66.751 58.8944 66.7541 58.9271 66.7639C58.9597 66.7737 58.99 66.79 59.0162 66.8118C59.1929 66.9581 59.2309 67.3343 59.2328 67.3495C59.2336 67.3553 59.2327 67.3612 59.2304 67.3665C59.228 67.3719 59.2243 67.3765 59.2195 67.3799C59.212 67.3841 59.2032 67.3854 59.1948 67.3837ZM58.8528 66.8137H58.83C58.7711 66.8137 58.7673 66.8422 58.7654 66.8498C58.7502 66.9448 58.9763 67.1823 59.1454 67.2849C59.1272 67.1258 59.0609 66.976 58.9554 66.8555C58.9257 66.833 58.89 66.8198 58.8528 66.8175V66.8137Z" fill="#69C53E"/>
<path d="M60.7286 67.3514H59.334L59.1953 64.1195H60.5899L60.7286 67.3514Z" fill="#FFB573"/>
<path d="M70.9734 66.7054L69.6092 66.9999L68.2393 63.9903L69.6035 63.6939L70.9734 66.7054Z" fill="#FFB573"/>
<path d="M69.4703 66.8632L71.0036 66.5307C71.0308 66.5254 71.0589 66.5293 71.0836 66.5417C71.1084 66.554 71.1283 66.5742 71.1404 66.5991L71.6724 67.7543C71.685 67.7825 71.691 67.8132 71.6901 67.8441C71.6892 67.8749 71.6813 67.9052 71.667 67.9326C71.6528 67.96 71.6326 67.9838 71.6078 68.0023C71.5831 68.0208 71.5545 68.0334 71.5242 68.0393C70.9884 68.1457 70.7205 68.1704 70.0479 68.3167C69.6318 68.406 68.697 68.634 68.1232 68.7594C67.5494 68.8848 67.3537 68.3319 67.5779 68.2312C68.5792 67.7733 68.9972 67.3705 69.267 66.9943C69.3165 66.9273 69.3888 66.8807 69.4703 66.8632Z" fill="#263238"/>
<path d="M59.3438 67.1901H60.8638C60.8914 67.1895 60.9184 67.1988 60.9399 67.2161C60.9615 67.2335 60.9762 67.2579 60.9816 67.2851L61.259 68.5258C61.2656 68.5557 61.2653 68.5867 61.2582 68.6165C61.2511 68.6464 61.2374 68.6742 61.218 68.6979C61.1986 68.7217 61.1741 68.7408 61.1463 68.7537C61.1186 68.7667 61.0882 68.7732 61.0576 68.7728C60.5066 68.7728 59.7124 68.7329 59.0227 68.7329C58.2133 68.7329 57.516 68.7765 56.5679 68.7765C55.9979 68.7765 55.8364 68.1971 56.0758 68.1439C57.1683 67.9064 58.0594 67.8797 59.0037 67.2983C59.1047 67.2311 59.2225 67.1936 59.3438 67.1901Z" fill="#263238"/>
<path d="M64.9844 19.7108C66.2935 20.011 67.3708 23.3512 67.3708 23.3512L64.745 25.3538C64.0645 24.6291 63.5839 23.74 63.3504 22.7736C62.902 21.0218 63.6468 19.403 64.9844 19.7108Z" fill="#69C53E"/>
<path opacity="0.2" d="M63.8636 22.1656C64.5742 22.8686 64.8136 24.1492 64.8611 25.2626L64.7452 25.3519C64.0647 24.6272 63.5841 23.7381 63.3506 22.7717C63.324 22.6672 63.3012 22.5627 63.2822 22.4601L63.8636 22.1656Z" fill="black"/>
<path d="M57.1647 19.7813C57.1647 19.7813 55.6789 21.459 57.083 31.8463H64.5481C64.5994 30.7063 63.8793 25.1089 64.9851 19.7091C64.16 19.5502 63.3254 19.4448 62.4866 19.3937C61.4292 19.3328 60.3692 19.3328 59.3117 19.3937C58.5871 19.4667 57.8692 19.5963 57.1647 19.7813Z" fill="#69C53E"/>
<path opacity="0.2" d="M59.1953 64.1195L59.2656 65.7858H60.6621L60.5918 64.1195H59.1953Z" fill="black"/>
<path opacity="0.2" d="M69.6054 63.6939L68.2412 63.9903L68.948 65.5426L70.3122 65.2462L69.6054 63.6939Z" fill="black"/>
<path d="M62.7559 14.7823C62.3968 16.1218 62.2543 16.9217 61.4259 17.4784C60.1833 18.3163 58.6367 17.3549 58.5892 15.9375C58.5455 14.6607 59.1383 12.6866 60.5747 12.4168C60.8913 12.3547 61.2185 12.3748 61.5252 12.4751C61.8319 12.5754 62.1077 12.7526 62.3265 12.9898C62.5452 13.227 62.6995 13.5163 62.7747 13.8301C62.8498 14.1439 62.8434 14.4717 62.7559 14.7823Z" fill="#FFB573"/>
<path d="M59.8569 14.7823C59.7296 14.3054 59.4294 13.4523 60.0716 13.1958C60.9342 12.8785 62.6974 13.0058 63.4004 13.4827C64.0768 14.6531 63.2541 15.7133 62.8304 16.1959C62.4067 16.6785 62.3782 16.9882 62.1008 17.1136C61.5707 17.3568 60.4364 17.0851 60.292 16.6215C60.1039 16.0382 59.3325 15.5024 59.8569 14.7823Z" fill="#263238"/>
<path d="M63.1602 13.6157C63.1602 13.6157 63.7511 13.3193 63.6162 12.4757C64.0874 13.0609 63.8271 14.2123 63.1602 13.6157Z" fill="#263238"/>
<path d="M63.3027 13.9216C63.3027 13.9216 63.5877 13.9368 63.8974 14.5543C63.9202 14.0109 63.5801 13.3573 63.3027 13.9216Z" fill="#263238"/>
<path d="M60.7568 13.2984C59.8068 13.3877 59.176 13.0609 58.8188 12.4985C59.0216 12.548 59.2334 12.548 59.4363 12.4985C59.3523 12.4045 59.2482 12.3308 59.1317 12.2828C59.0153 12.2347 58.8894 12.2136 58.7637 12.2211C58.9157 12.1035 59.0916 12.0207 59.279 11.9783C59.4664 11.936 59.6608 11.9352 59.8486 11.976C59.669 11.6441 59.6208 11.2568 59.7137 10.8911C59.8638 11.2407 60.6789 11.6207 60.9734 11.6283C60.9734 11.6283 60.5592 11.1533 60.7055 10.6536C61.0114 11.1134 61.741 11.9684 62.691 12.1584C63.4795 12.3161 64.2205 13.8931 62.881 13.8361C61.1102 13.7639 60.7568 13.2984 60.7568 13.2984Z" fill="#263238"/>
<path d="M60.4796 14.7196C60.3863 15.0527 60.186 15.3458 59.9096 15.5537C59.5467 15.8235 59.275 15.5537 59.3016 15.1471C59.3244 14.7766 59.541 14.1971 59.9419 14.0793C60.3428 13.9615 60.5822 14.3187 60.4796 14.7196Z" fill="#FFB573"/>
<path d="M59.7314 31.8461C59.7314 31.8461 61.3141 42.5108 62.1843 46.5008C63.1343 50.8708 68.2434 65.3564 68.2434 65.3564L70.7419 64.8149C70.7419 64.8149 67.1718 53.0159 66.3719 46.8979C65.7582 42.1992 64.5479 31.8385 64.5479 31.8385L59.7314 31.8461Z" fill="#69C53E"/>
<path d="M67.6447 64.5299C67.6333 64.5299 68.1102 65.4343 68.1102 65.4343L70.9222 64.8244L70.6847 63.9808L67.6447 64.5299Z" fill="#263238"/>
<path opacity="0.3" d="M60.7307 35.6462C62.5623 36.0053 62.3685 42.8358 62.1481 46.3489C61.6199 43.8656 60.8466 39.0871 60.3184 35.6956C60.4461 35.6326 60.5916 35.6152 60.7307 35.6462Z" fill="black"/>
<path d="M57.082 31.8462C57.082 31.8462 56.892 42.2829 57.0421 46.5389C57.1998 50.9659 58.7521 65.4629 58.7521 65.4629H61.11C61.11 65.4629 61.1974 51.2243 61.3 46.8771C61.4159 42.1271 61.9878 31.8462 61.9878 31.8462H57.082Z" fill="#69C53E"/>
<path d="M58.2907 64.5204C58.2793 64.5204 58.4237 65.5027 58.4237 65.5027H61.3003L61.3782 64.6268L58.2907 64.5204Z" fill="#263238"/>
<path d="M57.13 19.635C56.7652 19.8003 56.4137 20.0986 56.3073 21.0828C56.2066 22.0328 56.4023 30.3206 56.6398 32.9692C56.6451 33.0548 56.6779 33.1364 56.7334 33.2018C56.7888 33.2672 56.864 33.3129 56.9476 33.3321C58.422 33.6266 62.8661 33.5753 64.4697 33.3701C64.5604 33.3554 64.643 33.3092 64.7031 33.2398C64.7632 33.1703 64.797 33.0819 64.7984 32.9901C64.9276 30.427 65.2962 25.9183 65.2962 23.2526C65.2962 21.5141 65.4862 19.7205 64.1562 19.4146C63.1796 19.1847 58.555 18.9852 57.13 19.635Z" fill="#263238"/>
<path d="M58.6405 22.0593C58.5759 22.4602 58.498 22.8193 58.4125 23.1993C58.327 23.5793 58.2358 23.946 58.1294 24.3184C57.9185 25.0824 57.6486 25.8289 57.3219 26.5509C57.143 26.9473 56.926 27.3252 56.674 27.6795C56.5217 27.8892 56.3458 28.0804 56.1496 28.2495C56.0285 28.3559 55.896 28.4483 55.7544 28.525C55.6835 28.5617 55.6106 28.5941 55.5359 28.6219C55.459 28.6511 55.3803 28.6752 55.3003 28.6941C54.9665 28.7771 54.6165 28.7679 54.2876 28.6675C54.0037 28.5763 53.7439 28.4224 53.5276 28.2172C53.3484 28.0507 53.1947 27.8586 53.0716 27.6472C53.0165 27.5465 52.9633 27.4458 52.9196 27.3432C52.8759 27.2406 52.8436 27.1418 52.8018 27.0107L53.7271 26.5186C53.7746 26.549 53.8449 26.6098 53.9038 26.6554C53.9627 26.701 54.0273 26.7504 54.0938 26.7903C54.2011 26.8682 54.3179 26.9321 54.4415 26.9803C54.515 27.0124 54.5968 27.0204 54.6752 27.0031C54.7208 26.9841 54.7284 26.9632 54.7569 26.9309L54.812 26.8796L54.8633 26.8264C54.935 26.7448 54.9987 26.6563 55.0533 26.5623C55.2101 26.3001 55.3442 26.0248 55.4542 25.7396C55.7009 25.0952 55.909 24.4367 56.0774 23.7675C56.1648 23.4255 56.2522 23.0815 56.332 22.7338C56.4118 22.3861 56.4859 22.0289 56.5543 21.7021L58.6405 22.0593Z" fill="#FFB573"/>
<path d="M59.6224 21.1472C60.7624 23.4272 58.0625 26.0036 58.0625 26.0036L55.0586 24.4342C55.2685 23.2261 55.6126 22.0452 56.0846 20.9135C56.9605 18.9698 58.9707 19.8343 59.6224 21.1472Z" fill="#69C53E"/>
<path d="M53.2292 27.4344L52.1367 26.8948L52.7162 25.4831C52.7162 25.4831 53.9265 25.8821 53.8562 26.8948L53.2292 27.4344Z" fill="#FFB573"/>
<path d="M51.8721 26.547L51.7676 25.2835L52.7157 25.483L52.1362 26.8947L51.8721 26.547Z" fill="#FFB573"/>
</svg>
