<svg width="36" height="36" viewBox="0 0 36 36" fill="none" xmlns="http://www.w3.org/2000/svg">
<path d="M14.2472 8.6894C16.3772 5.8334 19.5797 4.9994 22.5257 5.8019C25.7057 6.6674 28.5017 9.3989 29.4302 13.2029C29.4782 13.3979 29.5197 13.5929 29.5547 13.7879C28.2143 13.3103 26.7564 13.2735 25.3937 13.6829C23.4632 12.2549 21.0722 12.0149 18.9467 12.7979C16.2842 13.7804 14.2052 16.2719 13.7237 19.4069C13.1087 23.4209 15.5537 27.0269 19.0112 30.0929L19.5932 30.5969C19.1237 30.6299 18.6467 30.5564 18.1907 30.4589C17.9564 30.4085 17.7233 30.3525 17.4917 30.2909L16.6862 30.0659C9.5252 28.0514 4.7312 24.8999 3.3557 20.1899C2.2577 16.4309 3.3137 12.6674 5.6357 10.3274C7.7867 8.1599 10.9757 7.2809 14.2472 8.6894ZM16.6892 19.8614C17.3312 15.6734 22.1747 13.6094 24.6617 17.2034C24.6855 17.2368 24.7216 17.2595 24.762 17.2665C24.8024 17.2735 24.844 17.2643 24.8777 17.2409C28.4432 14.7149 32.2877 18.3104 31.4582 22.4654C30.9782 24.8754 28.7432 26.8754 24.7532 28.4654L24.1007 28.7204L23.7062 28.8824C23.3657 29.0159 23.0057 29.1224 22.6802 29.0654C22.3562 29.0084 22.0547 28.7834 21.7802 28.5434L21.3152 28.1234C17.8452 25.1374 16.3032 22.3834 16.6892 19.8614Z" fill="#434343"/>
</svg>
