<svg width="40" height="40" viewBox="0 0 40 40" fill="none" xmlns="http://www.w3.org/2000/svg">
<path d="M34.4389 31.285C34.4389 31.285 32.5078 33.1817 32.0345 33.7377C31.2636 34.5604 30.3553 34.9489 29.1646 34.9489C29.0501 34.9489 28.928 34.9488 28.8135 34.9412C26.5465 34.7965 24.4399 33.9129 22.8599 33.1588C18.5397 31.0717 14.7462 28.1086 11.5938 24.3533C8.99102 21.2226 7.25074 18.328 6.09818 15.2202C5.38833 13.3235 5.12881 11.8458 5.2433 10.4518C5.31963 9.56061 5.66311 8.82174 6.29663 8.18951L8.89943 5.59203C9.27344 5.24164 9.67034 5.05121 10.0596 5.05121C10.5405 5.05121 10.9298 5.34066 11.174 5.58441C11.1816 5.59203 11.1893 5.59965 11.1969 5.60727C11.6625 6.04145 12.1052 6.49087 12.5708 6.97075C12.8074 7.2145 13.0517 7.45825 13.2959 7.70962L15.3797 9.78913C16.1888 10.5966 16.1888 11.343 15.3797 12.1505C15.1583 12.3714 14.9446 12.5923 14.7233 12.8056C14.0821 13.4606 14.5858 12.958 13.9217 13.5521C13.9065 13.5674 13.8912 13.575 13.8836 13.5902C13.2271 14.2453 13.3493 14.8852 13.4867 15.3193C13.4943 15.3422 13.5019 15.365 13.5096 15.3879C14.0515 16.6981 14.8148 17.932 15.975 19.4022L15.9826 19.4098C18.0893 21.9997 20.3104 24.0182 22.7605 25.5645C23.0735 25.7626 23.3941 25.9225 23.6994 26.0749C23.9742 26.212 24.2337 26.3415 24.455 26.4786C24.4856 26.4938 24.5161 26.5167 24.5466 26.5319C24.8061 26.6614 25.0504 26.7223 25.3023 26.7223C25.9358 26.7223 26.3327 26.3262 26.4625 26.1967L27.9586 24.7037C28.2181 24.4447 28.6303 24.1324 29.1112 24.1324C29.5844 24.1324 29.9737 24.4295 30.2103 24.6884C30.2179 24.6961 30.2179 24.6961 30.2256 24.7037L34.4312 28.9008C35.2174 29.6777 34.4389 31.285 34.4389 31.285Z" stroke="#60B338" stroke-width="3" stroke-linecap="round" stroke-linejoin="round"/>
</svg>
