<svg width="74" height="74" viewBox="0 0 74 74" fill="none" xmlns="http://www.w3.org/2000/svg">
<path d="M41.3488 22.8156C40.2881 21.5427 38.3964 21.3708 37.1235 22.4315C35.8507 23.4921 35.6787 25.3838 36.7394 26.6567L41.3488 22.8156ZM49.2641 37.0001L51.5687 38.9206C52.4958 37.8081 52.4958 36.1921 51.5687 35.0795L49.2641 37.0001ZM36.7394 47.3435C35.6787 48.6163 35.8507 50.508 37.1235 51.5687C38.3964 52.6294 40.2881 52.4574 41.3487 51.1846L36.7394 47.3435ZM24.7361 34.0001C23.0793 34.0001 21.7361 35.3432 21.7361 37.0001C21.7361 38.6569 23.0793 40.0001 24.7361 40.0001L24.7361 34.0001ZM36.7394 26.6567L46.9594 38.9206L51.5687 35.0795L41.3488 22.8156L36.7394 26.6567ZM46.9594 35.0795L36.7394 47.3435L41.3487 51.1846L51.5687 38.9206L46.9594 35.0795ZM49.2641 34.0001L24.7361 34.0001L24.7361 40.0001L49.2641 40.0001V34.0001ZM54.5009 19.4991C64.1664 29.1646 64.1664 44.8354 54.5009 54.5009L58.7435 58.7435C70.7522 46.7349 70.7522 27.2651 58.7435 15.2565L54.5009 19.4991ZM54.5009 54.5009C44.8354 64.1664 29.1646 64.1664 19.4991 54.5009L15.2565 58.7435C27.2651 70.7522 46.7349 70.7522 58.7435 58.7435L54.5009 54.5009ZM19.4991 54.5009C9.83363 44.8354 9.83363 29.1646 19.4991 19.4991L15.2565 15.2565C3.24784 27.2651 3.24784 46.7349 15.2565 58.7435L19.4991 54.5009ZM19.4991 19.4991C29.1646 9.83363 44.8354 9.83363 54.5009 19.4991L58.7435 15.2565C46.7349 3.24784 27.2651 3.24784 15.2565 15.2565L19.4991 19.4991Z" fill="#206143"/>
</svg>
