<svg width="40" height="40" viewBox="0 0 40 40" fill="none" xmlns="http://www.w3.org/2000/svg">
<path d="M20 20V18.5C19.1716 18.5 18.5 19.1716 18.5 20H20ZM20.1328 20H21.6328C21.6328 19.1716 20.9613 18.5 20.1328 18.5V20ZM20.1328 20.1201V21.6201C20.9613 21.6201 21.6328 20.9485 21.6328 20.1201H20.1328ZM20 20.1201H18.5C18.5 20.9485 19.1716 21.6201 20 21.6201V20.1201ZM33.5 20C33.5 27.4558 27.4558 33.5 20 33.5V36.5C29.1127 36.5 36.5 29.1127 36.5 20H33.5ZM20 33.5C12.5442 33.5 6.5 27.4558 6.5 20H3.5C3.5 29.1127 10.8873 36.5 20 36.5V33.5ZM6.5 20C6.5 12.5442 12.5442 6.5 20 6.5V3.5C10.8873 3.5 3.5 10.8873 3.5 20H6.5ZM20 6.5C27.4558 6.5 33.5 12.5442 33.5 20H36.5C36.5 10.8873 29.1127 3.5 20 3.5V6.5ZM26 20C26 23.3137 23.3137 26 20 26V29C24.9706 29 29 24.9706 29 20H26ZM20 26C16.6863 26 14 23.3137 14 20H11C11 24.9706 15.0294 29 20 29V26ZM14 20C14 16.6863 16.6863 14 20 14V11C15.0294 11 11 15.0294 11 20H14ZM20 14C23.3137 14 26 16.6863 26 20H29C29 15.0294 24.9706 11 20 11V14ZM20 21.5H20.1328V18.5H20V21.5ZM18.6328 20V20.1201H21.6328V20H18.6328ZM20.1328 18.6201H20V21.6201H20.1328V18.6201ZM21.5 20.1201V20H18.5V20.1201H21.5Z" fill="#60B338"/>
</svg>
