<svg width="32" height="33" viewBox="0 0 32 33" fill="none" xmlns="http://www.w3.org/2000/svg">
<path d="M7.20019 26.1002C7.81509 25.4115 10.6949 22.2424 11.5389 22.2424H20.4621C21.685 22.2424 24.1815 24.8694 24.8002 25.7954M28.8002 16.5002C28.8002 23.5694 23.0694 29.3002 16.0002 29.3002C8.93095 29.3002 3.2002 23.5694 3.2002 16.5002C3.2002 9.43095 8.93095 3.7002 16.0002 3.7002C23.0694 3.7002 28.8002 9.43095 28.8002 16.5002ZM20.5853 12.1375C20.5853 9.69546 18.5238 7.70019 16.0006 7.70019C13.4774 7.70019 11.4158 9.69546 11.4158 12.1375C11.4158 14.5795 13.4774 16.5747 16.0006 16.5747C18.5237 16.5747 20.5853 14.5795 20.5853 12.1375Z" stroke="#434343" stroke-width="2"/>
</svg>
